<?xml version="1.0" encoding="UTF-8"?>
<svg id="Camada_8" data-name="Camada 8" xmlns="http://www.w3.org/2000/svg" viewBox="0 0 375 375">
  <defs>
    <style>
      .cls-1, .cls-2 {
        fill: #442815;
      }

      .cls-3 {
        fill: #654128;
      }

      .cls-4 {
        stroke: #d49e38;
        stroke-miterlimit: 10;
        stroke-width: 2px;
      }

      .cls-4, .cls-5 {
        fill: #d2a554;
      }

      .cls-6 {
        letter-spacing: -.01em;
      }

      .cls-7 {
        letter-spacing: -.02em;
      }

      .cls-2 {
        font-family: PlayfairDisplay-Regular, 'Playfair Display';
        font-size: 41.12px;
        font-variation-settings: 'wght' 400;
      }

      .cls-8 {
        fill: #4b2c18;
      }

      .cls-9 {
        fill: #90613c;
      }

      .cls-10 {
        letter-spacing: -.02em;
      }

      .cls-11 {
        letter-spacing: -.02em;
      }
    </style>
  </defs>
  <g id="logo_site">
    <text class="cls-2" transform="translate(181.42 206.14)"><tspan x="0" y="0">Laur</tspan><tspan class="cls-6" x="86.85" y="0">a</tspan><tspan class="cls-10" x="106.83" y="0"> </tspan><tspan class="cls-7" x="116.42" y="0">’</tspan><tspan x="125.67" y="0" xml:space="preserve"> s </tspan><tspan x="45.15" y="36.84">ca</tspan><tspan class="cls-11" x="85.62" y="36.84">f</tspan><tspan x="98.57" y="36.84">é</tspan></text>
    <line class="cls-4" x1="178.76" y1="230.62" x2="223.14" y2="230.62"/>
    <line class="cls-4" x1="308.24" y1="230.62" x2="352.62" y2="230.62"/>
    <g id="Logo">
      <g id="pe_de_cafe">
        <path id="folha1" class="cls-5" d="m161.96,161.37s-20.6.29-20.68,22.69c0,0,8.98,1.83,21.3-10.73s8.44-12.63,8.44-12.63"/>
        <path id="folha_3" data-name="folha 3" class="cls-5" d="m148.76,216.69s6.97,4.07,11.06,4.41c10.81.89,12.69-5.04,14.55-10.75,1.93-6.61-5.72-14.64-9.08-19.07,0,0,1.61,9.55-4.69,17.68-6.3,8.13-11.83,7.73-11.83,7.73Z"/>
        <path id="folha_2" data-name="folha 2" class="cls-5" d="m165.97,233.07s6.26.08,4.61,8.83c0,0-8.85-3.27-4.61-8.83Z"/>
        <g id="galho">
          <g id="galho-2" data-name="galho">
            <path class="cls-1" d="m141.08,190.14c-1.12,4.85-.79,9.85-1.31,14.79-.52,4.8-1.57,8.81-2.99,12.16-.26.62-.53,1.2-.81,1.77-.32.65-.67,1.27-1.02,1.87-.18.32-.37.63-.57.92,0,0-.01.01-.02.02-.4.63-.81,1.22-1.24,1.78-.83,1.1-1.72,2.08-2.63,2.96-8.95,8.63-20.92,7.41-20.92,7.41l-.14-.58c-.26-.23,14.56.86,23.04-12.39.4-.61.77-1.26,1.13-1.94,2.44-4.54,4.17-10.53,4.55-18.46,1.64-34.17,23.46-34.13,23.99-34.13-12.2,3.39-18.54,12.84-21.08,23.81Z"/>
            <path class="cls-1" d="m148.9,217.44c-4.85-.65-8.44-.01-11.07,1.41-.98.52-1.83,1.14-2.56,1.85-.31.3-.6.61-.88.94,0,0-.01.01-.02.02-.47.56-.88,1.15-1.24,1.78-.83,1.1-1.72,2.08-2.63,2.96.43-1.97,1.15-3.89,2.27-5.57.46-.7.99-1.36,1.6-1.95.7-.68,1.49-1.29,2.41-1.8,2.22-1.25,5.11-1.93,8.88-1.74,3.25.16,6.66,1.15,9.76.76,7.01-.92,12.45-5.61,12.99-16.61.1.64,3.16,21-19.5,17.95Z"/>
            <path class="cls-1" d="m168.68,239.43c-4.44-11.8-14.32-17.17-25.34-18.62-2.69-.35-5.38-.26-8.08-.11-.1,0-.21.01-.31.02-.72.04-1.45.09-2.18.12-.1,0-.19.01-.28.01.4-.61.77-1.26,1.13-1.94.26-.01.51-.03.75-.03.54-.02,1.08-.04,1.59-.03.64-.01,1.25-.01,1.86,0t.01,0c29.45.5,30.85,20.58,30.85,20.58Z"/>
          </g>
          <path class="cls-1" d="m145.73,177.79s1.52.2,4.63-2.47c0,0-3.23,3.61-4.49,4.24s-1.45.55-1.45.55l1.31-2.32Z"/>
          <path class="cls-1" d="m154.69,168.64s-.22-1.51,2.4-4.67c0,0-3.56,3.29-4.17,4.56s-.53,1.46-.53,1.46l2.3-1.34Z"/>
          <path class="cls-1" d="m159.39,215.07s1.62-1.39.58-1.87c0,0,1.71-1.1,1.1,1.13s-1.15,1.55-1.15,1.55l-.53-.8Z"/>
          <path class="cls-1" d="m163.47,214.36s3.79-.64,3.79.44c0,0,3.36-.86-1.1-1.45-4.46-.59-3.69.18-3.69.18l.99.83Z"/>
          <path class="cls-1" d="m166.36,233.51s.92,1.12,1.47.89.6,1.22.6,1.22c0,0-.24-1.23-.65-.92-.2.16-.78-.21-.78-.21,0,0-.76-.66-.71-.91.39-2.01.07-.07.07-.07Z"/>
          <path class="cls-1" d="m167.58,235.78s-.17,1.44-.76,1.54.16,1.35.16,1.35c0,0-.46-1.17.05-1.12.26.02.54-.6.54-.6,0,0,.28-.96.11-1.15-1.42-1.48-.1-.02-.1-.02Z"/>
        </g>
      </g>
      <path id="alca_xicara" class="cls-1" d="m52.25,207.32c.04.15.02.31-.05.47-.13.16-.28.34-.44.53-.06.07-.12.13-.17.2-3.05,3.62-7.59,5.86-12.6,6.34-7.33.7-12.23-2.17-14.73-6.37-1.19-2.12-1.84-4.54-1.87-7.04-.04-2.5.53-5.09,1.66-7.43,2.02-4.15,5.98-7.64,11.57-8.81,1.07-.21,2.16-.34,3.02-.41,2.37,0,4.17.62,5.44,1.62l.55.64c.85.87,1.26,1.94,1.44,3.07.16,1.06.06,2.1-.29,3.14-.53,1.79-1.4,2.73-2.26,3.27-.78.36-1.48.55-2.13.48-.64-.06-1.07-.26-1.42-.64-.52-.57-.78-1.52.02-2.76.15-.36.45-.67.82-1.16,1.05-1.22,2.28-2.72,1.03-4.12-.04-.15-.19-.26-.35-.38-.82-.73-2.05-1.11-3.53-1.02-.51-.02-1.23.09-1.96.2-1.76.47-4.78,3.87-5.55,6.59-.6,2.43-.72,5.29-.49,8.06.37,2.81-.11,4.3,2.3,7.71,1.38,1.86,5.48,3.49,8.02,3.12,3.49-.53,6.46-2.31,8.86-4.87l.06-.07c.23-.24.41-.45.58-.63.19-.13.42-.23.67-.29.86-.23,1.67.02,1.81.56Z"/>
      <path class="cls-9" d="m96.43,170.46h0c0,.39.3.71.69.74,15.49,1.03,27.07,5.16,27.07,10.1,0,5.71-15.51,10.34-34.64,10.34-19.13,0-34.64-4.64-34.64-10.35,0-4.85,11.19-8.92,26.27-10.04.39-.03.69-.35.69-.74h0c0-.43-.36-.77-.79-.75-19.6,1.24-34.36,6.71-34.36,13.28,0,7.48,19.17,13.55,42.83,13.55,23.65,0,42.83-6.06,42.83-13.54,0-6.66-15.18-12.19-35.17-13.34-.42-.02-.79.32-.79.75Z"/>
      <ellipse class="cls-3" cx="89.6" cy="183.19" rx="25.8" ry="6.26"/>
      <ellipse class="cls-3" cx="89.6" cy="183.19" rx="21.4" ry="5.19"/>
      <path class="cls-5" d="m114.28,183.25c0,.61-.51,1.19-1.46,1.73-3.42,1.96-12.47,3.37-23.08,3.37s-20.48-1.53-23.52-3.63c-.67-.46-1.03-.96-1.03-1.46,0-.59.48-1.16,1.37-1.68.45.02.86.3,1.1.73-.17.21-.26.41-.26.63,0,.27.15.54.42.79,1.99,1.86,10.85,3.26,21.48,3.26s19.93-1.46,21.61-3.39c.19-.21.28-.43.28-.65,0-.1-.02-.21-.07-.3.27-.46.81-.8,1.43-.84.33-.03.65.04.93.17.52.41.8.85.8,1.29Z"/>
      <path class="cls-8" d="m132.38,182.98c0,23.65-19.18,42.84-42.84,42.84s-42.84-19.18-42.84-42.84c0,0,9.24,11.36,42.83,11.36s42.84-11.36,42.84-11.36Z"/>
      <g id="fumaca">
        <path class="cls-1" d="m85.37,175.59h-.1c.02-.09.04-.17.06-.26l.41-.66s.07-.08.1-.12c.12-.15.19-.34.29-.5.57-.93,1.14-1.86,1.72-2.79.37-.59.73-1.17.87-1.88.17-.87.42-1.73.42-2.62.1-.22.03-.45.04-.67v-.62c0-.07.04-.16-.04-.21,0-.26,0-.51-.01-.77,0-.03,0-.07,0-.1-.05-.26-.03-.53-.15-.78,0-.07.05-.16-.04-.21-.03-.49-.22-.94-.37-1.4-.25-.76-.63-1.46-1.03-2.14-.62-1.06-1.42-1.99-2.23-2.9-.71-.8-1.55-1.46-2.33-2.17-.03-.07-.09-.09-.15-.1l-.1-.1c-.09-.09-.18-.18-.27-.27-.18-.15-.36-.3-.53-.45-.42-.38-.87-.73-1.3-1.1-.87-.74-1.72-1.5-2.57-2.25-.03-.08-.08-.13-.16-.16-.11-.11-.21-.23-.32-.33-.82-.71-1.53-1.53-2.22-2.36-.59-.71-1.1-1.49-1.55-2.3-.56-1.02-1-2.09-1.24-3.24-.05-.22-.08-.44-.1-.66-.02-.2-.1-.41-.11-.63,0-.07-.05-.08-.11-.08v-2.74s.09,0,.1-.06c.03-.33.07-.65.1-.98.06-.28.11-.56.17-.84.31-1.48.79-2.91,1.46-4.27.26-.53.56-1.03.85-1.55.03,0,.05-.02.04-.06.09-.14.18-.27.27-.41.13-.09.17-.24.26-.36h0s.04-.02.04-.06c.09-.12.18-.23.27-.35.1-.12.19-.25.29-.37.23-.27.46-.55.68-.82.02-.02.03-.04.05-.06.01-.01.02-.02.04-.03.16-.18.32-.35.48-.53.17-.15.34-.31.46-.51.2-.19.39-.39.59-.58.01,0,.02,0,.02-.02.15-.11.31-.23.42-.38h0c.22-.19.41-.42.63-.62.47-.44.9-.91,1.37-1.34.04-.04.07-.07.11-.11.02-.02.03-.03.05-.05h0c.14-.14.28-.27.42-.41.12-.11.23-.22.35-.33.07-.03.12-.08.15-.14h0c.06-.06.12-.12.18-.17h0s.05-.06.07-.09c.14-.14.28-.27.42-.41q.35-.01.25.3c-.03.1-.14.15-.15.27-.05.02-.04.06-.04.09-.01.01-.02.03-.02.04-.06.02-.04.07-.05.11h0s-.05.02-.04.05c-.23.51-.48,1-.74,1.49-.55,1.05-1.06,2.13-1.59,3.2-.01.02-.02.04-.04.06-.13.17-.15.38-.21.57,0,.03,0,.07-.01.1-.03,0-.05.02-.03.06,0,.03,0,.07,0,.1-.15.29-.13.63-.22.93-.06.02-.05.06-.04.1-.02.17-.04.34-.06.51-.03,0-.05.02-.04.05,0,.09,0,.17,0,.26,0,.08-.09.12-.05.21,0,.02,0,.04,0,.05-.02.05-.08.09-.05.15,0,.12,0,.24-.01.36-.03.14.02.28-.04.41,0,.48,0,.96,0,1.44,0,.16-.03.33,0,.49.07.32,0,.65.1.96,0,.06-.03.12.04.16,0,.05,0,.1,0,.15,0,.11-.04.22.05.31.08.16.01.36.1.52-.01.15.03.28.09.42.11.51.25,1.02.48,1.49.08.29.21.56.35.83,0,.1.07.17.12.26.03.07.07.14.1.21.02.03.04.07.06.1-.01.03.01.05.04.06h0c.13.27.27.54.45.77.04.1.07.2.16.26.09.16.14.35.31.47,0,.08.05.11.1.15,0,.11.12.17.16.26.02.02.03.03.05.05.05.07.06.17.16.2.18.33.46.59.68.9.07.06.13.12.2.18.18.28.42.5.65.73.02.1.09.15.17.21l.41.46c.02.05.05.08.1.1h0s.03.04.05.05c.02.02.03.03.05.05.02.05.05.08.1.1h0s.03.04.05.05c.02.02.03.03.05.05.02.05.05.08.1.1h0s.03.03.05.05c.02.02.04.04.05.06.02.05.05.08.1.09h0s.01.05.04.05h.01c0,.06.04.09.09.1.05.04.1.08.15.12.02.04.05.09.11.09.02.02.04.04.06.06,0,.03.01.05.04.05.02.02.03.03.05.05.02.05.05.08.11.1,0,.04.03.05.07.06,0,.03,0,.04.03.04.19.18.38.35.57.53.02.02.04.03.05.05.05.11.17.14.25.21l.51.46.92.82c.05.08.1.16.21.17.14.14.28.27.41.41.34.33.69.65,1.03.98h0s.02.05.05.04c.17.17.35.33.51.5.43.44.86.88,1.29,1.32.02.02.04.04.06.07,0,.02,0,.03.02.03.09.17.23.3.37.42,0,.02,0,.03.01.04.02.08.08.12.14.16.13.18.23.37.4.52.01.13.13.19.21.27,0,.08.05.11.1.14.09.21.23.39.37.57.01.02.03.03.04.05.19.34.38.69.57,1.03h0c.08.28.22.52.36.77,0,.02.01.03.02.05.01.02.02.04.03.06.01.05-.02.11.05.15.18.55.35,1.1.53,1.65.03.16.04.32.11.47,0,.03,0,.07,0,.1.03.15.06.31.09.46.05.31.11.62.16.93-.02.43.06.84.09,1.27.04.56-.02,1.12-.09,1.68,0,.03,0,.07,0,.1,0,.03,0,.07,0,.1-.02.1-.06.2-.06.29-.02.61-.19,1.19-.3,1.79,0,.08-.09.15-.05.24-.02.05-.04.1-.06.16,0,.03,0,.07,0,.1-.12.38-.24.76-.37,1.14.01.08-.09.12-.05.21-.04.06-.06.13-.06.2-.05.02-.04.06-.04.1-.1.23-.22.47-.27.72-.05.02-.04.07-.05.11-.33.65-.65,1.31-.98,1.96-.1.16-.2.31-.29.47-.07.13-.18.25-.22.4-.14.09-.18.25-.26.37-.15.22-.35.41-.46.66-.14.14-.28.29-.36.47h0c-.25.23-.46.5-.66.78-.03.03-.07.07-.1.1-.02.02-.04.03-.05.05-.02.02-.03.03-.05.05-.14.09-.22.24-.33.37-.03.03-.06.06-.09.09-.18.11-.33.26-.46.43-.04.03-.07.06-.11.1-.02.02-.04.04-.06.05h0c-.08,0-.12.04-.16.11-.08.07-.17.14-.25.21-.09.07-.17.13-.26.2-.29.22-.58.45-.87.67-.08,0-.12.04-.15.1-.02,0-.04,0-.05,0-.64.41-1.32.74-2.02,1.02-.1.04-.24.05-.24.22h-.1c-.03-.12-.07-.02-.1,0Z"/>
        <path class="cls-5" d="m84.19,176.16h-.09c.02-.09.03-.17.05-.26l.37-.66s.06-.08.09-.12c.11-.15.17-.34.26-.51.52-.94,1.04-1.87,1.56-2.8.33-.59.66-1.18.79-1.88.16-.87.39-1.73.38-2.63.09-.22.03-.45.04-.67v-.62c0-.07.04-.16-.04-.21,0-.26,0-.52,0-.77,0-.03,0-.07,0-.1-.04-.26-.03-.53-.14-.78,0-.07.05-.16-.04-.21-.03-.49-.2-.95-.34-1.41-.23-.76-.57-1.46-.94-2.15-.57-1.06-1.29-1.99-2.03-2.91-.64-.8-1.41-1.46-2.12-2.18-.03-.07-.08-.09-.14-.1l-.09-.1c-.08-.09-.16-.18-.25-.27-.16-.15-.33-.3-.48-.46-.38-.39-.79-.73-1.19-1.1-.79-.75-1.56-1.51-2.34-2.26-.03-.08-.08-.13-.14-.16-.1-.11-.19-.23-.3-.33-.75-.71-1.39-1.54-2.02-2.37-.54-.71-1.01-1.49-1.41-2.31-.51-1.03-.91-2.1-1.13-3.25-.04-.22-.07-.44-.09-.66-.01-.2-.09-.41-.1-.63,0-.07-.05-.08-.1-.08v-2.75s.08,0,.09-.06c.03-.33.06-.65.09-.98.05-.28.1-.56.15-.84.28-1.49.72-2.92,1.33-4.28.24-.53.51-1.04.77-1.56.02,0,.04-.02.04-.06.08-.14.16-.27.24-.41.11-.09.15-.24.24-.36h0s.04-.02.03-.06c.08-.12.16-.23.25-.35.09-.12.18-.25.26-.37.21-.27.42-.55.62-.82.02-.02.03-.04.05-.06.01-.01.02-.02.03-.04.15-.18.29-.36.44-.53.16-.15.31-.31.42-.51.18-.19.36-.39.53-.58.01,0,.02,0,.02-.02.14-.11.28-.23.38-.39h0c.2-.19.38-.43.57-.63.43-.44.82-.92,1.25-1.34.03-.04.06-.07.1-.11.02-.02.03-.03.05-.05h0c.13-.14.25-.27.38-.41.11-.11.21-.22.32-.33.06-.03.11-.08.14-.14h0c.05-.06.11-.12.16-.17h0s.04-.06.06-.09c.13-.14.25-.27.38-.41q.32-.01.23.3c-.03.1-.13.15-.13.27-.05.02-.03.06-.03.09-.01.01-.02.03-.02.04-.05.02-.04.07-.05.11h0s-.04.02-.03.05c-.2.51-.44,1-.67,1.49-.5,1.06-.97,2.14-1.45,3.21-.01.02-.02.04-.03.06-.11.17-.13.38-.19.57,0,.03,0,.07-.01.1-.03,0-.05.02-.03.06,0,.03,0,.07,0,.1-.14.29-.12.63-.2.94-.05.02-.05.06-.04.1-.02.17-.04.34-.06.51-.03,0-.05.02-.04.05,0,.09,0,.17,0,.26,0,.08-.08.12-.05.21,0,.02,0,.04,0,.05-.02.05-.07.09-.05.15,0,.12,0,.24-.01.36-.03.14.02.28-.03.42,0,.48,0,.97,0,1.45,0,.16-.03.33,0,.49.06.32,0,.65.09.97,0,.06-.03.12.04.16,0,.05,0,.1,0,.15,0,.11-.03.22.05.31.07.16,0,.36.09.52,0,.15.03.28.08.42.1.51.23,1.02.44,1.5.07.29.19.56.31.83,0,.1.07.17.1.26.03.07.06.14.09.21.02.03.03.07.05.1,0,.03.01.05.03.06h0c.12.27.24.54.41.78.04.1.06.2.15.26.08.16.13.35.28.47,0,.08.04.11.09.15,0,.11.11.17.14.26.01.02.03.03.04.05.04.07.06.17.15.2.17.33.42.6.62.91.06.06.12.12.18.19.16.28.38.5.59.73.01.1.08.16.15.21l.38.46c.02.05.05.08.09.1h0s.03.04.05.05c.02.02.03.03.05.05.02.05.05.08.09.1h0s.03.04.05.05c.02.02.03.03.05.05.02.05.05.08.1.1h0s.03.03.04.05c.02.02.03.04.05.06.02.05.04.08.09.09h0s0,.06.04.05h0c0,.06.04.09.08.1.05.04.09.08.14.12.02.04.04.09.1.09.02.02.04.04.06.06,0,.03.01.05.04.05.02.02.03.03.05.05.02.05.05.08.1.1,0,.04.03.05.06.06,0,.03,0,.04.03.04.17.18.34.36.51.53.02.02.03.03.05.05.05.11.15.14.23.21l.47.47.84.82c.05.08.1.16.19.17.13.14.25.27.38.41.31.33.62.65.94.98h0s.02.05.05.04c.16.17.32.33.47.5.39.44.78.88,1.17,1.32.02.02.04.04.05.07,0,.02,0,.03.02.03.08.18.21.3.34.43,0,.02,0,.03.01.04.02.08.07.12.13.16.12.18.21.38.37.52.01.13.12.19.19.27,0,.08.04.11.09.14.08.21.21.39.33.57.01.02.03.03.04.05.17.35.35.69.52,1.04h0c.07.28.2.52.32.78,0,.02.01.03.02.05.01.02.02.04.03.06.01.05-.01.11.04.15.16.55.32,1.1.48,1.66.02.16.03.32.1.47,0,.03,0,.07,0,.1.03.15.06.31.08.46.05.31.1.63.15.94-.02.43.05.85.08,1.27.04.56-.02,1.12-.08,1.68,0,.03,0,.07,0,.1,0,.03,0,.07,0,.1-.02.1-.05.2-.06.29-.02.61-.17,1.2-.27,1.79,0,.09-.08.15-.04.24-.02.05-.03.1-.05.16,0,.03,0,.07,0,.1-.11.38-.22.76-.33,1.14.01.08-.08.12-.05.21-.04.06-.06.13-.06.2-.04.02-.04.06-.03.1-.1.24-.2.47-.25.72-.05.02-.04.07-.04.11-.3.66-.6,1.31-.89,1.97-.09.16-.18.31-.27.47-.07.14-.16.25-.2.4-.12.09-.16.25-.23.37-.14.22-.32.41-.42.67-.13.14-.25.29-.33.47h0c-.23.23-.42.5-.6.78-.03.03-.06.07-.09.1-.02.02-.03.03-.05.05-.02.02-.03.03-.05.05-.13.09-.2.24-.3.37-.03.03-.05.06-.08.09-.17.11-.3.26-.41.43-.03.03-.06.06-.1.1-.02.02-.04.04-.05.05h0c-.07,0-.11.04-.14.11-.08.07-.15.14-.23.21-.08.07-.16.13-.23.2-.27.22-.53.45-.8.67-.07,0-.11.04-.14.1-.02,0-.03,0-.05,0-.58.41-1.2.74-1.84,1.03-.09.04-.22.05-.22.22h-.09c-.03-.12-.06-.02-.09,0Z"/>
      </g>
      <path class="cls-8" d="m131.42,191.93c-.3,1.49-.76,3.11-1.22,4.54-9.2,16.67-70.52,16.94-81.06.69-.52-1.55-1.03-3.21-1.37-4.83,1.6,1.64,11.37,10.72,41.37,10.72,32.46,0,42.01-10.78,42.29-11.11Z"/>
      <path class="cls-1" d="m128.3,227.29c0,7.43-17.65,13.45-39.42,13.45s-39.41-6.02-39.41-13.45c0-3.45,3.82-6.61,10.09-8.98.08,7.39,13.18,13.38,29.32,13.38s29.25-5.98,29.33-13.38c6.27,2.38,10.09,5.53,10.09,8.98Z"/>
      <path class="cls-8" d="m125.31,225.59c0,1.41-.75,2.75-2.15,4-5.02,4.54-18.31,7.78-33.9,7.78s-30.09-3.55-34.54-8.4c-.98-1.07-1.51-2.22-1.51-3.39,0-1.37.7-2.67,2.01-3.88.67.04,1.26.69,1.61,1.68-.25.48-.38.95-.38,1.45,0,.63.21,1.25.62,1.82,2.92,4.3,15.94,7.53,31.55,7.53s29.27-3.39,31.75-7.84c.28-.5.42-.99.42-1.51,0-.24-.03-.48-.1-.69.4-1.07,1.18-1.84,2.1-1.94.49-.06.96.1,1.36.4.77.95,1.17,1.96,1.17,2.99Z"/>
    </g>
  </g>
</svg>