<?xml version="1.0" encoding="UTF-8"?>
<svg xmlns="http://www.w3.org/2000/svg" viewBox="0 0 2250 2250">
  <defs>
    <style>
      .cls-1 {
        fill: #fff;
      }

      .cls-2, .cls-3 {
        fill: #442815;
      }

      .cls-4 {
        fill: #654128;
      }

      .cls-5 {
        stroke: #d49e38;
        stroke-miterlimit: 10;
        stroke-width: 2px;
      }

      .cls-5, .cls-6 {
        fill: #d2a554;
      }

      .cls-7 {
        fill: #4b2c18;
      }

      .cls-8 {
        fill: #90613c;
      }

      .cls-9 {
        letter-spacing: -.02em;
      }

      .cls-3 {
        font-family: PlayfairDisplay-Regular, 'Playfair Display';
        font-size: 215.69px;
        font-variation-settings: 'wght' 400;
      }

      .cls-10 {
        letter-spacing: -.02em;
      }

      .cls-11 {
        letter-spacing: -.01em;
      }

      .cls-12 {
        letter-spacing: -.02em;
      }
    </style>
  </defs>
  <g id="Camada_1" data-name="Camada 1">
    <path class="cls-1" d="m384.65,861.08c1.92-1.68,2.35-6.38,2.35-10.75-.86.05-1.73-.1-2.5-.43-.86-.38-1.63-1.01-2.16-1.87-.86-1.39-1.1-3.26-.48-5.71.19-.82.58-1.3.91-1.49.29-.1.53-.14.77-.05.24.05.43.24.53.48.19.34.19.91-.1,1.63-.14.38-.34.67-.53.96-.43.58-.86,1.2-.48,2.5.1.38.24.72.43,1.01.38.62.96,1.1,1.63,1.39.58.29,1.25.38,1.97.34,0-.96,0-1.92-.05-2.93-.14-7.78-.29-15.46,5.62-15.46.62,0,1.2.14,1.63.53.67.48,1.1,1.2,1.39,2.16.24.86.38,1.92.38,3.02,0,3.55-1.2,8.02-3.12,10.56-.48.72-1.1,1.3-1.73,1.78.05,4.9-.58,10.32-3.79,12.72,1.34.34,2.83.82,4.37,1.3,4.13,1.3,8.4,2.69,9.22.77.29-1.3,1.54-1.1,1.2.24-.19.96-.67,2.02-1.49,2.83-.77.77-1.92,1.25-3.46,1.1-1.44-.14-3.26-1.15-5.23-2.3-2.02-1.15-4.27-2.45-6.43-2.88-.67.29-1.49.48-2.35.62-.67.14-1.2.14-1.44.05-.38-.1-.58-.34-.62-.67-.05-.24.1-.53.34-.72.29-.29.91-.53,1.82-.67.29,0,.62-.05,1.01-.05h.38Zm7.87-29.14c-2.26,1.15-1.97,5.9-1.63,11.19.1,1.3.19,2.64.24,3.98.24-.24.48-.53.72-.86,1.78-2.35,2.88-6.53,2.88-9.84,0-1.01-.1-1.92-.34-2.69-.19-.67-.53-1.2-.91-1.49-.24-.19-.58-.29-.91-.29h-.05Z"/>
  </g>
  <g id="Camada_8" data-name="Camada 8">
    <g id="logo_impressao_pesada">
      <text class="cls-3" transform="translate(1093.09 1222.78)"><tspan x="0" y="0">Laur</tspan><tspan class="cls-11" x="455.53" y="0">a</tspan><tspan class="cls-9" x="560.36" y="0"> </tspan><tspan class="cls-10" x="610.61" y="0">’</tspan><tspan x="659.14" y="0" xml:space="preserve"> s </tspan><tspan x="236.83" y="193.22">ca</tspan><tspan class="cls-12" x="449.06" y="193.22">f</tspan><tspan x="517" y="193.22">é</tspan></text>
      <line class="cls-5" x1="1079.18" y1="1351.17" x2="1311.95" y2="1351.17"/>
      <line class="cls-5" x1="1758.28" y1="1351.17" x2="1991.05" y2="1351.17"/>
      <g id="Logo">
        <g id="pe_de_cafe">
          <path id="folha1" class="cls-6" d="m991.03,987.95s-108.07,1.52-108.48,119c0,0,47.1,9.62,111.7-56.26,64.6-65.88,44.29-66.25,44.29-66.25"/>
          <path id="folha_3" data-name="folha 3" class="cls-6" d="m921.82,1278.1s36.54,21.35,58.01,23.11c56.68,4.65,66.54-26.45,76.3-56.36,10.13-34.69-30.02-76.79-47.64-100.03,0,0,8.45,50.1-24.61,92.76-33.06,42.66-62.06,40.53-62.06,40.53Z"/>
          <path id="folha_2" data-name="folha 2" class="cls-6" d="m1012.07,1364.02s32.86.43,24.18,46.3c0,0-46.41-17.13-24.18-46.3Z"/>
          <g id="galho">
            <g id="galho-2" data-name="galho">
              <path class="cls-2" d="m881.5,1138.84c-5.88,25.41-4.12,51.66-6.89,77.56-2.72,25.19-8.22,46.23-15.66,63.77-1.36,3.23-2.79,6.28-4.25,9.28-1.69,3.43-3.49,6.67-5.35,9.79-.96,1.69-1.92,3.29-2.97,4.84-.02.04-.08.07-.09.11-2.08,3.32-4.26,6.4-6.48,9.36-4.38,5.76-9,10.93-13.81,15.54-46.93,45.27-109.71,38.85-109.71,38.85l-.72-3.03c-1.39-1.22,76.37,4.49,120.86-64.97,2.09-3.22,4.04-6.59,5.95-10.17,12.81-23.81,21.87-55.25,23.89-96.82,8.59-179.24,123.05-179.03,125.81-178.99-63.97,17.8-97.25,67.37-110.57,124.9Z"/>
              <path class="cls-2" d="m922.52,1282.04c-25.43-3.4-44.25-.07-58.08,7.41-5.14,2.71-9.6,6-13.45,9.69-1.63,1.56-3.16,3.21-4.61,4.93-.02.04-.08.07-.09.11-2.45,2.92-4.6,6.06-6.48,9.36-4.38,5.76-9,10.93-13.81,15.54,2.25-10.32,6.03-20.43,11.92-29.21,2.42-3.66,5.2-7.12,8.42-10.25,3.65-3.58,7.82-6.75,12.62-9.46,11.64-6.55,26.79-10.12,46.55-9.1,17.05.85,34.95,6.05,51.19,3.97,36.76-4.84,65.31-29.43,68.13-87.15.54,3.35,16.57,110.17-102.3,94.15Z"/>
              <path class="cls-2" d="m1026.3,1397.37c-23.27-61.89-75.12-90.08-132.92-97.67-14.1-1.84-28.2-1.35-42.39-.55-.54.02-1.1.07-1.65.09-3.79.21-7.6.45-11.44.64-.5.03-1,.07-1.49.06,2.09-3.22,4.04-6.59,5.95-10.17,1.34-.07,2.69-.13,3.96-.14,2.83-.12,5.65-.21,8.37-.18,3.34-.06,6.56-.06,9.75.01t.06-.02c154.45,2.63,161.8,107.94,161.8,107.94Z"/>
            </g>
            <path class="cls-2" d="m905.93,1074.06s7.96,1.04,24.28-12.94c0,0-16.96,18.92-23.56,22.22-6.6,3.3-7.59,2.88-7.59,2.88l6.87-12.17Z"/>
            <path class="cls-2" d="m952.9,1026.06s-1.16-7.95,12.57-24.48c0,0-18.66,17.24-21.86,23.9-3.2,6.65-2.77,7.63-2.77,7.63l12.06-7.05Z"/>
            <path class="cls-2" d="m977.56,1269.59s8.5-7.28,3.04-9.8c0,0,8.96-5.78,5.77,5.91-3.19,11.69-6.02,8.11-6.02,8.11l-2.79-4.22Z"/>
            <path class="cls-2" d="m998.95,1265.91s19.9-3.38,19.9,2.31c0,0,17.61-4.49-5.77-7.61-23.38-3.12-19.34.95-19.34.95l5.21,4.34Z"/>
            <path class="cls-2" d="m1014.13,1366.36s4.84,5.89,7.71,4.65c2.87-1.24,3.13,6.41,3.13,6.41,0,0-1.28-6.48-3.4-4.83-1.06.82-4.1-1.1-4.1-1.1,0,0-3.99-3.44-3.73-4.76,2.07-10.56.39-.37.39-.37Z"/>
            <path class="cls-2" d="m1020.53,1378.23s-.88,7.58-3.97,8.08.84,7.08.84,7.08c0,0-2.44-6.14.24-5.9,1.34.12,2.85-3.14,2.85-3.14,0,0,1.49-5.05.55-6.02-7.46-7.76-.52-.1-.52-.1Z"/>
          </g>
        </g>
        <path id="alca_xicara" class="cls-2" d="m415.59,1228.95c.21.79.11,1.63-.27,2.46-.7.86-1.48,1.76-2.32,2.8-.33.35-.61.69-.89,1.02-16.01,19.01-39.8,30.76-66.07,33.23-38.46,3.65-64.17-11.37-77.25-33.42-6.26-11.1-9.63-23.79-9.83-36.94-.23-13.11,2.76-26.68,8.69-38.98,10.62-21.77,31.37-40.06,60.66-46.2,5.62-1.09,11.33-1.79,15.84-2.17,12.46-.02,21.88,3.24,28.53,8.5l2.89,3.34c4.47,4.58,6.62,10.19,7.55,16.12.83,5.55.33,11.02-1.52,16.47-2.76,9.39-7.35,14.32-11.84,17.17-4.1,1.91-7.79,2.89-11.18,2.54-3.34-.33-5.62-1.39-7.45-3.35-2.74-2.97-4.08-7.98.11-14.46.8-1.88,2.37-3.52,4.28-6.09,5.51-6.39,11.96-14.29,5.41-21.61-.2-.76-1.02-1.39-1.83-1.99-4.31-3.81-10.75-5.8-18.49-5.37-2.69-.13-6.48.47-10.27,1.07-9.21,2.45-25.05,20.27-29.11,34.56-3.16,12.76-3.77,27.76-2.56,42.28,1.96,14.72-.56,22.57,12.07,40.45,7.26,9.75,28.76,18.29,42.06,16.39,18.32-2.81,33.88-12.11,46.45-25.54l.33-.35c1.19-1.28,2.16-2.35,3.02-3.31.98-.67,2.19-1.2,3.5-1.54,4.52-1.2,8.77.11,9.52,2.92Z"/>
        <path class="cls-8" d="m647.32,1035.64h0c0,2.05,1.6,3.74,3.63,3.87,81.27,5.41,142.01,27.09,142.01,52.99,0,29.93-81.35,54.23-181.7,54.21-100.35-.01-181.69-24.34-181.69-54.26,0-25.45,58.68-46.8,137.81-52.66,2.02-.15,3.6-1.83,3.6-3.87h0c0-2.25-1.91-4.05-4.14-3.91-102.8,6.48-180.23,35.19-180.24,69.65,0,39.23,100.57,71.06,224.66,71.07,124.05.02,224.67-31.78,224.68-71.01,0-34.95-79.6-63.96-184.48-69.99-2.22-.13-4.12,1.67-4.12,3.91Z"/>
        <ellipse class="cls-4" cx="611.49" cy="1102.38" rx="135.34" ry="32.83"/>
        <ellipse class="cls-4" cx="611.49" cy="1102.38" rx="112.23" ry="27.23"/>
        <path class="cls-6" d="m740.96,1102.69c0,3.19-2.7,6.25-7.68,9.08-17.93,10.29-65.38,17.66-121.06,17.66s-107.44-8.04-123.35-19.05c-3.5-2.43-5.39-5.03-5.39-7.68,0-3.1,2.52-6.07,7.19-8.81,2.38.09,4.49,1.57,5.75,3.82-.9,1.08-1.35,2.16-1.35,3.28,0,1.44.76,2.83,2.2,4.13,10.43,9.75,56.93,17.08,112.65,17.08s104.52-7.68,113.37-17.79c.99-1.12,1.48-2.25,1.48-3.42,0-.54-.09-1.08-.36-1.57,1.44-2.43,4.22-4.18,7.5-4.4,1.75-.13,3.41.22,4.85.9,2.74,2.16,4.18,4.45,4.18,6.79Z"/>
        <path class="cls-7" d="m835.91,1101.27c0,124.07-100.61,224.68-224.68,224.68s-224.68-100.61-224.68-224.68c0,0,48.48,59.57,224.67,59.57s224.69-59.57,224.69-59.57Z"/>
        <g id="fumaca">
          <path class="cls-2" d="m589.32,1062.53h-.54c.1-.45.2-.89.3-1.34l2.15-3.46c.17-.2.35-.41.52-.61.64-.8.97-1.78,1.5-2.64,2.97-4.9,5.99-9.77,9-14.64,1.92-3.09,3.81-6.15,4.55-9.84.92-4.56,2.22-9.05,2.2-13.76.52-1.15.18-2.35.22-3.53v-3.25c-.01-.38.23-.82-.22-1.11-.02-1.35-.04-2.69-.06-4.04,0-.18,0-.35-.01-.53-.26-1.36-.17-2.78-.8-4.07.03-.39.26-.82-.21-1.11-.18-2.57-1.14-4.95-1.94-7.35-1.33-3.97-3.3-7.65-5.42-11.25-3.27-5.56-7.43-10.42-11.68-15.22-3.71-4.2-8.12-7.64-12.23-11.41-.16-.35-.46-.48-.81-.55-.17-.17-.35-.35-.52-.52-.47-.48-.94-.96-1.42-1.44-.92-.79-1.87-1.56-2.77-2.38-2.2-2.02-4.58-3.81-6.83-5.75-4.54-3.9-9.01-7.88-13.51-11.82-.16-.4-.44-.67-.82-.85-.57-.57-1.09-1.19-1.7-1.71-4.32-3.71-8.02-8.03-11.63-12.38-3.1-3.73-5.79-7.8-8.15-12.08-2.96-5.37-5.23-10.98-6.52-16.98-.24-1.14-.41-2.29-.5-3.46-.08-1.04-.55-2.16-.6-3.3-.02-.39-.28-.39-.56-.4v-14.35c.21-.04.49,0,.52-.29.18-1.71.34-3.41.51-5.12.29-1.46.57-2.93.87-4.39,1.61-7.79,4.13-15.27,7.68-22.38,1.38-2.76,2.95-5.43,4.44-8.14.14-.05.26-.11.21-.29.47-.72.94-1.43,1.4-2.15.66-.48.89-1.28,1.38-1.89v.02c.14-.05.22-.15.18-.32.47-.61.95-1.23,1.42-1.84.51-.65,1.01-1.31,1.52-1.96,1.2-1.43,2.39-2.86,3.59-4.29.09-.1.18-.21.26-.31.06-.06.13-.12.19-.18.84-.93,1.68-1.85,2.52-2.78.9-.81,1.79-1.63,2.41-2.69,1.02-1.02,2.05-2.03,3.07-3.05.08,0,.12-.03.11-.11.81-.58,1.6-1.19,2.19-2.01h0c1.18-1.01,2.17-2.23,3.28-3.27,2.45-2.29,4.71-4.78,7.21-7.02.18-.19.37-.37.55-.56.09-.08.17-.17.26-.25h0c.73-.72,1.47-1.43,2.2-2.15.62-.57,1.23-1.15,1.85-1.72.37-.14.61-.4.8-.74h.01c.31-.31.63-.61.94-.91l.02-.02c.12-.14.25-.29.37-.43.73-.71,1.46-1.42,2.18-2.13q1.85-.06,1.3,1.58c-.17.51-.75.8-.76,1.4-.27.08-.2.3-.2.49-.08.06-.11.14-.1.23-.29.1-.24.37-.28.59l.02-.02c-.14.04-.24.11-.19.29-1.18,2.66-2.52,5.23-3.87,7.8-2.9,5.53-5.58,11.18-8.34,16.79-.06.11-.13.21-.19.32-.66.89-.77,1.98-1.09,2.99-.03.18-.05.35-.08.53-.15.04-.26.11-.17.29,0,.17,0,.34,0,.52-.78,1.54-.69,3.28-1.17,4.89-.31.08-.27.31-.22.54-.11.9-.21,1.79-.32,2.69-.15.03-.26.1-.22.28,0,.45,0,.91,0,1.36.03.39-.46.65-.28,1.08,0,.09.01.18.02.28-.1.27-.43.45-.28.81-.03.63-.05,1.26-.08,1.89-.16.72.12,1.47-.2,2.18,0,2.52.02,5.05.02,7.57,0,.85-.17,1.74,0,2.55.36,1.67,0,3.4.51,5.05,0,.29-.15.62.21.81.02.27.03.54.05.81,0,.56-.19,1.15.27,1.62.41.86.05,1.86.53,2.71-.05.77.17,1.48.47,2.18.6,2.69,1.31,5.34,2.52,7.84.39,1.54,1.09,2.94,1.81,4.34.03.53.38.91.6,1.34.18.36.36.72.54,1.08.1.18.19.36.29.55-.05.18.06.24.2.29h-.01c.67,1.42,1.4,2.81,2.38,4.06.22.5.34,1.06.85,1.38.48.85.75,1.85,1.62,2.44-.05.41.24.59.53.77.05.59.61.88.83,1.37.08.09.17.17.25.26.24.38.34.89.84,1.07.97,1.74,2.41,3.12,3.54,4.73.34.32.69.65,1.03.97.93,1.47,2.2,2.62,3.42,3.82.08.53.48.81.88,1.08.72.8,1.44,1.61,2.17,2.41.1.26.28.44.54.54h0c.09.1.18.19.26.28.09.09.17.18.26.27.1.26.28.44.55.53,0,0,0,0,0,0,.09.09.18.18.26.27.09.09.18.18.26.27.1.26.28.44.55.52,0,0,.01.01.01.01.09.08.17.17.26.25.09.1.19.19.28.29.09.26.26.44.54.5l.04.04c-.01.17.05.25.23.21l.06.05c.03.28.21.42.47.49.27.22.53.43.8.65.13.22.24.46.55.47.11.11.21.21.32.32-.04.18.07.24.21.28.09.09.18.18.27.26.11.25.28.43.55.5.03.2.16.28.35.3-.04.15,0,.23.17.2.99.93,1.98,1.86,2.97,2.79.09.09.19.17.28.26.26.59.88.76,1.33,1.12l2.7,2.44c1.61,1.43,3.21,2.87,4.82,4.3.28.4.55.82,1.1.88.72.71,1.45,1.42,2.17,2.13,1.8,1.71,3.59,3.42,5.39,5.13h0c.04.14.1.25.28.21.9.87,1.82,1.72,2.7,2.62,2.26,2.29,4.5,4.6,6.74,6.9.1.11.21.23.31.34-.03.11.02.17.13.18.46.91,1.2,1.58,1.97,2.22-.01.09,0,.16.06.23.1.41.4.64.76.82.67.94,1.22,1.96,2.12,2.71.07.7.67.98,1.09,1.41-.03.39.25.57.52.75.47,1.11,1.22,2.03,1.92,2.99.07.09.15.18.22.27,1,1.8,2.01,3.61,3.01,5.41h0c.41,1.44,1.17,2.74,1.87,4.06.04.09.07.17.11.26.06.11.12.22.18.33.06.26-.08.59.26.76.93,2.88,1.85,5.77,2.78,8.65.14.83.19,1.68.57,2.45,0,.17,0,.34,0,.52.16.81.33,1.62.47,2.43.29,1.63.56,3.27.84,4.9-.1,2.23.29,4.43.47,6.64.24,2.94-.13,5.87-.46,8.79,0,.18,0,.36,0,.54,0,.18,0,.36.01.54-.11.51-.3,1.02-.32,1.54-.11,3.2-.97,6.26-1.55,9.38.03.45-.45.79-.25,1.27-.1.27-.19.55-.29.82,0,.17,0,.34,0,.52-.64,1.99-1.28,3.99-1.91,5.98.07.4-.47.64-.27,1.08-.23.32-.33.68-.33,1.06-.25.11-.23.33-.2.55-.55,1.23-1.16,2.44-1.42,3.78-.28.1-.23.35-.25.56-1.72,3.43-3.43,6.85-5.15,10.28-.51.82-1.02,1.63-1.53,2.45-.37.71-.95,1.3-1.17,2.1-.71.47-.92,1.29-1.35,1.95-.81,1.16-1.83,2.17-2.41,3.48-.73.75-1.46,1.5-1.91,2.47l.02-.02c-1.34,1.22-2.42,2.65-3.49,4.09-.18.18-.36.36-.54.54-.09.08-.18.16-.28.24-.09.09-.18.18-.27.27-.73.49-1.16,1.27-1.71,1.92-.15.16-.31.32-.46.48-.95.58-1.73,1.34-2.39,2.24-.19.17-.37.34-.56.51-.1.09-.21.19-.31.28,0,0,.02-.03.02-.03-.41.01-.65.26-.82.59-.43.37-.87.74-1.3,1.12-.45.34-.9.69-1.35,1.03-1.53,1.17-3.06,2.34-4.59,3.51-.41-.03-.63.22-.81.54-.09,0-.2-.01-.26.03-3.36,2.14-6.92,3.87-10.6,5.37-.53.22-1.27.27-1.25,1.13h-.54c-.18-.61-.36-.1-.54,0Z"/>
          <path class="cls-6" d="m583.13,1065.54h-.49c.09-.45.18-.9.28-1.35.65-1.16,1.31-2.32,1.96-3.47.16-.2.32-.41.48-.61.58-.8.89-1.79,1.36-2.65,2.71-4.92,5.45-9.81,8.2-14.7,1.75-3.11,3.47-6.18,4.14-9.88.83-4.58,2.02-9.09,2-13.82.47-1.15.16-2.36.2-3.54v-3.26c0-.38.21-.82-.2-1.11-.02-1.35-.03-2.7-.05-4.06,0-.18,0-.35,0-.53-.24-1.36-.16-2.8-.73-4.09.02-.39.24-.82-.19-1.11-.17-2.58-1.04-4.97-1.77-7.38-1.21-3.98-3-7.68-4.93-11.29-2.97-5.58-6.77-10.46-10.63-15.28-3.38-4.22-7.39-7.67-11.13-11.45-.15-.35-.42-.48-.73-.55-.16-.17-.32-.35-.47-.52-.43-.48-.86-.96-1.29-1.44-.84-.79-1.7-1.56-2.52-2.39-2-2.02-4.16-3.83-6.22-5.77-4.13-3.91-8.2-7.91-12.29-11.87-.14-.4-.4-.67-.75-.86-.51-.58-1-1.2-1.55-1.72-3.93-3.73-7.3-8.06-10.59-12.43-2.82-3.75-5.27-7.83-7.42-12.13-2.69-5.39-4.76-11.02-5.93-17.05-.22-1.14-.37-2.29-.46-3.47-.08-1.04-.5-2.17-.55-3.31-.02-.39-.25-.4-.51-.4v-14.41c.19-.04.44,0,.47-.29.16-1.71.31-3.43.46-5.14.26-1.47.52-2.94.8-4.41,1.46-7.82,3.76-15.33,6.99-22.46,1.26-2.77,2.69-5.45,4.04-8.17.13-.05.24-.11.2-.29.43-.72.85-1.44,1.28-2.15.6-.48.81-1.28,1.26-1.89v.02c.12-.05.2-.15.16-.32.43-.62.86-1.23,1.29-1.85.46-.66.92-1.31,1.38-1.97,1.09-1.44,2.18-2.87,3.27-4.31.08-.1.16-.21.24-.31.06-.06.12-.12.17-.18.77-.93,1.53-1.86,2.3-2.79.82-.81,1.63-1.63,2.19-2.7.93-1.02,1.86-2.04,2.8-3.06.07,0,.11-.03.1-.11.74-.59,1.46-1.19,1.99-2.02h0c1.07-1.02,1.97-2.23,2.99-3.29,2.23-2.3,4.28-4.8,6.56-7.05.17-.19.33-.38.5-.56.08-.08.16-.17.24-.25h0c.67-.72,1.34-1.44,2-2.15.56-.58,1.12-1.15,1.68-1.73.33-.14.56-.4.72-.74h.01c.29-.31.57-.61.86-.91,0,0,.02-.02.02-.02.11-.14.22-.29.33-.43.66-.71,1.32-1.43,1.99-2.14q1.68-.06,1.18,1.59c-.15.52-.68.8-.69,1.41-.24.08-.18.3-.18.49-.07.06-.1.14-.09.23-.26.1-.21.37-.25.59v-.02c-.12.04-.21.11-.16.29-1.07,2.67-2.3,5.25-3.52,7.83-2.64,5.55-5.07,11.23-7.59,16.85-.06.11-.11.21-.17.32-.6.89-.7,1.98-.99,3-.02.18-.05.36-.07.53-.14.04-.24.11-.15.29,0,.17,0,.35,0,.52-.71,1.54-.62,3.3-1.06,4.91-.28.08-.24.31-.2.54-.1.9-.19,1.8-.29,2.7-.14.03-.24.1-.2.28,0,.45,0,.91,0,1.36.03.4-.42.65-.25,1.09,0,.09.01.19.02.28-.09.27-.39.45-.25.81-.02.63-.05,1.26-.07,1.89-.14.72.11,1.48-.18,2.18,0,2.53.02,5.07.02,7.6,0,.86-.15,1.74,0,2.56.33,1.68,0,3.42.47,5.07,0,.29-.13.62.19.82.02.27.03.54.05.81,0,.56-.17,1.15.25,1.63.37.86.05,1.87.48,2.72-.05.77.16,1.49.42,2.19.55,2.7,1.19,5.37,2.29,7.87.36,1.54.99,2.95,1.65,4.36.02.53.35.91.55,1.35.16.36.33.72.49,1.09.09.18.18.37.26.55-.05.18.05.25.18.29h0c.61,1.42,1.27,2.83,2.17,4.08.2.5.31,1.06.78,1.38.44.86.68,1.86,1.47,2.45-.05.42.22.59.48.78.05.6.56.88.76,1.37.08.09.15.17.23.26.22.38.31.89.76,1.07.88,1.75,2.19,3.13,3.23,4.75.31.32.63.65.94.97.85,1.47,2.01,2.63,3.12,3.83.08.53.43.81.8,1.09.66.81,1.31,1.61,1.97,2.42.09.27.25.44.49.54h0c.08.1.16.19.24.28.08.09.16.18.24.27.09.26.26.44.5.54h0c.08.1.16.19.24.28.08.09.16.18.24.27.09.26.25.44.5.52,0,0,.01.01.01.01.08.08.16.17.23.25.09.1.17.19.26.29.08.27.24.44.49.5l.03.04c-.01.17.05.25.21.21l.05.05c.03.28.19.43.43.49.24.22.48.43.72.65.11.23.22.46.5.47.1.11.19.21.29.32-.04.18.06.25.19.28.08.09.16.18.25.26.1.26.25.44.5.5.03.2.15.28.32.3-.04.16,0,.23.16.2.9.93,1.8,1.87,2.7,2.8.08.09.17.17.25.26.24.6.8.76,1.21,1.13.82.82,1.64,1.63,2.45,2.45,1.46,1.44,2.92,2.88,4.38,4.32.26.4.5.82,1,.88.66.71,1.32,1.43,1.97,2.14,1.64,1.72,3.27,3.43,4.91,5.15h0c.03.14.1.25.26.21.82.87,1.66,1.73,2.46,2.63,2.05,2.3,4.09,4.62,6.14,6.93.09.11.19.23.28.34-.02.11.02.17.12.18.42.92,1.09,1.59,1.79,2.23-.01.09,0,.16.06.23.1.41.37.65.69.83.61.94,1.11,1.97,1.93,2.72.06.7.61.99.99,1.42-.03.4.23.58.48.76.43,1.11,1.11,2.04,1.75,3,.07.09.13.18.2.27.91,1.81,1.83,3.62,2.74,5.43h0c.38,1.45,1.07,2.75,1.7,4.08.03.09.07.17.1.26.06.11.11.22.17.33.05.26-.07.6.23.76.84,2.9,1.68,5.79,2.53,8.69.13.83.17,1.68.52,2.46,0,.17,0,.35,0,.52.14.81.3,1.62.43,2.44.26,1.64.51,3.28.77,4.92-.09,2.24.26,4.44.42,6.67.21,2.95-.12,5.9-.42,8.83,0,.18,0,.36,0,.54,0,.18,0,.36.01.54-.1.52-.27,1.03-.29,1.55-.1,3.21-.89,6.29-1.42,9.41.03.45-.41.79-.23,1.27-.09.27-.18.55-.26.82,0,.17,0,.35,0,.52-.58,2-1.16,4-1.74,6,.06.4-.43.65-.25,1.08-.21.32-.3.68-.3,1.07-.23.11-.21.33-.18.55-.5,1.24-1.05,2.45-1.29,3.79-.25.1-.21.35-.23.57-1.56,3.44-3.13,6.88-4.69,10.32-.47.82-.93,1.64-1.4,2.46-.34.71-.86,1.31-1.06,2.1-.65.47-.84,1.29-1.23,1.96-.73,1.16-1.67,2.18-2.19,3.5-.66.76-1.33,1.51-1.74,2.48v-.02c-1.2,1.22-2.19,2.66-3.16,4.11-.16.18-.33.36-.49.54-.08.08-.17.16-.25.24-.08.09-.16.18-.24.27-.67.49-1.05,1.27-1.56,1.93-.14.16-.28.32-.42.48-.87.58-1.58,1.35-2.17,2.25-.17.17-.34.34-.51.51-.1.09-.19.19-.29.28l.02-.03c-.37.01-.59.26-.75.59-.39.37-.79.75-1.18,1.12-.41.35-.82.69-1.23,1.04-1.39,1.17-2.78,2.35-4.17,3.52-.37-.03-.57.23-.74.54-.08,0-.18-.01-.24.03-3.06,2.15-6.3,3.88-9.65,5.39-.48.22-1.16.27-1.14,1.14h-.49c-.16-.61-.33-.1-.49,0Z"/>
        </g>
        <path class="cls-7" d="m830.85,1148.23c-1.57,7.82-3.98,16.32-6.41,23.82-48.26,87.44-369.9,88.85-425.17,3.6-2.74-8.13-5.41-16.82-7.21-25.36,8.4,8.58,59.61,56.2,216.98,56.2,170.26,0,220.33-56.52,221.81-58.27Z"/>
        <path class="cls-2" d="m814.5,1333.69c0,38.96-92.56,70.55-206.76,70.55s-206.73-31.59-206.73-70.55c0-18.11,20.01-34.65,52.91-47.12.45,38.78,69.16,70.17,153.81,70.17s153.4-31.39,153.84-70.17c32.9,12.47,52.91,29.01,52.91,47.12Z"/>
        <path class="cls-7" d="m798.79,1324.77c0,7.38-3.96,14.44-11.29,20.99-26.34,23.79-96.03,40.83-177.81,40.83s-157.81-18.6-181.18-44.05c-5.15-5.61-7.92-11.64-7.92-17.77,0-7.17,3.7-14.02,10.56-20.36,3.5.21,6.6,3.64,8.45,8.83-1.32,2.49-1.98,4.99-1.98,7.58,0,3.32,1.12,6.55,3.23,9.56,15.31,22.54,83.63,39.48,165.47,39.48s153.52-17.77,166.53-41.14c1.45-2.6,2.18-5.19,2.18-7.9,0-1.25-.13-2.49-.53-3.64,2.11-5.61,6.2-9.66,11.02-10.18,2.57-.31,5.02.52,7.13,2.08,4.03,4.99,6.14,10.28,6.14,15.69Z"/>
      </g>
    </g>
  </g>
</svg>