<?xml version="1.0" encoding="UTF-8"?>
<svg id="Camada_8" data-name="Camada 8" xmlns="http://www.w3.org/2000/svg" viewBox="0 0 48 48">
  <defs>
    <style>
      .cls-1, .cls-2 {
        fill: #442815;
      }

      .cls-3 {
        fill: #654128;
      }

      .cls-2 {
        font-family: PlayfairDisplay-Regular, 'Playfair Display';
        font-size: 4.6px;
        font-variation-settings: 'wght' 400;
      }

      .cls-4 {
        letter-spacing: -.01em;
      }

      .cls-5 {
        fill: #4b2c18;
      }

      .cls-6 {
        stroke: #d49e38;
        stroke-miterlimit: 10;
        stroke-width: .5px;
      }

      .cls-6, .cls-7 {
        fill: #d2a554;
      }

      .cls-8 {
        fill: #90613c;
      }

      .cls-9 {
        letter-spacing: -.02em;
      }

      .cls-10 {
        letter-spacing: -.02em;
      }

      .cls-11 {
        letter-spacing: -.02em;
      }
    </style>
  </defs>
  <g id="logo_favicon_com_texto_alternativa">
    <g>
      <text class="cls-2" transform="translate(14.57 42.91)"><tspan x="0" y="0">Laur</tspan><tspan class="cls-4" x="9.72" y="0">a</tspan><tspan class="cls-9" x="11.95" y="0"> </tspan><tspan class="cls-11" x="13.02" y="0">’</tspan><tspan x="14.06" y="0" xml:space="preserve"> s </tspan><tspan x="5.05" y="4.12">ca</tspan><tspan class="cls-10" x="9.58" y="4.12">f</tspan><tspan x="11.03" y="4.12">é</tspan></text>
      <line class="cls-6" x1="14.28" y1="45.65" x2="19.24" y2="45.65"/>
      <line class="cls-6" x1="28.76" y1="45.65" x2="33.72" y2="45.65"/>
    </g>
    <g id="Logo">
      <g id="pe_de_cafe">
        <path id="folha1" class="cls-7" d="m42.88,13.05s-6.13.09-6.16,6.75c0,0,2.67.55,6.34-3.19s2.51-3.76,2.51-3.76"/>
        <path id="folha_3" data-name="folha 3" class="cls-7" d="m38.95,29.52s2.07,1.21,3.29,1.31c3.22.26,3.78-1.5,4.33-3.2.57-1.97-1.7-4.36-2.7-5.68,0,0,.48,2.84-1.4,5.26-1.88,2.42-3.52,2.3-3.52,2.3Z"/>
        <path id="folha_2" data-name="folha 2" class="cls-7" d="m44.08,34.4s1.86.02,1.37,2.63c0,0-2.63-.97-1.37-2.63Z"/>
        <g id="galho">
          <g id="galho-2" data-name="galho">
            <path class="cls-1" d="m36.67,21.61c-.33,1.44-.23,2.93-.39,4.4-.15,1.43-.47,2.62-.89,3.62-.08.18-.16.36-.24.53-.1.19-.2.38-.3.56-.05.1-.11.19-.17.27,0,0,0,0,0,0-.12.19-.24.36-.37.53-.25.33-.51.62-.78.88-2.66,2.57-6.23,2.21-6.23,2.21l-.04-.17c-.08-.07,4.33.25,6.86-3.69.12-.18.23-.37.34-.58.73-1.35,1.24-3.14,1.36-5.5.49-10.17,6.98-10.16,7.14-10.16-3.63,1.01-5.52,3.82-6.28,7.09Z"/>
            <path class="cls-1" d="m38.99,29.74c-1.44-.19-2.51,0-3.3.42-.29.15-.54.34-.76.55-.09.09-.18.18-.26.28,0,0,0,0,0,0-.14.17-.26.34-.37.53-.25.33-.51.62-.78.88.13-.59.34-1.16.68-1.66.14-.21.29-.4.48-.58.21-.2.44-.38.72-.54.66-.37,1.52-.57,2.64-.52.97.05,1.98.34,2.91.23,2.09-.27,3.71-1.67,3.87-4.95.03.19.94,6.25-5.81,5.34Z"/>
            <path class="cls-1" d="m44.88,36.29c-1.32-3.51-4.26-5.11-7.54-5.54-.8-.1-1.6-.08-2.41-.03-.03,0-.06,0-.09,0-.22.01-.43.03-.65.04-.03,0-.06,0-.08,0,.12-.18.23-.37.34-.58.08,0,.15,0,.22,0,.16,0,.32-.01.47-.01.19,0,.37,0,.55,0t0,0c8.77.15,9.18,6.13,9.18,6.13Z"/>
          </g>
          <path class="cls-1" d="m38.05,17.94s.45.06,1.38-.73c0,0-.96,1.07-1.34,1.26s-.43.16-.43.16l.39-.69Z"/>
          <path class="cls-1" d="m40.72,15.21s-.07-.45.71-1.39c0,0-1.06.98-1.24,1.36s-.16.43-.16.43l.68-.4Z"/>
          <path class="cls-1" d="m42.12,29.04s.48-.41.17-.56c0,0,.51-.33.33.34s-.34.46-.34.46l-.16-.24Z"/>
          <path class="cls-1" d="m43.33,28.83s1.13-.19,1.13.13c0,0,1-.25-.33-.43s-1.1.05-1.1.05l.3.25Z"/>
          <path class="cls-1" d="m44.19,34.53s.27.33.44.26.18.36.18.36c0,0-.07-.37-.19-.27-.06.05-.23-.06-.23-.06,0,0-.23-.2-.21-.27.12-.6.02-.02.02-.02Z"/>
          <path class="cls-1" d="m44.56,35.2s-.05.43-.23.46.05.4.05.4c0,0-.14-.35.01-.33.08,0,.16-.18.16-.18,0,0,.08-.29.03-.34-.42-.44-.03,0-.03,0Z"/>
        </g>
      </g>
      <path id="alca_xicara" class="cls-1" d="m10.22,26.73s0,.09-.02.14c-.04.05-.08.1-.13.16-.02.02-.03.04-.05.06-.91,1.08-2.26,1.75-3.75,1.89-2.18.21-3.64-.65-4.38-1.9-.36-.63-.55-1.35-.56-2.1-.01-.74.16-1.51.49-2.21.6-1.24,1.78-2.27,3.44-2.62.32-.06.64-.1.9-.12.71,0,1.24.18,1.62.48l.16.19c.25.26.38.58.43.92.05.32.02.63-.09.93-.16.53-.42.81-.67.97-.23.11-.44.16-.63.14-.19-.02-.32-.08-.42-.19-.16-.17-.23-.45,0-.82.05-.11.13-.2.24-.35.31-.36.68-.81.31-1.23-.01-.04-.06-.08-.1-.11-.24-.22-.61-.33-1.05-.3-.15,0-.37.03-.58.06-.52.14-1.42,1.15-1.65,1.96-.18.72-.21,1.58-.15,2.4.11.84-.03,1.28.68,2.3.41.55,1.63,1.04,2.39.93,1.04-.16,1.92-.69,2.64-1.45l.02-.02c.07-.07.12-.13.17-.19.06-.04.12-.07.2-.09.26-.07.5,0,.54.17Z"/>
      <path class="cls-8" d="m23.37,15.76h0c0,.12.09.21.21.22,4.61.31,8.06,1.54,8.06,3.01,0,1.7-4.62,3.08-10.31,3.08-5.7,0-10.31-1.38-10.31-3.08,0-1.44,3.33-2.66,7.82-2.99.11,0,.2-.1.2-.22h0c0-.13-.11-.23-.24-.22-5.83.37-10.23,2-10.23,3.95,0,2.23,5.71,4.03,12.75,4.03s12.75-1.8,12.75-4.03c0-1.98-4.52-3.63-10.47-3.97-.13,0-.23.09-.23.22Z"/>
      <ellipse class="cls-3" cx="21.34" cy="19.55" rx="7.68" ry="1.86"/>
      <ellipse class="cls-3" cx="21.34" cy="19.55" rx="6.37" ry="1.55"/>
      <path class="cls-7" d="m28.69,19.56c0,.18-.15.35-.44.52-1.02.58-3.71,1-6.87,1s-6.1-.46-7-1.08c-.2-.14-.31-.29-.31-.44,0-.18.14-.34.41-.5.14,0,.26.09.33.22-.05.06-.08.12-.08.19,0,.08.04.16.12.23.59.55,3.23.97,6.39.97s5.93-.44,6.43-1.01c.06-.06.08-.13.08-.19,0-.03,0-.06-.02-.09.08-.14.24-.24.43-.25.1,0,.19.01.28.05.16.12.24.25.24.39Z"/>
      <path class="cls-5" d="m34.08,19.48c0,7.04-5.71,12.75-12.75,12.75s-12.75-5.71-12.75-12.75c0,0,2.75,3.38,12.75,3.38s12.75-3.38,12.75-3.38Z"/>
      <g id="fumaca">
        <path class="cls-1" d="m20.08,17.28h-.03s.01-.05.02-.08l.12-.2s.02-.02.03-.03c.04-.05.06-.1.09-.15.17-.28.34-.55.51-.83.11-.18.22-.35.26-.56.05-.26.13-.51.12-.78.03-.07.01-.13.01-.2v-.18s.01-.05-.01-.06c0-.08,0-.15,0-.23,0-.01,0-.02,0-.03-.01-.08,0-.16-.05-.23,0-.02.01-.05-.01-.06-.01-.15-.06-.28-.11-.42-.08-.23-.19-.43-.31-.64-.19-.32-.42-.59-.66-.86-.21-.24-.46-.43-.69-.65,0-.02-.03-.03-.05-.03l-.03-.03s-.05-.05-.08-.08c-.05-.04-.11-.09-.16-.14-.12-.11-.26-.22-.39-.33-.26-.22-.51-.45-.77-.67,0-.02-.02-.04-.05-.05-.03-.03-.06-.07-.1-.1-.25-.21-.45-.46-.66-.7-.18-.21-.33-.44-.46-.69-.17-.3-.3-.62-.37-.96-.01-.06-.02-.13-.03-.2,0-.06-.03-.12-.03-.19,0-.02-.02-.02-.03-.02v-.81s.03,0,.03-.02c.01-.1.02-.19.03-.29.02-.08.03-.17.05-.25.09-.44.23-.87.44-1.27.08-.16.17-.31.25-.46,0,0,.01,0,.01-.02.03-.04.05-.08.08-.12.04-.03.05-.07.08-.11h0s.01,0,.01-.02c.03-.03.05-.07.08-.1.03-.04.06-.07.09-.11.07-.08.14-.16.2-.24,0,0,0-.01.01-.02,0,0,0,0,.01-.01.05-.05.1-.11.14-.16.05-.05.1-.09.14-.15.06-.06.12-.12.17-.17,0,0,0,0,0,0,.05-.03.09-.07.12-.11h0c.07-.06.12-.13.19-.19.14-.13.27-.27.41-.4.01-.01.02-.02.03-.03,0,0,0,0,.01-.01h0s.08-.08.12-.12c.03-.03.07-.07.1-.1.02,0,.03-.02.05-.04h0s.04-.03.05-.05h0s.01-.02.02-.03c.04-.04.08-.08.12-.12q.11,0,.07.09s-.04.05-.04.08c-.02,0-.01.02-.01.03,0,0,0,0,0,.01-.02,0-.01.02-.02.03h0s-.01,0-.01.02c-.07.15-.14.3-.22.44-.16.31-.32.63-.47.95,0,0,0,.01-.01.02-.04.05-.04.11-.06.17,0,.01,0,.02,0,.03,0,0-.01,0,0,.02,0,0,0,.02,0,.03-.04.09-.04.19-.07.28-.02,0-.02.02-.01.03,0,.05-.01.1-.02.15,0,0-.01,0-.01.02,0,.03,0,.05,0,.08,0,.02-.03.04-.02.06,0,0,0,.01,0,.02,0,.02-.02.03-.02.05,0,.04,0,.07,0,.11,0,.04,0,.08-.01.12,0,.14,0,.29,0,.43,0,.05,0,.1,0,.14.02.09,0,.19.03.29,0,.02,0,.03.01.05,0,.02,0,.03,0,.05,0,.03-.01.07.02.09.02.05,0,.11.03.15,0,.04,0,.08.03.12.03.15.07.3.14.44.02.09.06.17.1.25,0,.03.02.05.03.08.01.02.02.04.03.06,0,.01.01.02.02.03,0,.01,0,.01.01.02h0c.04.08.08.16.14.23.01.03.02.06.05.08.03.05.04.11.09.14,0,.02.01.03.03.04,0,.03.03.05.05.08,0,0,0,0,.01.01.01.02.02.05.05.06.05.1.14.18.2.27.02.02.04.04.06.05.05.08.13.15.19.22,0,.03.03.05.05.06l.12.14s.02.03.03.03h0s0,.01.01.02c0,0,0,.01.01.02,0,.01.02.03.03.03h0s.01.01.02.02c0,0,0,.01.01.02,0,.01.02.03.03.03h0s0,.01.01.01c0,0,.01.01.02.02,0,.02.01.03.03.03h0s0,.02.01.01h0s.01.03.03.03c.02.01.03.02.05.04,0,.01.01.03.03.03,0,0,.01.01.02.02,0,.01,0,.01.01.02,0,0,.01,0,.02.01,0,.01.02.02.03.03,0,.01,0,.02.02.02,0,0,0,.01,0,.01.06.05.11.11.17.16,0,0,.01,0,.02.01.01.03.05.04.08.06l.15.14.27.24s.03.05.06.05c.04.04.08.08.12.12.1.1.2.19.31.29h0s0,.01.02.01c.05.05.1.1.15.15.13.13.26.26.38.39,0,0,.01.01.02.02,0,0,0,0,0,.01.03.05.07.09.11.13,0,0,0,0,0,.01,0,.02.02.04.04.05.04.05.07.11.12.15,0,.04.04.06.06.08,0,.02.01.03.03.04.03.06.07.12.11.17,0,0,0,.01.01.02.06.1.11.2.17.31h0c.02.08.07.16.11.23,0,0,0,0,0,.01,0,0,0,.01.01.02,0,.01,0,.03.01.04.05.16.11.33.16.49,0,.05.01.1.03.14,0,0,0,.02,0,.03,0,.05.02.09.03.14.02.09.03.19.05.28,0,.13.02.25.03.38.01.17,0,.33-.03.5,0,.01,0,.02,0,.03,0,.01,0,.02,0,.03,0,.03-.02.06-.02.09,0,.18-.06.36-.09.53,0,.03-.03.04-.01.07,0,.02-.01.03-.02.05,0,0,0,.02,0,.03-.04.11-.07.23-.11.34,0,.02-.03.04-.02.06-.01.02-.02.04-.02.06-.01,0-.01.02-.01.03-.03.07-.07.14-.08.21-.02,0-.01.02-.01.03-.1.19-.19.39-.29.58-.03.05-.06.09-.09.14-.02.04-.05.07-.07.12-.04.03-.05.07-.08.11-.05.07-.1.12-.14.2-.04.04-.08.09-.11.14h0c-.08.07-.14.15-.2.23-.01.01-.02.02-.03.03,0,0-.01,0-.02.01,0,0-.01.01-.02.02-.04.03-.07.07-.1.11,0,0-.02.02-.03.03-.05.03-.1.08-.14.13-.01,0-.02.02-.03.03,0,0-.01.01-.02.02h0s-.04.01-.05.03c-.02.02-.05.04-.07.06-.03.02-.05.04-.08.06-.09.07-.17.13-.26.2-.02,0-.04.01-.05.03,0,0-.01,0-.01,0-.19.12-.39.22-.6.3-.03.01-.07.02-.07.06h-.03s-.02,0-.03,0Z"/>
        <path class="cls-7" d="m19.73,17.45h-.03s.01-.05.02-.08l.11-.2s.02-.02.03-.03c.03-.05.05-.1.08-.15.15-.28.31-.56.47-.83.1-.18.2-.35.24-.56.05-.26.11-.52.11-.78.03-.07,0-.13.01-.2v-.19s.01-.05-.01-.06c0-.08,0-.15,0-.23,0-.01,0-.02,0-.03-.01-.08,0-.16-.04-.23,0-.02.01-.05-.01-.06,0-.15-.06-.28-.1-.42-.07-.23-.17-.44-.28-.64-.17-.32-.38-.59-.6-.87-.19-.24-.42-.44-.63-.65,0-.02-.02-.03-.04-.03l-.03-.03s-.05-.05-.07-.08c-.05-.05-.1-.09-.14-.14-.11-.11-.24-.22-.35-.33-.23-.22-.47-.45-.7-.67,0-.02-.02-.04-.04-.05-.03-.03-.06-.07-.09-.1-.22-.21-.41-.46-.6-.71-.16-.21-.3-.44-.42-.69-.15-.31-.27-.63-.34-.97-.01-.06-.02-.13-.03-.2,0-.06-.03-.12-.03-.19,0-.02-.01-.02-.03-.02v-.82s.03,0,.03-.02c0-.1.02-.19.03-.29.02-.08.03-.17.05-.25.08-.44.21-.87.4-1.28.07-.16.15-.31.23-.46,0,0,.01,0,.01-.02.02-.04.05-.08.07-.12.03-.03.05-.07.07-.11h0s.01,0,0-.02c.02-.03.05-.07.07-.1.03-.04.05-.07.08-.11.06-.08.12-.16.19-.24,0,0,0-.01.01-.02,0,0,0,0,0-.01.04-.05.09-.11.13-.16.05-.05.09-.09.12-.15.05-.06.11-.12.16-.17,0,0,0,0,0,0,.04-.03.08-.07.11-.11h0c.06-.06.11-.13.17-.19.13-.13.24-.27.37-.4,0-.01.02-.02.03-.03,0,0,0,0,.01-.01h0s.08-.08.11-.12c.03-.03.06-.07.1-.1.02,0,.03-.02.04-.04h0s.03-.03.05-.05h0s.01-.02.02-.03c.04-.04.08-.08.11-.12q.1,0,.07.09s-.04.05-.04.08c-.01,0-.01.02-.01.03,0,0,0,0,0,.01-.01,0-.01.02-.01.03h0s-.01,0,0,.02c-.06.15-.13.3-.2.44-.15.32-.29.64-.43.96,0,0,0,.01,0,.02-.03.05-.04.11-.06.17,0,.01,0,.02,0,.03,0,0-.01,0,0,.02,0,0,0,.02,0,.03-.04.09-.04.19-.06.28-.02,0-.01.02-.01.03,0,.05-.01.1-.02.15,0,0-.01,0-.01.02,0,.03,0,.05,0,.08,0,.02-.02.04-.01.06,0,0,0,.01,0,.02,0,.02-.02.03-.01.05,0,.04,0,.07,0,.11,0,.04,0,.08-.01.12,0,.14,0,.29,0,.43,0,.05,0,.1,0,.15.02.1,0,.19.03.29,0,.02,0,.04.01.05,0,.02,0,.03,0,.05,0,.03,0,.07.01.09.02.05,0,.11.03.15,0,.04,0,.08.02.12.03.15.07.3.13.45.02.09.06.17.09.25,0,.03.02.05.03.08,0,.02.02.04.03.06,0,.01,0,.02.01.03,0,.01,0,.01.01.02h0c.03.08.07.16.12.23.01.03.02.06.04.08.02.05.04.11.08.14,0,.02.01.03.03.04,0,.03.03.05.04.08,0,0,0,0,.01.01.01.02.02.05.04.06.05.1.12.18.18.27.02.02.04.04.05.06.05.08.11.15.18.22,0,.03.02.05.05.06l.11.14s.01.03.03.03h0s0,.01.01.02c0,0,0,.01.01.02,0,.01.01.03.03.03h0s0,.01.01.02c0,0,0,.01.01.02,0,.01.01.03.03.03h0s0,.01.01.02c0,0,0,.01.01.02,0,.02.01.03.03.03h0s0,.02.01.01h0s.01.03.02.03c.01.01.03.02.04.04,0,.01.01.03.03.03,0,0,.01.01.02.02,0,.01,0,.01.01.02,0,0,0,0,.01.01,0,.01.01.02.03.03,0,.01,0,.02.02.02,0,0,0,.01,0,.01.05.05.1.11.15.16,0,0,0,0,.01.01.01.03.05.04.07.06l.14.14.25.25s.03.05.06.05c.04.04.07.08.11.12.09.1.19.19.28.29h0s0,.01.01.01c.05.05.09.1.14.15.12.13.23.26.35.39,0,0,.01.01.02.02,0,0,0,0,0,.01.02.05.06.09.1.13,0,0,0,0,0,.01,0,.02.02.04.04.05.03.05.06.11.11.15,0,.04.03.06.06.08,0,.02.01.03.03.04.02.06.06.12.1.17,0,0,0,.01.01.02.05.1.1.21.16.31h0c.02.08.06.16.1.23,0,0,0,0,0,.01,0,0,0,.01,0,.02,0,.01,0,.03.01.04.05.16.1.33.14.49,0,.05,0,.1.03.14,0,0,0,.02,0,.03,0,.05.02.09.02.14.01.09.03.19.04.28,0,.13.01.25.02.38.01.17,0,.33-.02.5,0,.01,0,.02,0,.03,0,.01,0,.02,0,.03,0,.03-.02.06-.02.09,0,.18-.05.36-.08.53,0,.03-.02.05-.01.07,0,.02,0,.03-.01.05,0,0,0,.02,0,.03-.03.11-.07.23-.1.34,0,.02-.02.04-.01.06-.01.02-.02.04-.02.06-.01,0-.01.02-.01.03-.03.07-.06.14-.07.22-.01,0-.01.02-.01.03-.09.2-.18.39-.27.59-.03.05-.05.09-.08.14-.02.04-.05.07-.06.12-.04.03-.05.07-.07.11-.04.07-.09.12-.12.2-.04.04-.08.09-.1.14h0c-.07.07-.12.15-.18.23,0,.01-.02.02-.03.03,0,0,0,0-.01.01,0,0,0,.01-.01.02-.04.03-.06.07-.09.11,0,0-.02.02-.02.03-.05.03-.09.08-.12.13,0,0-.02.02-.03.03,0,0-.01.01-.02.02h0s-.03.01-.04.03c-.02.02-.04.04-.07.06-.02.02-.05.04-.07.06-.08.07-.16.13-.24.2-.02,0-.03.01-.04.03,0,0-.01,0-.01,0-.17.12-.36.22-.55.31-.03.01-.07.02-.06.06h-.03s-.02,0-.03,0Z"/>
      </g>
      <path class="cls-5" d="m33.79,22.15c-.09.44-.23.93-.36,1.35-2.74,4.96-20.99,5.04-24.13.2-.16-.46-.31-.95-.41-1.44.48.49,3.38,3.19,12.31,3.19,9.66,0,12.51-3.21,12.59-3.31Z"/>
      <path class="cls-1" d="m32.86,32.67c0,2.21-5.25,4-11.73,4s-11.73-1.79-11.73-4c0-1.03,1.14-1.97,3-2.67.03,2.2,3.93,3.98,8.73,3.98s8.71-1.78,8.73-3.98c1.87.71,3,1.65,3,2.67Z"/>
      <path class="cls-5" d="m31.97,32.17c0,.42-.22.82-.64,1.19-1.49,1.35-5.45,2.32-10.09,2.32s-8.96-1.06-10.28-2.5c-.29-.32-.45-.66-.45-1.01,0-.41.21-.8.6-1.16.2.01.37.21.48.5-.07.14-.11.28-.11.43,0,.19.06.37.18.54.87,1.28,4.75,2.24,9.39,2.24s8.71-1.01,9.45-2.33c.08-.15.12-.29.12-.45,0-.07,0-.14-.03-.21.12-.32.35-.55.63-.58.15-.02.28.03.4.12.23.28.35.58.35.89Z"/>
    </g>
  </g>
</svg>