<?xml version="1.0" encoding="UTF-8"?>
<svg id="Camada_8" data-name="Camada 8" xmlns="http://www.w3.org/2000/svg" viewBox="0 0 810 810">
  <defs>
    <style>
      .cls-1, .cls-2 {
        fill: #442815;
      }

      .cls-3 {
        fill: #654128;
      }

      .cls-4 {
        letter-spacing: -.02em;
      }

      .cls-5 {
        stroke: #d49e38;
        stroke-miterlimit: 10;
        stroke-width: 2px;
      }

      .cls-5, .cls-6 {
        fill: #d2a554;
      }

      .cls-7 {
        fill: #4b2c18;
      }

      .cls-8 {
        letter-spacing: -.01em;
      }

      .cls-9 {
        letter-spacing: -.02em;
      }

      .cls-10 {
        fill: #90613c;
      }

      .cls-2 {
        font-family: PlayfairDisplay-Regular, 'Playfair Display';
        font-size: 86.57px;
        font-variation-settings: 'wght' 400;
      }

      .cls-11 {
        letter-spacing: -.02em;
      }
    </style>
  </defs>
  <g id="logoinstagram">
    <text class="cls-2" transform="translate(392.19 444.24)"><tspan x="0" y="0">Laur</tspan><tspan class="cls-8" x="182.84" y="0">a</tspan><tspan class="cls-11" x="224.91" y="0"> </tspan><tspan class="cls-4" x="245.08" y="0">’</tspan><tspan x="264.56" y="0" xml:space="preserve"> s </tspan><tspan x="95.06" y="77.55">ca</tspan><tspan class="cls-9" x="180.24" y="77.55">f</tspan><tspan x="207.51" y="77.55">é</tspan></text>
    <line class="cls-5" x1="386.61" y1="495.78" x2="480.04" y2="495.78"/>
    <line class="cls-5" x1="659.18" y1="495.78" x2="752.61" y2="495.78"/>
    <g id="Logo">
      <g id="pe_de_cafe">
        <path id="folha1" class="cls-6" d="m351.23,349.99s-43.38.61-43.54,47.77c0,0,18.91,3.86,44.83-22.58,25.93-26.44,17.78-26.59,17.78-26.59"/>
        <path id="folha_3" data-name="folha 3" class="cls-6" d="m323.45,466.45s14.67,8.57,23.29,9.27c22.75,1.86,26.71-10.62,30.62-22.62,4.07-13.92-12.05-30.82-19.12-40.15,0,0,3.39,20.11-9.88,37.23-13.27,17.12-24.91,16.27-24.91,16.27Z"/>
        <path id="folha_2" data-name="folha 2" class="cls-6" d="m359.67,500.94s13.19.17,9.7,18.58c0,0-18.63-6.88-9.7-18.58Z"/>
        <g id="galho">
          <g id="galho-2" data-name="galho">
            <path class="cls-1" d="m307.26,410.56c-2.36,10.2-1.65,20.73-2.77,31.13-1.09,10.11-3.3,18.55-6.29,25.59-.55,1.3-1.12,2.52-1.71,3.72-.68,1.38-1.4,2.68-2.15,3.93-.38.68-.77,1.32-1.19,1.94,0,.02-.03.03-.04.04-.84,1.33-1.71,2.57-2.6,3.76-1.76,2.31-3.61,4.39-5.54,6.24-18.83,18.17-44.03,15.59-44.03,15.59l-.29-1.22c-.56-.49,30.65,1.8,48.51-26.08.84-1.29,1.62-2.64,2.39-4.08,5.14-9.56,8.78-22.18,9.59-38.86,3.45-71.94,49.39-71.86,50.5-71.84-25.68,7.15-39.03,27.04-44.38,50.13Z"/>
            <path class="cls-1" d="m323.73,468.03c-10.21-1.37-17.76-.03-23.31,2.98-2.06,1.09-3.85,2.41-5.4,3.89-.65.62-1.27,1.29-1.85,1.98,0,.02-.03.03-.04.04-.98,1.17-1.85,2.43-2.6,3.76-1.76,2.31-3.61,4.39-5.54,6.24.9-4.14,2.42-8.2,4.78-11.72.97-1.47,2.09-2.86,3.38-4.11,1.47-1.44,3.14-2.71,5.06-3.8,4.67-2.63,10.75-4.06,18.69-3.65,6.84.34,14.03,2.43,20.55,1.59,14.75-1.94,26.21-11.81,27.35-34.98.22,1.34,6.65,44.22-41.06,37.79Z"/>
            <path class="cls-1" d="m365.39,514.32c-9.34-24.84-30.15-36.16-53.35-39.2-5.66-.74-11.32-.54-17.01-.22-.22,0-.44.03-.66.03-1.52.08-3.05.18-4.59.26-.2.01-.4.03-.6.02.84-1.29,1.62-2.64,2.39-4.08.54-.03,1.08-.05,1.59-.05,1.14-.05,2.27-.08,3.36-.07,1.34-.02,2.63-.03,3.91,0t.02,0c61.99,1.06,64.94,43.32,64.94,43.32Z"/>
          </g>
          <path class="cls-1" d="m317.07,384.55s3.2.42,9.75-5.19c0,0-6.81,7.6-9.46,8.92s-3.05,1.16-3.05,1.16l2.76-4.88Z"/>
          <path class="cls-1" d="m335.92,365.29s-.47-3.19,5.04-9.83c0,0-7.49,6.92-8.77,9.59-1.28,2.67-1.11,3.06-1.11,3.06l4.84-2.83Z"/>
          <path class="cls-1" d="m345.82,463.03s3.41-2.92,1.22-3.93c0,0,3.59-2.32,2.31,2.37-1.28,4.69-2.42,3.25-2.42,3.25l-1.12-1.69Z"/>
          <path class="cls-1" d="m354.41,461.56s7.99-1.36,7.99.93c0,0,7.07-1.8-2.32-3.05-9.39-1.25-7.76.38-7.76.38l2.09,1.74Z"/>
          <path class="cls-1" d="m360.5,501.87s1.94,2.36,3.09,1.86,1.26,2.57,1.26,2.57c0,0-.51-2.6-1.36-1.94-.43.33-1.65-.44-1.65-.44,0,0-1.6-1.38-1.5-1.91.83-4.24.16-.15.16-.15Z"/>
          <path class="cls-1" d="m363.07,506.64s-.35,3.04-1.59,3.24.34,2.84.34,2.84c0,0-.98-2.46.1-2.37.54.05,1.15-1.26,1.15-1.26,0,0,.6-2.03.22-2.42-2.99-3.12-.21-.04-.21-.04Z"/>
        </g>
      </g>
      <path id="alca_xicara" class="cls-1" d="m120.26,446.72c.08.32.04.66-.11.99-.28.34-.6.71-.93,1.13-.13.14-.24.28-.36.41-6.42,7.63-15.98,12.35-26.52,13.34-15.44,1.46-25.76-4.56-31.01-13.42-2.51-4.46-3.87-9.55-3.95-14.83-.09-5.26,1.11-10.71,3.49-15.65,4.26-8.74,12.59-16.08,24.35-18.54,2.25-.44,4.55-.72,6.36-.87,5,0,8.78,1.3,11.45,3.41l1.16,1.34c1.8,1.84,2.66,4.09,3.03,6.47.33,2.23.13,4.42-.61,6.61-1.11,3.77-2.95,5.75-4.75,6.89-1.64.77-3.13,1.16-4.49,1.02-1.34-.13-2.26-.56-2.99-1.35-1.1-1.19-1.64-3.2.04-5.8.32-.75.95-1.41,1.72-2.45,2.21-2.57,4.8-5.74,2.17-8.67-.08-.31-.41-.56-.74-.8-1.73-1.53-4.31-2.33-7.42-2.15-1.08-.05-2.6.19-4.12.43-3.7.98-10.05,8.14-11.68,13.87-1.27,5.12-1.51,11.14-1.03,16.97.79,5.91-.22,9.06,4.84,16.24,2.92,3.91,11.54,7.34,16.88,6.58,7.35-1.13,13.6-4.86,18.64-10.25l.13-.14c.48-.51.87-.94,1.21-1.33.4-.27.88-.48,1.4-.62,1.81-.48,3.52.05,3.82,1.17Z"/>
      <path class="cls-10" d="m213.27,369.13h0c0,.82.64,1.5,1.46,1.55,32.62,2.17,57,10.87,57,21.27,0,12.01-32.65,21.76-72.93,21.76-40.28,0-72.93-9.77-72.92-21.78,0-10.22,23.55-18.78,55.31-21.14.81-.06,1.45-.74,1.45-1.55h0c0-.9-.77-1.63-1.66-1.57-41.26,2.6-72.34,14.13-72.34,27.95,0,15.75,40.36,28.52,90.17,28.53s90.18-12.76,90.18-28.5c0-14.03-31.95-25.67-74.05-28.09-.89-.05-1.65.67-1.65,1.57Z"/>
      <ellipse class="cls-3" cx="198.89" cy="395.92" rx="54.32" ry="13.18"/>
      <ellipse class="cls-3" cx="198.89" cy="395.92" rx="45.05" ry="10.93"/>
      <path class="cls-6" d="m250.85,396.05c0,1.28-1.08,2.51-3.08,3.64-7.2,4.13-26.24,7.09-48.59,7.09s-43.12-3.23-49.51-7.65c-1.41-.97-2.16-2.02-2.16-3.08,0-1.24,1.01-2.43,2.89-3.53.96.04,1.8.63,2.31,1.53-.36.43-.54.87-.54,1.32,0,.58.31,1.14.88,1.66,4.18,3.91,22.85,6.85,45.22,6.85s41.95-3.08,45.5-7.14c.4-.45.6-.9.6-1.37,0-.22-.04-.43-.14-.63.58-.97,1.7-1.68,3.01-1.77.7-.05,1.37.09,1.95.36,1.1.87,1.68,1.79,1.68,2.72Z"/>
      <path class="cls-7" d="m288.97,395.48c0,49.8-40.38,90.18-90.18,90.18s-90.18-40.38-90.18-90.18c0,0,19.46,23.91,90.17,23.91s90.18-23.91,90.18-23.91Z"/>
      <g id="fumaca">
        <path class="cls-1" d="m189.99,379.93h-.22c.04-.18.08-.36.12-.54l.86-1.39c.07-.08.14-.16.21-.24.26-.32.39-.71.6-1.06,1.19-1.97,2.4-3.92,3.61-5.87.77-1.24,1.53-2.47,1.83-3.95.37-1.83.89-3.63.88-5.52.21-.46.07-.94.09-1.42v-1.3c0-.15.09-.33-.09-.45,0-.54-.02-1.08-.02-1.62,0-.07,0-.14,0-.21-.1-.55-.07-1.12-.32-1.63.01-.16.11-.33-.09-.45-.07-1.03-.46-1.99-.78-2.95-.53-1.59-1.32-3.07-2.17-4.52-1.31-2.23-2.98-4.18-4.69-6.11-1.49-1.69-3.26-3.06-4.91-4.58-.06-.14-.18-.19-.32-.22l-.21-.21c-.19-.19-.38-.38-.57-.58-.37-.32-.75-.63-1.11-.96-.88-.81-1.84-1.53-2.74-2.31-1.82-1.56-3.62-3.16-5.42-4.75-.06-.16-.18-.27-.33-.34-.23-.23-.44-.48-.68-.69-1.73-1.49-3.22-3.22-4.67-4.97-1.25-1.5-2.33-3.13-3.27-4.85-1.19-2.16-2.1-4.41-2.62-6.82-.1-.46-.16-.92-.2-1.39-.03-.42-.22-.87-.24-1.33,0-.15-.11-.16-.22-.16v-5.76c.08-.01.2,0,.21-.12.07-.68.14-1.37.2-2.06.12-.59.23-1.18.35-1.76.65-3.13,1.66-6.13,3.08-8.98.55-1.11,1.19-2.18,1.78-3.27.06-.02.1-.04.09-.12.19-.29.38-.57.56-.86.27-.19.36-.51.56-.76h0c.06-.01.09-.05.08-.12.19-.25.38-.49.57-.74.2-.26.41-.52.61-.79.48-.57.96-1.15,1.44-1.72.04-.04.07-.08.11-.13.03-.02.05-.05.08-.07.34-.37.68-.74,1.01-1.12.36-.32.72-.65.97-1.08.41-.41.82-.82,1.23-1.22.03,0,.05-.01.04-.05.33-.23.64-.48.88-.81h0c.47-.41.87-.89,1.32-1.31.98-.92,1.89-1.92,2.89-2.82.07-.07.15-.15.22-.22.03-.03.07-.07.1-.1h0c.29-.29.59-.58.88-.86.25-.23.49-.46.74-.69.15-.05.25-.16.32-.3h0c.13-.12.25-.24.38-.36h0c.05-.07.1-.12.15-.18.29-.29.58-.57.88-.86q.74-.02.52.63c-.07.21-.3.32-.31.56-.11.03-.08.12-.08.2-.03.02-.05.05-.04.09-.12.04-.09.15-.11.24h0c-.06,0-.1.04-.08.11-.47,1.07-1.01,2.1-1.55,3.13-1.16,2.22-2.24,4.49-3.35,6.74-.03.04-.05.09-.08.13-.26.36-.31.79-.44,1.2-.01.07-.02.14-.03.21-.06.02-.1.04-.07.12,0,.07,0,.14,0,.21-.31.62-.28,1.32-.47,1.96-.12.03-.11.13-.09.22-.04.36-.09.72-.13,1.08-.06.01-.11.04-.09.11,0,.18,0,.36,0,.55.01.16-.19.26-.11.43,0,.04,0,.07,0,.11-.04.11-.17.18-.11.32-.01.25-.02.5-.03.76-.06.29.05.59-.08.87,0,1.01,0,2.03,0,3.04,0,.34-.07.7,0,1.02.14.67,0,1.37.21,2.03,0,.12-.06.25.08.33,0,.11.01.22.02.32,0,.22-.08.46.11.65.16.34.02.75.21,1.09-.02.31.07.6.19.88.24,1.08.53,2.15,1.01,3.15.16.62.44,1.18.73,1.74.01.21.15.36.24.54.07.14.14.29.22.43.04.07.08.15.12.22-.02.07.02.1.08.12h0c.27.57.56,1.13.96,1.63.09.2.14.43.34.55.19.34.3.74.65.98-.02.17.1.24.21.31.02.24.24.35.33.55.03.03.07.07.1.1.1.15.14.36.34.43.39.7.97,1.25,1.42,1.9.14.13.28.26.41.39.37.59.88,1.05,1.37,1.53.03.21.19.33.35.43l.87.97c.04.11.11.18.22.21h0s.07.07.11.11c.03.04.07.07.1.11.04.1.11.18.22.21h0s.07.07.11.11c.04.04.07.07.11.11.04.1.11.18.22.21h0s.07.07.1.11c.04.04.07.08.11.12.04.11.1.18.22.2h.01c0,.08.02.12.09.1l.02.02c.01.11.09.17.19.2.11.09.21.17.32.26.05.09.1.19.22.19.04.04.09.09.13.13-.02.07.03.1.09.11.04.04.07.07.11.11.04.1.11.17.22.2.01.08.07.11.14.12-.02.06,0,.09.07.08.4.37.79.75,1.19,1.12.04.03.07.07.11.1.11.24.35.3.54.45l1.08.98,1.93,1.73c.11.16.22.33.44.35.29.29.58.57.87.86.72.69,1.44,1.37,2.16,2.06h0c.01.06.04.1.11.09.36.35.73.69,1.08,1.05.91.92,1.8,1.85,2.71,2.77.04.05.08.09.12.14-.01.04,0,.07.05.07.19.37.48.63.79.89,0,.03,0,.07.02.09.04.17.16.26.3.33.27.38.49.79.85,1.09.03.28.27.39.44.57-.01.16.1.23.21.3.19.44.49.81.77,1.2.03.04.06.07.09.11.4.72.81,1.45,1.21,2.17h0c.17.58.47,1.1.75,1.63.01.03.03.07.04.1.02.04.05.09.07.13.02.11-.03.24.1.31.37,1.16.74,2.32,1.11,3.47.06.33.08.67.23.98,0,.07,0,.14,0,.21.06.32.13.65.19.97.12.65.23,1.31.34,1.97-.04.9.12,1.78.19,2.66.09,1.18-.05,2.36-.18,3.53,0,.07,0,.14,0,.22,0,.07,0,.15,0,.22-.04.21-.12.41-.13.62-.04,1.28-.39,2.51-.62,3.76.01.18-.18.32-.1.51-.04.11-.08.22-.12.33,0,.07,0,.14,0,.21-.26.8-.51,1.6-.77,2.4.03.16-.19.26-.11.43-.09.13-.13.27-.13.43-.1.05-.09.13-.08.22-.22.49-.46.98-.57,1.52-.11.04-.09.14-.1.23-.69,1.38-1.38,2.75-2.07,4.13-.21.33-.41.65-.62.98-.15.28-.38.52-.47.84-.29.19-.37.52-.54.78-.32.47-.73.87-.97,1.4-.29.3-.59.6-.77.99h0c-.54.48-.97,1.06-1.4,1.64-.07.07-.14.14-.22.22-.04.03-.07.06-.11.1-.04.04-.07.07-.11.11-.29.2-.46.51-.69.77-.06.06-.12.13-.18.19-.38.23-.7.54-.96.9-.07.07-.15.14-.22.2-.04.04-.08.07-.13.11h0c-.16,0-.26.09-.33.23-.17.15-.35.3-.52.45-.18.14-.36.28-.54.41-.61.47-1.23.94-1.84,1.41-.16-.01-.25.09-.33.22-.04,0-.08,0-.11.01-1.35.86-2.78,1.55-4.25,2.16-.21.09-.51.11-.5.45h-.22c-.07-.24-.14-.04-.22,0Z"/>
        <path class="cls-6" d="m187.51,381.13h-.2c.04-.18.07-.36.11-.54l.79-1.39c.06-.08.13-.16.19-.25.23-.32.36-.72.55-1.06,1.09-1.97,2.19-3.94,3.29-5.9.7-1.25,1.39-2.48,1.66-3.97.33-1.84.81-3.65.8-5.55.19-.46.06-.95.08-1.42v-1.31c0-.15.08-.33-.08-.45,0-.54-.01-1.09-.02-1.63,0-.07,0-.14,0-.21-.09-.55-.06-1.12-.29-1.64,0-.16.1-.33-.08-.45-.07-1.04-.42-2-.71-2.96-.48-1.6-1.21-3.08-1.98-4.53-1.19-2.24-2.72-4.2-4.27-6.13-1.36-1.69-2.97-3.08-4.47-4.6-.06-.14-.17-.19-.29-.22l-.19-.21c-.17-.19-.34-.39-.52-.58-.34-.32-.68-.63-1.01-.96-.8-.81-1.67-1.54-2.5-2.32-1.66-1.57-3.29-3.17-4.93-4.77-.06-.16-.16-.27-.3-.34-.21-.23-.4-.48-.62-.69-1.58-1.5-2.93-3.23-4.25-4.99-1.13-1.5-2.12-3.14-2.98-4.87-1.08-2.16-1.91-4.42-2.38-6.84-.09-.46-.15-.92-.18-1.39-.03-.42-.2-.87-.22-1.33,0-.16-.1-.16-.2-.16v-5.78c.08-.02.18,0,.19-.12.07-.69.12-1.38.19-2.06.11-.59.21-1.18.32-1.77.59-3.14,1.51-6.15,2.81-9.02.5-1.11,1.08-2.19,1.62-3.28.05-.02.09-.04.08-.12.17-.29.34-.58.51-.86.24-.19.33-.52.51-.76h0c.05-.01.09-.05.07-.12.17-.25.35-.49.52-.74.18-.26.37-.53.55-.79.44-.58.87-1.15,1.31-1.73.03-.04.06-.08.1-.13.02-.02.05-.05.07-.07.31-.37.61-.75.92-1.12.33-.32.65-.66.88-1.08.37-.41.75-.82,1.12-1.23.03,0,.04-.01.04-.05.3-.23.59-.48.8-.81h0c.43-.41.79-.9,1.2-1.32.9-.92,1.72-1.93,2.63-2.83.07-.08.13-.15.2-.23.03-.03.06-.07.1-.1h0c.27-.29.54-.58.8-.86.22-.23.45-.46.67-.69.13-.05.22-.16.29-.3h0c.11-.12.23-.25.34-.37h0c.04-.07.09-.12.13-.18.27-.29.53-.57.8-.86q.68-.02.47.64c-.06.21-.27.32-.28.56-.1.03-.07.12-.07.2-.03.02-.04.05-.04.09-.11.04-.09.15-.1.24h0c-.05,0-.09.04-.07.11-.43,1.07-.92,2.11-1.41,3.14-1.06,2.23-2.04,4.51-3.05,6.76-.02.04-.05.09-.07.13-.24.36-.28.8-.4,1.2,0,.07-.02.14-.03.21-.06.02-.09.04-.06.12,0,.07,0,.14,0,.21-.29.62-.25,1.32-.43,1.97-.11.03-.1.13-.08.22-.04.36-.08.72-.12,1.08-.06.01-.1.04-.08.11,0,.18,0,.37,0,.55.01.16-.17.26-.1.44,0,.04,0,.07,0,.11-.04.11-.16.18-.1.32,0,.25-.02.51-.03.76-.06.29.04.59-.07.88,0,1.02,0,2.03,0,3.05,0,.34-.06.7,0,1.03.13.67,0,1.37.19,2.03,0,.12-.05.25.08.33,0,.11.01.22.02.33,0,.22-.07.46.1.65.15.35.02.75.19,1.09-.02.31.06.6.17.88.22,1.08.48,2.15.92,3.16.14.62.4,1.19.66,1.75,0,.21.14.37.22.54.07.15.13.29.2.44.04.07.07.15.11.22-.02.07.02.1.07.12h0c.25.57.51,1.13.87,1.64.08.2.13.43.31.55.18.34.27.75.59.98-.02.17.09.24.19.31.02.24.22.35.3.55.03.03.06.07.09.1.09.15.12.36.31.43.35.7.88,1.26,1.3,1.91.13.13.25.26.38.39.34.59.81,1.05,1.25,1.54.03.21.17.33.32.44l.79.97c.03.11.1.18.2.22h0s.06.08.1.11c.03.04.06.07.1.11.04.1.1.18.2.21h0s.06.07.1.11c.03.04.06.07.1.11.04.1.1.18.2.21h0s.06.07.09.11c.03.04.07.08.1.12.03.11.09.18.2.2h.01c0,.08.02.12.08.1l.02.02c.01.11.08.17.17.2.1.09.19.17.29.26.05.09.09.19.2.19.04.04.08.09.12.13-.02.07.02.1.08.11.03.04.07.07.1.11.04.1.1.17.2.2.01.08.06.11.13.12-.02.06,0,.09.06.08.36.37.72.75,1.08,1.12.03.03.07.07.1.1.1.24.32.3.49.45l.98.98,1.76,1.73c.1.16.2.33.4.35.26.29.53.57.79.86.66.69,1.31,1.38,1.97,2.07h0c.01.06.04.1.1.09.33.35.67.69.99,1.05.82.92,1.64,1.85,2.46,2.78.04.05.08.09.11.14,0,.04,0,.07.05.07.17.37.44.64.72.9,0,.03,0,.07.02.09.04.17.15.26.28.33.24.38.45.79.78,1.09.03.28.25.4.4.57-.01.16.09.23.19.3.17.45.45.82.7,1.2.03.04.05.07.08.11.37.73.73,1.45,1.1,2.18h0c.15.58.43,1.1.68,1.64.01.03.03.07.04.1.02.04.04.09.07.13.02.11-.03.24.09.31.34,1.16.68,2.32,1.01,3.49.05.33.07.68.21.99,0,.07,0,.14,0,.21.06.33.12.65.17.98.11.66.21,1.32.31,1.97-.04.9.11,1.78.17,2.68.09,1.18-.05,2.37-.17,3.54,0,.07,0,.15,0,.22,0,.07,0,.15,0,.22-.04.21-.11.41-.12.62-.04,1.29-.36,2.52-.57,3.78.01.18-.16.32-.09.51-.04.11-.07.22-.11.33,0,.07,0,.14,0,.21-.23.8-.47,1.61-.7,2.41.02.16-.17.26-.1.43-.08.13-.12.27-.12.43-.09.05-.08.13-.07.22-.2.5-.42.98-.52,1.52-.1.04-.08.14-.09.23-.63,1.38-1.25,2.76-1.88,4.14-.19.33-.37.66-.56.99-.14.28-.35.52-.43.84-.26.19-.34.52-.49.79-.29.47-.67.87-.88,1.4-.27.3-.53.6-.7,1h0c-.49.48-.88,1.06-1.27,1.64-.07.07-.13.14-.2.22-.03.03-.07.07-.1.1-.03.04-.07.07-.1.11-.27.2-.42.51-.63.77-.06.06-.11.13-.17.19-.35.23-.63.54-.87.9-.07.07-.14.14-.2.2-.04.04-.08.07-.11.11,0,0,0-.01,0-.01-.15,0-.24.1-.3.24-.16.15-.32.3-.48.45-.16.14-.33.28-.49.42-.56.47-1.12.94-1.68,1.41-.15-.01-.23.09-.3.22-.03,0-.07,0-.1.01-1.23.86-2.53,1.56-3.87,2.16-.19.09-.46.11-.46.46h-.2c-.07-.25-.13-.04-.2,0Z"/>
      </g>
      <path class="cls-7" d="m286.94,414.32c-.63,3.14-1.6,6.55-2.57,9.56-19.37,35.1-148.47,35.66-170.65,1.45-1.1-3.26-2.17-6.75-2.89-10.18,3.37,3.44,23.93,22.56,87.09,22.56,68.34,0,88.43-22.68,89.03-23.39Z"/>
      <path class="cls-1" d="m280.37,488.76c0,15.64-37.15,28.32-82.99,28.32s-82.98-12.68-82.98-28.32c0-7.27,8.03-13.91,21.24-18.91.18,15.57,27.76,28.16,61.74,28.16s61.57-12.6,61.75-28.16c13.21,5.01,21.24,11.64,21.24,18.91Z"/>
      <path class="cls-7" d="m274.07,485.18c0,2.96-1.59,5.8-4.53,8.42-10.57,9.55-38.55,16.39-71.37,16.39s-63.34-7.46-72.72-17.68c-2.07-2.25-3.18-4.67-3.18-7.13,0-2.88,1.48-5.63,4.24-8.17,1.4.08,2.65,1.46,3.39,3.54-.53,1-.79,2-.79,3.04,0,1.33.45,2.63,1.3,3.84,6.15,9.05,33.57,15.85,66.42,15.85s61.62-7.13,66.84-16.51c.58-1.04.87-2.08.87-3.17,0-.5-.05-1-.21-1.46.85-2.25,2.49-3.88,4.42-4.09,1.03-.13,2.01.21,2.86.83,1.62,2,2.46,4.13,2.46,6.3Z"/>
    </g>
  </g>
</svg>