<?xml version="1.0" encoding="UTF-8"?>
<svg id="Camada_8" data-name="Camada 8" xmlns="http://www.w3.org/2000/svg" viewBox="0 0 48 48">
  <defs>
    <style>
      .cls-1, .cls-2 {
        fill: #442815;
      }

      .cls-3 {
        fill: #654128;
      }

      .cls-2 {
        font-family: PlayfairDisplay-Regular, 'Playfair Display';
        font-size: 4.6px;
        font-variation-settings: 'wght' 400;
      }

      .cls-4 {
        letter-spacing: -.01em;
      }

      .cls-5 {
        fill: #4b2c18;
      }

      .cls-6 {
        fill: #90613c;
      }

      .cls-7 {
        fill: none;
        stroke: #d49e38;
        stroke-miterlimit: 10;
        stroke-width: .5px;
      }

      .cls-8 {
        letter-spacing: -.02em;
      }

      .cls-9 {
        letter-spacing: -.02em;
      }

      .cls-10 {
        fill: #d2a554;
      }

      .cls-11 {
        letter-spacing: -.02em;
      }
    </style>
  </defs>
  <g id="logo_favicon_com_texto">
    <text class="cls-2" transform="translate(23.32 26.09)"><tspan x="0" y="0">Laur</tspan><tspan class="cls-4" x="9.72" y="0">a</tspan><tspan class="cls-8" x="11.95" y="0"> </tspan><tspan class="cls-11" x="13.02" y="0">’</tspan><tspan x="14.06" y="0" xml:space="preserve"> s </tspan><tspan x="5.05" y="4.12">ca</tspan><tspan class="cls-9" x="9.58" y="4.12">f</tspan><tspan x="11.03" y="4.12">é</tspan></text>
    <line class="cls-7" x1="23.02" y1="28.82" x2="27.99" y2="28.82"/>
    <line class="cls-7" x1="37.51" y1="28.82" x2="42.47" y2="28.82"/>
    <g id="Logo">
      <g id="pe_de_cafe">
        <path id="folha1" class="cls-10" d="m21.14,21.08s-2.3.03-2.31,2.54c0,0,1,.21,2.38-1.2s.94-1.41.94-1.41"/>
        <path id="folha_3" data-name="folha 3" class="cls-10" d="m19.67,27.27s.78.46,1.24.49c1.21.1,1.42-.56,1.63-1.2.22-.74-.64-1.64-1.02-2.13,0,0,.18,1.07-.52,1.98-.71.91-1.32.86-1.32.86Z"/>
        <path id="folha_2" data-name="folha 2" class="cls-10" d="m21.59,29.1s.7,0,.52.99c0,0-.99-.37-.52-.99Z"/>
        <g id="galho">
          <g id="galho-2" data-name="galho">
            <path class="cls-1" d="m18.81,24.3c-.13.54-.09,1.1-.15,1.65-.06.54-.18.99-.33,1.36-.03.07-.06.13-.09.2-.04.07-.07.14-.11.21-.02.04-.04.07-.06.1,0,0,0,0,0,0-.04.07-.09.14-.14.2-.09.12-.19.23-.29.33-1,.97-2.34.83-2.34.83l-.02-.06s1.63.1,2.58-1.39c.04-.07.09-.14.13-.22.27-.51.47-1.18.51-2.07.18-3.82,2.62-3.82,2.68-3.82-1.36.38-2.07,1.44-2.36,2.66Z"/>
            <path class="cls-1" d="m19.68,27.35c-.54-.07-.94,0-1.24.16-.11.06-.2.13-.29.21-.03.03-.07.07-.1.11,0,0,0,0,0,0-.05.06-.1.13-.14.2-.09.12-.19.23-.29.33.05-.22.13-.44.25-.62.05-.08.11-.15.18-.22.08-.08.17-.14.27-.2.25-.14.57-.22.99-.19.36.02.75.13,1.09.08.78-.1,1.39-.63,1.45-1.86.01.07.35,2.35-2.18,2.01Z"/>
            <path class="cls-1" d="m21.89,29.81c-.5-1.32-1.6-1.92-2.84-2.08-.3-.04-.6-.03-.9-.01-.01,0-.02,0-.04,0-.08,0-.16,0-.24.01-.01,0-.02,0-.03,0,.04-.07.09-.14.13-.22.03,0,.06,0,.08,0,.06,0,.12,0,.18,0,.07,0,.14,0,.21,0t0,0c3.29.06,3.45,2.3,3.45,2.3Z"/>
          </g>
          <path class="cls-1" d="m19.33,22.91s.17.02.52-.28c0,0-.36.4-.5.47s-.16.06-.16.06l.15-.26Z"/>
          <path class="cls-1" d="m20.33,21.89s-.02-.17.27-.52c0,0-.4.37-.47.51s-.06.16-.06.16l.26-.15Z"/>
          <path class="cls-1" d="m20.86,27.08s.18-.16.06-.21c0,0,.19-.12.12.13s-.13.17-.13.17l-.06-.09Z"/>
          <path class="cls-1" d="m21.31,27.01s.42-.07.42.05c0,0,.38-.1-.12-.16s-.41.02-.41.02l.11.09Z"/>
          <path class="cls-1" d="m21.64,29.15s.1.13.16.1.07.14.07.14c0,0-.03-.14-.07-.1-.02.02-.09-.02-.09-.02,0,0-.09-.07-.08-.1.04-.23,0,0,0,0Z"/>
          <path class="cls-1" d="m21.77,29.4s-.02.16-.08.17.02.15.02.15c0,0-.05-.13,0-.13.03,0,.06-.07.06-.07,0,0,.03-.11.01-.13-.16-.17-.01,0-.01,0Z"/>
        </g>
      </g>
      <path id="alca_xicara" class="cls-1" d="m8.87,26.22s0,.03,0,.05c-.01.02-.03.04-.05.06,0,0-.01.01-.02.02-.34.41-.85.66-1.41.71-.82.08-1.37-.24-1.65-.71-.13-.24-.21-.51-.21-.79,0-.28.06-.57.19-.83.23-.46.67-.85,1.29-.99.12-.02.24-.04.34-.05.27,0,.47.07.61.18l.06.07c.1.1.14.22.16.34.02.12,0,.24-.03.35-.06.2-.16.31-.25.37-.09.04-.17.06-.24.05-.07,0-.12-.03-.16-.07-.06-.06-.09-.17,0-.31.02-.04.05-.07.09-.13.12-.14.26-.3.12-.46,0-.02-.02-.03-.04-.04-.09-.08-.23-.12-.39-.11-.06,0-.14.01-.22.02-.2.05-.53.43-.62.74-.07.27-.08.59-.05.9.04.31-.01.48.26.86.15.21.61.39.9.35.39-.06.72-.26.99-.54h0s.05-.06.06-.08c.02-.01.05-.03.07-.03.1-.03.19,0,.2.06Z"/>
      <path class="cls-6" d="m13.81,22.09h0s.03.08.08.08c1.73.12,3.03.58,3.03,1.13,0,.64-1.74,1.16-3.88,1.16s-3.88-.52-3.88-1.16c0-.54,1.25-1,2.94-1.12.04,0,.08-.04.08-.08h0s-.04-.09-.09-.08c-2.19.14-3.84.75-3.84,1.49,0,.84,2.14,1.52,4.79,1.52s4.79-.68,4.79-1.51c0-.75-1.7-1.36-3.93-1.49-.05,0-.09.04-.09.08Z"/>
      <ellipse class="cls-3" cx="13.05" cy="23.52" rx="2.89" ry=".7"/>
      <ellipse class="cls-3" cx="13.05" cy="23.52" rx="2.39" ry=".58"/>
      <path class="cls-10" d="m15.81,23.52c0,.07-.06.13-.16.19-.38.22-1.39.38-2.58.38s-2.29-.17-2.63-.41c-.07-.05-.12-.11-.12-.16,0-.07.05-.13.15-.19.05,0,.1.03.12.08-.02.02-.03.05-.03.07,0,.03.02.06.05.09.22.21,1.21.36,2.4.36s2.23-.16,2.42-.38c.02-.02.03-.05.03-.07,0-.01,0-.02,0-.03.03-.05.09-.09.16-.09.04,0,.07,0,.1.02.06.05.09.09.09.14Z"/>
      <path class="cls-5" d="m17.83,23.49c0,2.65-2.15,4.79-4.79,4.79s-4.79-2.15-4.79-4.79c0,0,1.03,1.27,4.79,1.27s4.79-1.27,4.79-1.27Z"/>
      <g id="fumaca">
        <path class="cls-1" d="m12.57,22.67h-.01s0-.02,0-.03l.05-.07s0,0,.01-.01c.01-.02.02-.04.03-.06.06-.1.13-.21.19-.31.04-.07.08-.13.1-.21.02-.1.05-.19.05-.29.01-.02,0-.05,0-.08v-.07s0-.02,0-.02c0-.03,0-.06,0-.09,0,0,0,0,0-.01,0-.03,0-.06-.02-.09,0,0,0-.02,0-.02,0-.05-.02-.11-.04-.16-.03-.08-.07-.16-.12-.24-.07-.12-.16-.22-.25-.32-.08-.09-.17-.16-.26-.24,0,0,0-.01-.02-.01h-.01s-.02-.03-.03-.04c-.02-.02-.04-.03-.06-.05-.05-.04-.1-.08-.15-.12-.1-.08-.19-.17-.29-.25,0,0,0-.01-.02-.02-.01-.01-.02-.03-.04-.04-.09-.08-.17-.17-.25-.26-.07-.08-.12-.17-.17-.26-.06-.11-.11-.23-.14-.36,0-.02,0-.05-.01-.07,0-.02-.01-.05-.01-.07,0,0,0,0-.01,0v-.31s.01,0,.01,0c0-.04,0-.07.01-.11,0-.03.01-.06.02-.09.03-.17.09-.33.16-.48.03-.06.06-.12.09-.17,0,0,0,0,0,0,0-.02.02-.03.03-.05.01-.01.02-.03.03-.04h0s0,0,0,0c.01-.01.02-.03.03-.04.01-.01.02-.03.03-.04.03-.03.05-.06.08-.09,0,0,0,0,0,0,0,0,0,0,0,0,.02-.02.04-.04.05-.06.02-.02.04-.03.05-.06.02-.02.04-.04.07-.07,0,0,0,0,0,0,.02-.01.03-.03.05-.04h0s.05-.05.07-.07c.05-.05.1-.1.15-.15,0,0,0,0,.01-.01,0,0,0,0,0,0h0s.03-.03.05-.05c.01-.01.03-.02.04-.04,0,0,.01,0,.02-.02h0s.01-.01.02-.02h0s0,0,0,0c.02-.02.03-.03.05-.05t.03.03s-.02.02-.02.03c0,0,0,0,0,.01,0,0,0,0,0,0,0,0,0,0,0,.01h0s0,0,0,0c-.03.06-.05.11-.08.17-.06.12-.12.24-.18.36,0,0,0,0,0,0-.01.02-.02.04-.02.06,0,0,0,0,0,.01,0,0,0,0,0,0,0,0,0,0,0,.01-.02.03-.01.07-.02.1,0,0,0,0,0,.01,0,.02,0,.04,0,.06,0,0,0,0,0,0,0,0,0,.02,0,.03,0,0,0,.01,0,.02,0,0,0,0,0,0,0,0,0,0,0,.02,0,.01,0,.03,0,.04,0,.02,0,.03,0,.05,0,.05,0,.11,0,.16,0,.02,0,.04,0,.05,0,.04,0,.07.01.11,0,0,0,.01,0,.02,0,0,0,.01,0,.02,0,.01,0,.02,0,.03,0,.02,0,.04.01.06,0,.02,0,.03,0,.05.01.06.03.11.05.17,0,.03.02.06.04.09,0,.01,0,.02.01.03,0,0,0,.02.01.02,0,0,0,0,0,.01,0,0,0,0,0,0h0s.03.06.05.09c0,.01,0,.02.02.03.01.02.02.04.03.05,0,0,0,.01.01.02,0,.01.01.02.02.03,0,0,0,0,0,0,0,0,0,.02.02.02.02.04.05.07.08.1,0,0,.01.01.02.02.02.03.05.06.07.08,0,.01.01.02.02.02l.05.05s0,0,.01.01h0s0,0,0,0c0,0,0,0,0,0,0,0,0,0,.01.01h0s0,0,0,0c0,0,0,0,0,0,0,0,0,0,.01.01h0s0,0,0,0c0,0,0,0,0,0,0,0,0,0,.01.01h0s0,0,0,0h0s0,.01,0,.01c0,0,.01,0,.02.01,0,0,0,0,.01,0,0,0,0,0,0,0,0,0,0,0,0,0,0,0,0,0,0,0,0,0,0,0,.01.01,0,0,0,0,0,0,0,0,0,0,0,0,.02.02.04.04.06.06,0,0,0,0,0,0,0,.01.02.02.03.02l.06.05.1.09s.01.02.02.02c.02.02.03.03.05.05.04.04.08.07.11.11h0s0,0,0,0c.02.02.04.04.06.06.05.05.1.1.14.15,0,0,0,0,0,0,0,0,0,0,0,0,0,.02.03.03.04.05,0,0,0,0,0,0,0,0,0,.01.02.02.01.02.03.04.05.06,0,.01.01.02.02.03,0,0,0,.01.01.02.01.02.03.04.04.06,0,0,0,0,0,0,.02.04.04.08.06.12h0s.02.06.04.09c0,0,0,0,0,0,0,0,0,0,0,0,0,0,0,.01,0,.02.02.06.04.12.06.18,0,.02,0,.04.01.05,0,0,0,0,0,.01,0,.02,0,.03.01.05,0,.03.01.07.02.1,0,.05,0,.09,0,.14,0,.06,0,.13,0,.19,0,0,0,0,0,.01,0,0,0,0,0,.01,0,.01,0,.02,0,.03,0,.07-.02.13-.03.2,0,0,0,.02,0,.03,0,0,0,.01,0,.02,0,0,0,0,0,.01-.01.04-.03.09-.04.13,0,0-.01.01,0,.02,0,0,0,.01,0,.02,0,0,0,0,0,.01-.01.03-.02.05-.03.08,0,0,0,0,0,.01-.04.07-.07.15-.11.22-.01.02-.02.03-.03.05,0,.02-.02.03-.02.04-.02,0-.02.03-.03.04-.02.02-.04.05-.05.07-.02.02-.03.03-.04.05h0s-.05.06-.07.09c0,0,0,0-.01.01,0,0,0,0,0,0,0,0,0,0,0,0-.02.01-.02.03-.04.04,0,0,0,0,0,.01-.02.01-.04.03-.05.05,0,0,0,0-.01.01,0,0,0,0,0,0h0s-.01,0-.02.01c0,0-.02.02-.03.02,0,0-.02.01-.03.02-.03.02-.07.05-.1.07,0,0-.01,0-.02.01,0,0,0,0,0,0-.07.05-.15.08-.23.11-.01,0-.03,0-.03.02h-.01s0,0-.01,0Z"/>
        <path class="cls-10" d="m12.44,22.73h-.01s0-.02,0-.03l.04-.07s0,0,.01-.01c.01-.02.02-.04.03-.06.06-.1.12-.21.17-.31.04-.07.07-.13.09-.21.02-.1.04-.19.04-.29.01-.02,0-.05,0-.08v-.07s0-.02,0-.02c0-.03,0-.06,0-.09,0,0,0,0,0-.01,0-.03,0-.06-.02-.09,0,0,0-.02,0-.02,0-.06-.02-.11-.04-.16-.03-.08-.06-.16-.11-.24-.06-.12-.14-.22-.23-.33-.07-.09-.16-.16-.24-.24,0,0,0-.01-.02-.01h-.01s-.02-.03-.03-.04c-.02-.02-.04-.03-.05-.05-.04-.04-.09-.08-.13-.12-.09-.08-.17-.17-.26-.25,0,0,0-.01-.02-.02-.01-.01-.02-.03-.03-.04-.08-.08-.16-.17-.23-.27-.06-.08-.11-.17-.16-.26-.06-.12-.1-.24-.13-.36,0-.02,0-.05,0-.07,0-.02-.01-.05-.01-.07,0,0,0,0-.01,0v-.31s0,0,.01,0c0-.04,0-.07,0-.11,0-.03.01-.06.02-.09.03-.17.08-.33.15-.48.03-.06.06-.12.09-.17,0,0,0,0,0,0,0-.02.02-.03.03-.05.01-.01.02-.03.03-.04h0s0,0,0,0c0-.01.02-.03.03-.04,0-.01.02-.03.03-.04.02-.03.05-.06.07-.09,0,0,0,0,0,0,0,0,0,0,0,0,.02-.02.03-.04.05-.06.02-.02.03-.03.05-.06.02-.02.04-.04.06-.07,0,0,0,0,0,0,.02-.01.03-.03.04-.04h0s.04-.05.06-.07c.05-.05.09-.1.14-.15,0,0,0,0,.01-.01,0,0,0,0,0,0h0s.03-.03.04-.05c.01-.01.02-.02.04-.04,0,0,.01,0,.02-.02h0s.01-.01.02-.02h0s0,0,0,0c.01-.02.03-.03.04-.05t.03.03s-.01.02-.01.03c0,0,0,0,0,.01,0,0,0,0,0,0,0,0,0,0,0,.01h0s0,0,0,0c-.02.06-.05.11-.08.17-.06.12-.11.24-.16.36,0,0,0,0,0,0-.01.02-.01.04-.02.06,0,0,0,0,0,.01,0,0,0,0,0,0,0,0,0,0,0,.01-.02.03-.01.07-.02.1,0,0,0,0,0,.01,0,.02,0,.04,0,.06,0,0,0,0,0,0,0,0,0,.02,0,.03,0,0,0,.01,0,.02,0,0,0,0,0,0,0,0,0,0,0,.02,0,.01,0,.03,0,.04,0,.02,0,.03,0,.05,0,.05,0,.11,0,.16,0,.02,0,.04,0,.05,0,.04,0,.07,0,.11,0,0,0,.01,0,.02,0,0,0,.01,0,.02,0,.01,0,.02,0,.03,0,.02,0,.04.01.06,0,.02,0,.03,0,.05.01.06.03.11.05.17,0,.03.02.06.04.09,0,.01,0,.02.01.03,0,0,0,.02.01.02,0,0,0,0,0,.01,0,0,0,0,0,0h0s.03.06.05.09c0,.01,0,.02.02.03,0,.02.01.04.03.05,0,0,0,.01.01.02,0,.01.01.02.02.03,0,0,0,0,0,0,0,0,0,.02.02.02.02.04.05.07.07.1,0,0,.01.01.02.02.02.03.04.06.07.08,0,.01,0,.02.02.02l.04.05s0,0,.01.01h0s0,0,0,0c0,0,0,0,0,0,0,0,0,0,.01.01h0s0,0,0,0c0,0,0,0,0,0,0,0,0,0,.01.01h0s0,0,0,0c0,0,0,0,0,0,0,0,0,0,.01.01h0s0,0,0,0h0s0,.01,0,.01c0,0,.01,0,.02.01,0,0,0,0,.01,0,0,0,0,0,0,0,0,0,0,0,0,0,0,0,0,0,0,0,0,0,0,0,.01.01,0,0,0,0,0,0,0,0,0,0,0,0,.02.02.04.04.06.06,0,0,0,0,0,0,0,.01.02.02.03.02l.05.05.09.09s.01.02.02.02c.01.02.03.03.04.05.03.04.07.07.1.11h0s0,0,0,0c.02.02.04.04.05.06.04.05.09.1.13.15,0,0,0,0,0,0,0,0,0,0,0,0,0,.02.02.03.04.05,0,0,0,0,0,0,0,0,0,.01.01.02.01.02.02.04.04.06,0,.01.01.02.02.03,0,0,0,.01.01.02,0,.02.02.04.04.06,0,0,0,0,0,0,.02.04.04.08.06.12h0s.02.06.04.09c0,0,0,0,0,0,0,0,0,0,0,0,0,0,0,.01,0,.02.02.06.04.12.05.19,0,.02,0,.04.01.05,0,0,0,0,0,.01,0,.02,0,.03,0,.05,0,.03.01.07.02.1,0,.05,0,.09,0,.14,0,.06,0,.13,0,.19,0,0,0,0,0,.01,0,0,0,0,0,.01,0,.01,0,.02,0,.03,0,.07-.02.13-.03.2,0,0,0,.02,0,.03,0,0,0,.01,0,.02,0,0,0,0,0,.01-.01.04-.02.09-.04.13,0,0,0,.01,0,.02,0,0,0,.01,0,.02,0,0,0,0,0,.01-.01.03-.02.05-.03.08,0,0,0,0,0,.01-.03.07-.07.15-.1.22,0,.02-.02.03-.03.05,0,.02-.02.03-.02.04-.01,0-.02.03-.03.04-.02.02-.04.05-.05.07-.01.02-.03.03-.04.05h0s-.05.06-.07.09c0,0,0,0-.01.01,0,0,0,0,0,0,0,0,0,0,0,0-.01.01-.02.03-.03.04,0,0,0,0,0,.01-.02.01-.03.03-.05.05,0,0,0,0-.01.01,0,0,0,0,0,0h0s-.01,0-.02.01c0,0-.02.02-.03.02,0,0-.02.01-.03.02-.03.03-.06.05-.09.08,0,0-.01,0-.02.01,0,0,0,0,0,0-.07.05-.13.08-.21.12-.01,0-.02,0-.02.02h-.01s0,0-.01,0Z"/>
      </g>
      <path class="cls-5" d="m17.73,24.5c-.03.17-.08.35-.14.51-1.03,1.87-7.89,1.9-9.07.08-.06-.17-.12-.36-.15-.54.18.18,1.27,1.2,4.63,1.2,3.63,0,4.7-1.21,4.73-1.24Z"/>
      <path class="cls-1" d="m17.38,28.45c0,.83-1.97,1.5-4.41,1.5s-4.41-.67-4.41-1.5c0-.39.43-.74,1.13-1.01,0,.83,1.48,1.5,3.28,1.5s3.27-.67,3.28-1.5c.7.27,1.13.62,1.13,1.01Z"/>
      <path class="cls-5" d="m17.04,28.26c0,.16-.08.31-.24.45-.56.51-2.05.87-3.79.87s-3.37-.4-3.86-.94c-.11-.12-.17-.25-.17-.38,0-.15.08-.3.23-.43.07,0,.14.08.18.19-.03.05-.04.11-.04.16,0,.07.02.14.07.2.33.48,1.78.84,3.53.84s3.27-.38,3.55-.88c.03-.06.05-.11.05-.17,0-.03,0-.05-.01-.08.05-.12.13-.21.24-.22.05,0,.11.01.15.04.09.11.13.22.13.33Z"/>
    </g>
  </g>
</svg>