<?xml version="1.0" encoding="UTF-8"?>
<svg id="Camada_8" data-name="Camada 8" xmlns="http://www.w3.org/2000/svg" viewBox="0 0 48 48">
  <defs>
    <style>
      .cls-1 {
        fill: #442815;
      }

      .cls-2 {
        fill: #654128;
      }

      .cls-3 {
        fill: #4b2c18;
      }

      .cls-4 {
        fill: #90613c;
      }

      .cls-5 {
        fill: #d2a554;
      }
    </style>
  </defs>
  <g id="logo_favicon_sem_texto">
    <g id="Logo">
      <g id="pe_de_cafe">
        <path id="folha1" class="cls-5" d="m42.83,17.88s-6.12.09-6.14,6.73c0,0,2.67.54,6.32-3.18,3.66-3.73,2.51-3.75,2.51-3.75"/>
        <path id="folha_3" data-name="folha 3" class="cls-5" d="m38.91,34.29s2.07,1.21,3.28,1.31c3.21.26,3.77-1.5,4.32-3.19.57-1.96-1.7-4.35-2.7-5.66,0,0,.48,2.83-1.39,5.25-1.87,2.41-3.51,2.29-3.51,2.29Z"/>
        <path id="folha_2" data-name="folha 2" class="cls-5" d="m44.02,39.16s1.86.02,1.37,2.62c0,0-2.63-.97-1.37-2.62Z"/>
        <g id="galho">
          <g id="galho-2" data-name="galho">
            <path class="cls-1" d="m36.63,26.41c-.33,1.44-.23,2.92-.39,4.39-.15,1.43-.47,2.62-.89,3.61-.08.18-.16.36-.24.52-.1.19-.2.38-.3.55-.05.1-.11.19-.17.27,0,0,0,0,0,0-.12.19-.24.36-.37.53-.25.33-.51.62-.78.88-2.66,2.56-6.21,2.2-6.21,2.2l-.04-.17c-.08-.07,4.32.25,6.84-3.68.12-.18.23-.37.34-.58.73-1.35,1.24-3.13,1.35-5.48.49-10.14,6.96-10.13,7.12-10.13-3.62,1.01-5.5,3.81-6.26,7.07Z"/>
            <path class="cls-1" d="m38.95,34.52c-1.44-.19-2.5,0-3.29.42-.29.15-.54.34-.76.55-.09.09-.18.18-.26.28,0,0,0,0,0,0-.14.17-.26.34-.37.53-.25.33-.51.62-.78.88.13-.58.34-1.16.67-1.65.14-.21.29-.4.48-.58.21-.2.44-.38.71-.54.66-.37,1.52-.57,2.63-.51.96.05,1.98.34,2.9.22,2.08-.27,3.7-1.67,3.86-4.93.03.19.94,6.23-5.79,5.33Z"/>
            <path class="cls-1" d="m44.82,41.04c-1.32-3.5-4.25-5.1-7.52-5.53-.8-.1-1.6-.08-2.4-.03-.03,0-.06,0-.09,0-.21.01-.43.03-.65.04-.03,0-.06,0-.08,0,.12-.18.23-.37.34-.58.08,0,.15,0,.22,0,.16,0,.32-.01.47-.01.19,0,.37,0,.55,0t0,0c8.74.15,9.16,6.11,9.16,6.11Z"/>
          </g>
          <path class="cls-1" d="m38.01,22.75s.45.06,1.37-.73c0,0-.96,1.07-1.33,1.26s-.43.16-.43.16l.39-.69Z"/>
          <path class="cls-1" d="m40.67,20.03s-.07-.45.71-1.39c0,0-1.06.98-1.24,1.35s-.16.43-.16.43l.68-.4Z"/>
          <path class="cls-1" d="m42.06,33.81s.48-.41.17-.55c0,0,.51-.33.33.33s-.34.46-.34.46l-.16-.24Z"/>
          <path class="cls-1" d="m43.27,33.6s1.13-.19,1.13.13c0,0,1-.25-.33-.43s-1.09.05-1.09.05l.29.25Z"/>
          <path class="cls-1" d="m44.13,39.29s.27.33.44.26.18.36.18.36c0,0-.07-.37-.19-.27-.06.05-.23-.06-.23-.06,0,0-.23-.19-.21-.27.12-.6.02-.02.02-.02Z"/>
          <path class="cls-1" d="m44.49,39.96s-.05.43-.22.46.05.4.05.4c0,0-.14-.35.01-.33.08,0,.16-.18.16-.18,0,0,.08-.29.03-.34-.42-.44-.03,0-.03,0Z"/>
        </g>
      </g>
      <path id="alca_xicara" class="cls-1" d="m10.26,31.51s0,.09-.02.14c-.04.05-.08.1-.13.16-.02.02-.03.04-.05.06-.91,1.08-2.25,1.74-3.74,1.88-2.18.21-3.63-.64-4.37-1.89-.35-.63-.55-1.35-.56-2.09-.01-.74.16-1.51.49-2.21.6-1.23,1.78-2.27,3.43-2.61.32-.06.64-.1.9-.12.7,0,1.24.18,1.61.48l.16.19c.25.26.37.58.43.91.05.31.02.62-.09.93-.16.53-.42.81-.67.97-.23.11-.44.16-.63.14-.19-.02-.32-.08-.42-.19-.16-.17-.23-.45,0-.82.05-.11.13-.2.24-.34.31-.36.68-.81.31-1.22-.01-.04-.06-.08-.1-.11-.24-.22-.61-.33-1.05-.3-.15,0-.37.03-.58.06-.52.14-1.42,1.15-1.65,1.96-.18.72-.21,1.57-.14,2.39.11.83-.03,1.28.68,2.29.41.55,1.63,1.04,2.38.93,1.04-.16,1.92-.69,2.63-1.44l.02-.02c.07-.07.12-.13.17-.19.06-.04.12-.07.2-.09.26-.07.5,0,.54.17Z"/>
      <path class="cls-4" d="m23.38,20.57h0c0,.12.09.21.21.22,4.6.31,8.04,1.53,8.04,3,0,1.69-4.6,3.07-10.28,3.07s-10.28-1.38-10.28-3.07c0-1.44,3.32-2.65,7.8-2.98.11,0,.2-.1.2-.22h0c0-.13-.11-.23-.23-.22-5.82.37-10.2,1.99-10.2,3.94,0,2.22,5.69,4.02,12.71,4.02s12.71-1.8,12.71-4.02c0-1.98-4.5-3.62-10.44-3.96-.13,0-.23.09-.23.22Z"/>
      <ellipse class="cls-2" cx="21.35" cy="24.35" rx="7.66" ry="1.86"/>
      <ellipse class="cls-2" cx="21.35" cy="24.35" rx="6.35" ry="1.54"/>
      <path class="cls-5" d="m28.67,24.37c0,.18-.15.35-.43.51-1.01.58-3.7,1-6.85,1s-6.08-.46-6.98-1.08c-.2-.14-.31-.28-.31-.43,0-.18.14-.34.41-.5.13,0,.25.09.33.22-.05.06-.08.12-.08.19,0,.08.04.16.12.23.59.55,3.22.97,6.37.97s5.91-.43,6.42-1.01c.06-.06.08-.13.08-.19,0-.03,0-.06-.02-.09.08-.14.24-.24.42-.25.1,0,.19.01.27.05.16.12.24.25.24.38Z"/>
      <path class="cls-3" d="m34.05,24.29c0,7.02-5.69,12.71-12.71,12.71s-12.71-5.69-12.71-12.71c0,0,2.74,3.37,12.71,3.37s12.71-3.37,12.71-3.37Z"/>
      <g id="fumaca">
        <path class="cls-1" d="m20.09,22.1h-.03s.01-.05.02-.08l.12-.2s.02-.02.03-.03c.04-.05.06-.1.08-.15.17-.28.34-.55.51-.83.11-.18.22-.35.26-.56.05-.26.13-.51.12-.78.03-.06,0-.13.01-.2v-.18s.01-.05-.01-.06c0-.08,0-.15,0-.23,0,0,0-.02,0-.03-.01-.08,0-.16-.05-.23,0-.02.01-.05-.01-.06-.01-.15-.06-.28-.11-.42-.08-.22-.19-.43-.31-.64-.18-.31-.42-.59-.66-.86-.21-.24-.46-.43-.69-.65,0-.02-.03-.03-.05-.03l-.03-.03s-.05-.05-.08-.08c-.05-.04-.11-.09-.16-.13-.12-.11-.26-.22-.39-.33-.26-.22-.51-.45-.76-.67,0-.02-.02-.04-.05-.05-.03-.03-.06-.07-.1-.1-.24-.21-.45-.45-.66-.7-.18-.21-.33-.44-.46-.68-.17-.3-.3-.62-.37-.96-.01-.06-.02-.13-.03-.2,0-.06-.03-.12-.03-.19,0-.02-.02-.02-.03-.02v-.81s.03,0,.03-.02c.01-.1.02-.19.03-.29.02-.08.03-.17.05-.25.09-.44.23-.86.43-1.27.08-.16.17-.31.25-.46,0,0,.01,0,.01-.02.03-.04.05-.08.08-.12.04-.03.05-.07.08-.11h0s.01,0,.01-.02c.03-.03.05-.07.08-.1.03-.04.06-.07.09-.11.07-.08.14-.16.2-.24,0,0,0-.01.01-.02,0,0,0,0,.01-.01.05-.05.1-.1.14-.16.05-.05.1-.09.14-.15.06-.06.12-.12.17-.17,0,0,0,0,0,0,.05-.03.09-.07.12-.11h0c.07-.06.12-.13.19-.19.14-.13.27-.27.41-.4.01-.01.02-.02.03-.03,0,0,0,0,.01-.01h0s.08-.08.12-.12c.03-.03.07-.06.1-.1.02,0,.03-.02.05-.04h0s.04-.03.05-.05h0s.01-.02.02-.03c.04-.04.08-.08.12-.12q.1,0,.07.09s-.04.05-.04.08c-.02,0-.01.02-.01.03,0,0,0,0,0,.01-.02,0-.01.02-.02.03h0s-.01,0-.01.02c-.07.15-.14.3-.22.44-.16.31-.32.63-.47.95,0,0,0,.01-.01.02-.04.05-.04.11-.06.17,0,.01,0,.02,0,.03,0,0-.01,0,0,.02,0,0,0,.02,0,.03-.04.09-.04.19-.07.28-.02,0-.02.02-.01.03,0,.05-.01.1-.02.15,0,0-.01,0-.01.02,0,.03,0,.05,0,.08,0,.02-.03.04-.02.06,0,0,0,.01,0,.02,0,.02-.02.03-.02.05,0,.04,0,.07,0,.11,0,.04,0,.08-.01.12,0,.14,0,.29,0,.43,0,.05,0,.1,0,.14.02.09,0,.19.03.29,0,.02,0,.03.01.05,0,.02,0,.03,0,.05,0,.03-.01.06.02.09.02.05,0,.11.03.15,0,.04,0,.08.03.12.03.15.07.3.14.44.02.09.06.17.1.25,0,.03.02.05.03.08.01.02.02.04.03.06,0,.01.01.02.02.03,0,.01,0,.01.01.02h0c.04.08.08.16.13.23.01.03.02.06.05.08.03.05.04.1.09.14,0,.02.01.03.03.04,0,.03.03.05.05.08,0,0,0,0,.01.01.01.02.02.05.05.06.05.1.14.18.2.27.02.02.04.04.06.05.05.08.12.15.19.22,0,.03.03.05.05.06l.12.14s.02.03.03.03h0s0,.01.01.02c0,0,0,.01.01.02,0,.01.02.02.03.03h0s0,.01.01.02c0,0,0,.01.01.02,0,.01.02.03.03.03h0s0,.01.01.01c0,0,.01.01.02.02,0,.01.01.03.03.03h0s0,.02.01.01h0s.01.03.03.03c.02.01.03.02.05.04,0,.01.01.03.03.03,0,0,.01.01.02.02,0,.01,0,.01.01.02,0,0,.01,0,.02.01,0,.01.02.02.03.03,0,.01,0,.02.02.02,0,0,0,.01,0,.01.06.05.11.11.17.16,0,0,.01,0,.02.01.01.03.05.04.08.06l.15.14.27.24s.03.05.06.05c.04.04.08.08.12.12.1.1.2.19.3.29h0s0,.01.02.01c.05.05.1.1.15.15.13.13.25.26.38.39,0,0,.01.01.02.02,0,0,0,0,0,.01.03.05.07.09.11.13,0,0,0,0,0,.01,0,.02.02.04.04.05.04.05.07.11.12.15,0,.04.04.06.06.08,0,.02.01.03.03.04.03.06.07.11.11.17,0,0,0,.01.01.02.06.1.11.2.17.31h0c.02.08.07.15.11.23,0,0,0,0,0,.01,0,0,0,.01.01.02,0,.01,0,.03.01.04.05.16.1.33.16.49,0,.05.01.09.03.14,0,0,0,.02,0,.03,0,.05.02.09.03.14.02.09.03.18.05.28,0,.13.02.25.03.38.01.17,0,.33-.03.5,0,.01,0,.02,0,.03,0,.01,0,.02,0,.03,0,.03-.02.06-.02.09,0,.18-.06.35-.09.53,0,.03-.03.04-.01.07,0,.02-.01.03-.02.05,0,0,0,.02,0,.03-.04.11-.07.23-.11.34,0,.02-.03.04-.02.06-.01.02-.02.04-.02.06-.01,0-.01.02-.01.03-.03.07-.07.14-.08.21-.02,0-.01.02-.01.03-.1.19-.19.39-.29.58-.03.05-.06.09-.09.14-.02.04-.05.07-.07.12-.04.03-.05.07-.08.11-.05.07-.1.12-.14.2-.04.04-.08.08-.11.14h0c-.08.07-.14.15-.2.23-.01.01-.02.02-.03.03,0,0-.01,0-.02.01,0,0-.01.01-.02.02-.04.03-.07.07-.1.11,0,0-.02.02-.03.03-.05.03-.1.08-.14.13-.01,0-.02.02-.03.03,0,0-.01.01-.02.02h0s-.04.01-.05.03c-.02.02-.05.04-.07.06-.03.02-.05.04-.08.06-.09.07-.17.13-.26.2-.02,0-.04.01-.05.03,0,0-.01,0-.01,0-.19.12-.39.22-.6.3-.03.01-.07.02-.07.06h-.03s-.02,0-.03,0Z"/>
        <path class="cls-5" d="m19.74,22.27h-.03s.01-.05.02-.08l.11-.2s.02-.02.03-.03c.03-.05.05-.1.08-.15.15-.28.31-.56.46-.83.1-.18.2-.35.23-.56.05-.26.11-.51.11-.78.03-.07,0-.13.01-.2v-.18s.01-.05-.01-.06c0-.08,0-.15,0-.23,0-.01,0-.02,0-.03-.01-.08,0-.16-.04-.23,0-.02.01-.05-.01-.06,0-.15-.06-.28-.1-.42-.07-.23-.17-.43-.28-.64-.17-.32-.38-.59-.6-.86-.19-.24-.42-.43-.63-.65,0-.02-.02-.03-.04-.03l-.03-.03s-.05-.05-.07-.08c-.05-.04-.1-.09-.14-.14-.11-.11-.24-.22-.35-.33-.23-.22-.46-.45-.7-.67,0-.02-.02-.04-.04-.05-.03-.03-.06-.07-.09-.1-.22-.21-.41-.46-.6-.7-.16-.21-.3-.44-.42-.69-.15-.31-.27-.62-.34-.96-.01-.06-.02-.13-.03-.2,0-.06-.03-.12-.03-.19,0-.02-.01-.02-.03-.02v-.82s.03,0,.03-.02c0-.1.02-.19.03-.29.01-.08.03-.17.05-.25.08-.44.21-.87.4-1.27.07-.16.15-.31.23-.46,0,0,.01,0,.01-.02.02-.04.05-.08.07-.12.03-.03.05-.07.07-.11h0s.01,0,0-.02c.02-.03.05-.07.07-.1.03-.04.05-.07.08-.11.06-.08.12-.16.18-.24,0,0,0-.01.01-.02,0,0,0,0,0-.01.04-.05.09-.11.13-.16.05-.05.09-.09.12-.15.05-.06.11-.12.16-.17,0,0,0,0,0,0,.04-.03.08-.07.11-.11h0c.06-.06.11-.13.17-.19.13-.13.24-.27.37-.4,0-.01.02-.02.03-.03,0,0,0,0,.01-.01h0s.08-.08.11-.12c.03-.03.06-.07.1-.1.02,0,.03-.02.04-.04h0s.03-.03.05-.05h0s.01-.02.02-.03c.04-.04.07-.08.11-.12q.1,0,.07.09s-.04.05-.04.08c-.01,0-.01.02-.01.03,0,0,0,0,0,.01-.01,0-.01.02-.01.03h0s-.01,0,0,.02c-.06.15-.13.3-.2.44-.15.31-.29.64-.43.95,0,0,0,.01,0,.02-.03.05-.04.11-.06.17,0,.01,0,.02,0,.03,0,0-.01,0,0,.02,0,0,0,.02,0,.03-.04.09-.04.19-.06.28-.02,0-.01.02-.01.03,0,.05-.01.1-.02.15,0,0-.01,0-.01.02,0,.03,0,.05,0,.08,0,.02-.02.04-.01.06,0,0,0,.01,0,.02,0,.02-.02.03-.01.05,0,.04,0,.07,0,.11,0,.04,0,.08-.01.12,0,.14,0,.29,0,.43,0,.05,0,.1,0,.14.02.1,0,.19.03.29,0,.02,0,.04.01.05,0,.02,0,.03,0,.05,0,.03,0,.07.01.09.02.05,0,.11.03.15,0,.04,0,.08.02.12.03.15.07.3.13.45.02.09.06.17.09.25,0,.03.02.05.03.08,0,.02.02.04.03.06,0,.01,0,.02.01.03,0,.01,0,.01.01.02h0c.03.08.07.16.12.23.01.03.02.06.04.08.02.05.04.11.08.14,0,.02.01.03.03.04,0,.03.03.05.04.08,0,0,0,0,.01.01.01.02.02.05.04.06.05.1.12.18.18.27.02.02.04.04.05.06.05.08.11.15.18.22,0,.03.02.05.05.06l.11.14s.01.03.03.03h0s0,.01.01.02c0,0,0,.01.01.02,0,.01.01.03.03.03h0s0,.01.01.02c0,0,0,.01.01.02,0,.01.01.03.03.03h0s0,.01.01.02c0,0,0,.01.01.02,0,.02.01.03.03.03h0s0,.02.01.01h0s.01.03.02.03c.01.01.03.02.04.04,0,.01.01.03.03.03,0,0,.01.01.02.02,0,.01,0,.01.01.02,0,0,0,0,.01.01,0,.01.01.02.03.03,0,.01,0,.02.02.02,0,0,0,.01,0,.01.05.05.1.11.15.16,0,0,0,0,.01.01.01.03.05.04.07.06l.14.14.25.24s.03.05.06.05c.04.04.07.08.11.12.09.1.19.19.28.29h0s0,.01.01.01c.05.05.09.1.14.15.12.13.23.26.35.39,0,0,.01.01.02.02,0,0,0,0,0,.01.02.05.06.09.1.13,0,0,0,0,0,.01,0,.02.02.04.04.05.03.05.06.11.11.15,0,.04.03.06.06.08,0,.02.01.03.03.04.02.06.06.12.1.17,0,0,0,.01.01.02.05.1.1.2.16.31h0c.02.08.06.16.1.23,0,0,0,0,0,.01,0,0,0,.01,0,.02,0,.01,0,.03.01.04.05.16.1.33.14.49,0,.05,0,.1.03.14,0,0,0,.02,0,.03,0,.05.02.09.02.14.01.09.03.19.04.28,0,.13.01.25.02.38.01.17,0,.33-.02.5,0,.01,0,.02,0,.03,0,.01,0,.02,0,.03,0,.03-.02.06-.02.09,0,.18-.05.36-.08.53,0,.03-.02.04-.01.07,0,.02,0,.03-.01.05,0,0,0,.02,0,.03-.03.11-.07.23-.1.34,0,.02-.02.04-.01.06-.01.02-.02.04-.02.06-.01,0-.01.02-.01.03-.03.07-.06.14-.07.21-.01,0-.01.02-.01.03-.09.19-.18.39-.27.58-.03.05-.05.09-.08.14-.02.04-.05.07-.06.12-.04.03-.05.07-.07.11-.04.07-.09.12-.12.2-.04.04-.08.09-.1.14h0c-.07.07-.12.15-.18.23,0,.01-.02.02-.03.03,0,0,0,0-.01.01,0,0,0,.01-.01.02-.04.03-.06.07-.09.11,0,0-.02.02-.02.03-.05.03-.09.08-.12.13,0,0-.02.02-.03.03,0,0-.01.01-.02.02h0s-.03.01-.04.03c-.02.02-.04.04-.07.06-.02.02-.05.04-.07.06-.08.07-.16.13-.24.2-.02,0-.03.01-.04.03,0,0-.01,0-.01,0-.17.12-.36.22-.55.31-.03.01-.07.02-.06.06h-.03s-.02,0-.03,0Z"/>
      </g>
      <path class="cls-3" d="m33.76,26.95c-.09.44-.23.92-.36,1.35-2.73,4.95-20.93,5.03-24.06.2-.16-.46-.31-.95-.41-1.43.48.49,3.37,3.18,12.28,3.18,9.63,0,12.47-3.2,12.55-3.3Z"/>
      <path class="cls-1" d="m32.84,37.44c0,2.2-5.24,3.99-11.7,3.99s-11.7-1.79-11.7-3.99c0-1.02,1.13-1.96,2.99-2.67.03,2.19,3.91,3.97,8.7,3.97s8.68-1.78,8.71-3.97c1.86.71,2.99,1.64,2.99,2.67Z"/>
      <path class="cls-3" d="m31.95,36.94c0,.42-.22.82-.64,1.19-1.49,1.35-5.43,2.31-10.06,2.31s-8.93-1.05-10.25-2.49c-.29-.32-.45-.66-.45-1.01,0-.41.21-.79.6-1.15.2.01.37.21.48.5-.07.14-.11.28-.11.43,0,.19.06.37.18.54.87,1.28,4.73,2.23,9.36,2.23s8.69-1.01,9.42-2.33c.08-.15.12-.29.12-.45,0-.07,0-.14-.03-.21.12-.32.35-.55.62-.58.15-.02.28.03.4.12.23.28.35.58.35.89Z"/>
    </g>
  </g>
</svg>