<?xml version="1.0" encoding="UTF-8"?>
<svg id="Camada_8" data-name="Camada 8" xmlns="http://www.w3.org/2000/svg" viewBox="0 0 595.28 841.89">
  <defs>
    <style>
      .cls-1 {
        letter-spacing: -.02em;
      }

      .cls-2, .cls-3 {
        fill: #442815;
      }

      .cls-4 {
        fill: #654128;
      }

      .cls-5 {
        letter-spacing: -.02em;
      }

      .cls-6 {
        stroke: #d49e38;
        stroke-miterlimit: 10;
        stroke-width: 2px;
      }

      .cls-6, .cls-7 {
        fill: #d2a554;
      }

      .cls-8 {
        letter-spacing: -.02em;
      }

      .cls-9 {
        fill: #4b2c18;
      }

      .cls-3 {
        font-family: PlayfairDisplay-Regular, 'Playfair Display';
        font-size: 58.61px;
        font-variation-settings: 'wght' 400;
      }

      .cls-10 {
        fill: #90613c;
      }

      .cls-11 {
        letter-spacing: -.01em;
      }
    </style>
  </defs>
  <g id="logo_a4">
    <text class="cls-3" transform="translate(283.06 148.67)"><tspan x="0" y="0">Laur</tspan><tspan class="cls-11" x="123.78" y="0">a</tspan><tspan class="cls-8" x="152.27" y="0"> </tspan><tspan class="cls-5" x="165.92" y="0">’</tspan><tspan x="179.11" y="0" xml:space="preserve"> s </tspan><tspan x="64.35" y="52.5">ca</tspan><tspan class="cls-1" x="122.02" y="52.5">f</tspan><tspan x="140.49" y="52.5">é</tspan></text>
    <line class="cls-6" x1="279.28" y1="183.55" x2="342.53" y2="183.55"/>
    <line class="cls-6" x1="463.82" y1="183.55" x2="527.07" y2="183.55"/>
    <g id="Logo">
      <g id="pe_de_cafe">
        <path id="folha1" class="cls-7" d="m255.33,84.85s-29.37.41-29.48,32.34c0,0,12.8,2.61,30.35-15.29,17.55-17.9,12.04-18,12.04-18"/>
        <path id="folha_3" data-name="folha 3" class="cls-7" d="m236.52,163.7s9.93,5.8,15.76,6.28c15.4,1.26,18.08-7.19,20.73-15.32,2.75-9.43-8.16-20.87-12.95-27.18,0,0,2.3,13.61-6.69,25.2-8.98,11.59-16.86,11.01-16.86,11.01Z"/>
        <path id="folha_2" data-name="folha 2" class="cls-7" d="m261.05,187.05s8.93.12,6.57,12.58c0,0-12.61-4.66-6.57-12.58Z"/>
        <g id="galho">
          <g id="galho-2" data-name="galho">
            <path class="cls-2" d="m225.57,125.86c-1.6,6.91-1.12,14.04-1.87,21.07-.74,6.84-2.23,12.56-4.26,17.33-.37.88-.76,1.71-1.16,2.52-.46.93-.95,1.81-1.45,2.66-.26.46-.52.89-.81,1.32,0,.01-.02.02-.03.03-.57.9-1.16,1.74-1.76,2.54-1.19,1.57-2.44,2.97-3.75,4.22-12.75,12.3-29.81,10.56-29.81,10.56l-.2-.82c-.38-.33,20.75,1.22,32.84-17.65.57-.87,1.1-1.79,1.62-2.76,3.48-6.47,5.94-15.01,6.49-26.31,2.33-48.71,33.44-48.65,34.19-48.64-17.38,4.84-26.43,18.31-30.05,33.94Z"/>
            <path class="cls-2" d="m236.71,164.77c-6.91-.93-12.02-.02-15.78,2.01-1.4.74-2.61,1.63-3.65,2.63-.44.42-.86.87-1.25,1.34,0,.01-.02.02-.03.03-.67.79-1.25,1.65-1.76,2.54-1.19,1.57-2.44,2.97-3.75,4.22.61-2.8,1.64-5.55,3.24-7.94.66-.99,1.41-1.94,2.29-2.79.99-.97,2.12-1.83,3.43-2.57,3.16-1.78,7.28-2.75,12.65-2.47,4.63.23,9.5,1.64,13.91,1.08,9.99-1.32,17.75-8,18.51-23.68.15.91,4.5,29.94-27.8,25.58Z"/>
            <path class="cls-2" d="m264.91,196.11c-6.32-16.82-20.41-24.48-36.12-26.54-3.83-.5-7.66-.37-11.52-.15-.15,0-.3.02-.45.02-1.03.06-2.07.12-3.11.17-.14,0-.27.02-.4.02.57-.87,1.1-1.79,1.62-2.76.37-.02.73-.04,1.08-.04.77-.03,1.53-.06,2.27-.05.91-.02,1.78-.02,2.65,0t.02,0c41.97.71,43.97,29.33,43.97,29.33Z"/>
          </g>
          <path class="cls-2" d="m232.2,108.26s2.16.28,6.6-3.52c0,0-4.61,5.14-6.4,6.04s-2.06.78-2.06.78l1.87-3.31Z"/>
          <path class="cls-2" d="m244.97,95.21s-.32-2.16,3.41-6.65c0,0-5.07,4.69-5.94,6.49s-.75,2.07-.75,2.07l3.28-1.92Z"/>
          <path class="cls-2" d="m251.67,161.39s2.31-1.98.83-2.66c0,0,2.43-1.57,1.57,1.61-.87,3.18-1.64,2.2-1.64,2.2l-.76-1.15Z"/>
          <path class="cls-2" d="m257.48,160.39s5.41-.92,5.41.63c0,0,4.79-1.22-1.57-2.07-6.35-.85-5.25.26-5.25.26l1.42,1.18Z"/>
          <path class="cls-2" d="m261.61,187.68s1.32,1.6,2.1,1.26.85,1.74.85,1.74c0,0-.35-1.76-.92-1.31-.29.22-1.11-.3-1.11-.3,0,0-1.08-.94-1.01-1.29.56-2.87.11-.1.11-.1Z"/>
          <path class="cls-2" d="m263.35,190.91s-.24,2.06-1.08,2.2.23,1.93.23,1.93c0,0-.66-1.67.07-1.6.36.03.78-.85.78-.85,0,0,.4-1.37.15-1.64-2.03-2.11-.14-.03-.14-.03Z"/>
        </g>
      </g>
      <path id="alca_xicara" class="cls-2" d="m98.96,150.34c.06.21.03.44-.07.67-.19.23-.4.48-.63.76-.09.09-.17.19-.24.28-4.35,5.17-10.82,8.36-17.95,9.03-10.45.99-17.44-3.09-20.99-9.08-1.7-3.02-2.62-6.46-2.67-10.04-.06-3.56.75-7.25,2.36-10.59,2.89-5.92,8.53-10.89,16.48-12.55,1.53-.3,3.08-.49,4.3-.59,3.38,0,5.95.88,7.75,2.31l.78.91c1.22,1.24,1.8,2.77,2.05,4.38.22,1.51.09,2.99-.41,4.47-.75,2.55-2,3.89-3.22,4.67-1.11.52-2.12.78-3.04.69-.91-.09-1.53-.38-2.02-.91-.75-.81-1.11-2.17.03-3.93.22-.51.64-.96,1.16-1.66,1.5-1.74,3.25-3.88,1.47-5.87-.06-.21-.28-.38-.5-.54-1.17-1.03-2.92-1.58-5.03-1.46-.73-.04-1.76.13-2.79.29-2.5.67-6.81,5.51-7.91,9.39-.86,3.47-1.02,7.54-.7,11.49.53,4-.15,6.13,3.28,10.99,1.97,2.65,7.81,4.97,11.43,4.45,4.98-.76,9.21-3.29,12.62-6.94l.09-.09c.32-.35.59-.64.82-.9.27-.18.6-.32.95-.42,1.23-.33,2.38.03,2.59.79Z"/>
      <path class="cls-10" d="m161.93,97.81h0c0,.56.43,1.02.99,1.05,22.08,1.47,38.59,7.36,38.59,14.4,0,8.13-22.11,14.73-49.37,14.73-27.27,0-49.37-6.61-49.37-14.75,0-6.92,15.95-12.72,37.45-14.31.55-.04.98-.5.98-1.05h0c0-.61-.52-1.1-1.13-1.06-27.94,1.76-48.98,9.56-48.98,18.92,0,10.66,27.33,19.31,61.05,19.31,33.71,0,61.05-8.64,61.05-19.3,0-9.5-21.63-17.38-50.13-19.02-.6-.03-1.12.45-1.12,1.06Z"/>
      <ellipse class="cls-4" cx="152.2" cy="115.95" rx="36.78" ry="8.92"/>
      <ellipse class="cls-4" cx="152.2" cy="115.95" rx="30.5" ry="7.4"/>
      <path class="cls-4" d="m187.38,116.03c0,.87-.73,1.7-2.09,2.47-4.87,2.8-17.77,4.8-32.89,4.8s-29.2-2.19-33.52-5.18c-.95-.66-1.47-1.37-1.47-2.09,0-.84.68-1.65,1.95-2.39.65.02,1.22.43,1.56,1.04-.24.29-.37.59-.37.89,0,.39.21.77.6,1.12,2.83,2.65,15.47,4.64,30.61,4.64s28.4-2.09,30.81-4.84c.27-.31.4-.61.4-.93,0-.15-.02-.29-.1-.43.39-.66,1.15-1.14,2.04-1.2.48-.04.93.06,1.32.24.74.59,1.14,1.21,1.14,1.84Z"/>
      <path class="cls-9" d="m213.18,115.65c0,33.71-27.34,61.05-61.05,61.05s-61.05-27.34-61.05-61.05c0,0,13.17,16.19,61.05,16.19s61.06-16.19,61.06-16.19Z"/>
      <g id="fumaca">
        <path class="cls-2" d="m146.17,105.12h-.15c.03-.12.05-.24.08-.36l.58-.94c.05-.06.09-.11.14-.17.17-.22.26-.48.41-.72.81-1.33,1.63-2.65,2.45-3.98.52-.84,1.04-1.67,1.24-2.68.25-1.24.6-2.46.6-3.74.14-.31.05-.64.06-.96v-.88c0-.1.06-.22-.06-.3,0-.37-.01-.73-.02-1.1,0-.05,0-.1,0-.14-.07-.37-.05-.76-.22-1.11,0-.11.07-.22-.06-.3-.05-.7-.31-1.35-.53-2-.36-1.08-.9-2.08-1.47-3.06-.89-1.51-2.02-2.83-3.17-4.14-1.01-1.14-2.21-2.07-3.32-3.1-.04-.09-.13-.13-.22-.15l-.14-.14c-.13-.13-.26-.26-.38-.39-.25-.22-.51-.42-.75-.65-.6-.55-1.24-1.04-1.86-1.56-1.23-1.06-2.45-2.14-3.67-3.21-.04-.11-.12-.18-.22-.23-.15-.16-.3-.32-.46-.47-1.17-1.01-2.18-2.18-3.16-3.36-.84-1.01-1.57-2.12-2.22-3.28-.8-1.46-1.42-2.98-1.77-4.61-.07-.31-.11-.62-.14-.94-.02-.28-.15-.59-.16-.9,0-.1-.08-.11-.15-.11v-3.9c.06-.01.13,0,.14-.08.05-.46.09-.93.14-1.39.08-.4.16-.8.24-1.19.44-2.12,1.12-4.15,2.09-6.08.38-.75.8-1.47,1.21-2.21.04-.01.07-.03.06-.08.13-.19.25-.39.38-.58.18-.13.24-.35.38-.51h0s.06-.04.05-.08c.13-.17.26-.33.39-.5.14-.18.28-.35.41-.53.33-.39.65-.78.98-1.17.02-.03.05-.06.07-.08.02-.02.03-.03.05-.05.23-.25.46-.5.69-.76.25-.22.49-.44.65-.73.28-.28.56-.55.83-.83.02,0,.03,0,.03-.03.22-.16.44-.32.6-.55h0c.32-.28.59-.6.89-.89.67-.62,1.28-1.3,1.96-1.91.05-.05.1-.1.15-.15.02-.02.05-.05.07-.07h0c.2-.2.4-.39.6-.58.17-.16.33-.31.5-.47.1-.04.17-.11.22-.2h0c.09-.08.17-.17.26-.25h0s.07-.08.1-.12c.2-.19.4-.39.59-.58q.5-.02.35.43c-.05.14-.2.22-.21.38-.07.02-.05.08-.05.13-.02.02-.03.04-.03.06-.08.03-.06.1-.08.16h0s-.07.03-.05.07c-.32.72-.69,1.42-1.05,2.12-.79,1.5-1.51,3.04-2.27,4.56-.02.03-.03.06-.05.09-.18.24-.21.54-.3.81,0,.05-.01.1-.02.14-.04.01-.07.03-.05.08,0,.05,0,.09,0,.14-.21.42-.19.89-.32,1.33-.08.02-.07.08-.06.15-.03.24-.06.49-.09.73-.04,0-.07.03-.06.08,0,.12,0,.25,0,.37,0,.11-.13.18-.08.29,0,.03,0,.05,0,.08-.03.07-.12.12-.08.22,0,.17-.01.34-.02.51-.04.19.03.4-.05.59,0,.69,0,1.37,0,2.06,0,.23-.05.47,0,.69.1.45,0,.93.14,1.37,0,.08-.04.17.06.22,0,.07,0,.15.01.22,0,.15-.05.31.07.44.11.23.01.51.14.74-.01.21.05.4.13.59.16.73.36,1.45.68,2.13.11.42.3.8.49,1.18,0,.14.1.25.16.37.05.1.1.2.15.29.03.05.05.1.08.15-.01.05.02.07.05.08h0c.18.38.38.76.65,1.1.06.14.09.29.23.37.13.23.2.5.44.66-.01.11.07.16.14.21.01.16.17.24.23.37.02.02.05.05.07.07.07.1.09.24.23.29.26.47.65.85.96,1.28.09.09.19.18.28.26.25.4.6.71.93,1.04.02.14.13.22.24.29l.59.65c.03.07.07.12.15.15h0s.05.05.07.08c.02.02.05.05.07.07.03.07.08.12.15.14h0s.05.05.07.07c.02.02.05.05.07.07.03.07.08.12.15.14h0s.05.05.07.07c.03.03.05.05.08.08.02.07.07.12.15.13h0c0,.06.01.08.06.07h.02c0,.09.06.13.13.15.07.06.14.12.22.18.03.06.07.13.15.13.03.03.06.06.09.09-.01.05.02.07.06.08.02.02.05.05.07.07.03.07.08.12.15.14,0,.05.04.08.09.08-.01.04,0,.06.05.06.27.25.54.51.81.76.03.02.05.05.08.07.07.16.24.21.36.31l.73.66,1.31,1.17c.08.11.15.22.3.24.2.19.39.39.59.58.49.46.98.93,1.46,1.39h0s.03.07.08.06c.24.24.49.47.73.71.61.62,1.22,1.25,1.83,1.88.03.03.06.06.08.09,0,.03,0,.05.04.05.13.25.33.43.53.6,0,.02,0,.04.02.06.03.11.11.18.21.22.18.25.33.53.58.74.02.19.18.27.29.38,0,.11.07.16.14.2.13.3.33.55.52.81.02.02.04.05.06.07.27.49.55.98.82,1.47h0c.11.39.32.74.51,1.1,0,.02.02.05.03.07.02.03.03.06.05.09.02.07-.02.16.07.21.25.78.5,1.57.75,2.35.04.22.05.46.16.67,0,.05,0,.09,0,.14.04.22.09.44.13.66.08.44.15.89.23,1.33-.03.61.08,1.2.13,1.8.06.8-.04,1.6-.12,2.39,0,.05,0,.1,0,.15,0,.05,0,.1,0,.15-.03.14-.08.28-.09.42-.03.87-.26,1.7-.42,2.55,0,.12-.12.21-.07.35-.03.07-.05.15-.08.22,0,.05,0,.09,0,.14-.17.54-.35,1.08-.52,1.62.02.11-.13.17-.07.29-.06.09-.09.18-.09.29-.07.03-.06.09-.05.15-.15.33-.31.66-.39,1.03-.08.03-.06.1-.07.15-.47.93-.93,1.86-1.4,2.79-.14.22-.28.44-.42.66-.1.19-.26.35-.32.57-.19.13-.25.35-.37.53-.22.31-.5.59-.66.95-.2.2-.4.41-.52.67h0c-.36.33-.66.71-.95,1.11-.05.05-.1.1-.15.15-.03.02-.05.04-.08.07-.02.02-.05.05-.07.07-.2.13-.31.34-.47.52-.04.04-.08.09-.12.13-.26.16-.47.36-.65.61-.05.05-.1.09-.15.14-.03.03-.06.05-.09.08h0c-.11,0-.18.06-.22.15-.12.1-.24.2-.35.3-.12.09-.25.19-.37.28-.42.32-.83.64-1.25.95-.11,0-.17.06-.22.15-.02,0-.05,0-.07,0-.91.58-1.88,1.05-2.88,1.46-.14.06-.34.07-.34.31h-.15c-.05-.17-.1-.03-.15,0Z"/>
        <path class="cls-7" d="m144.49,105.94h-.13c.02-.12.05-.24.07-.37l.53-.94c.04-.06.09-.11.13-.17.16-.22.24-.49.37-.72.74-1.34,1.48-2.67,2.23-3.99.47-.84.94-1.68,1.13-2.69.23-1.25.55-2.47.54-3.76.13-.31.04-.64.05-.96v-.89c0-.1.06-.22-.06-.3,0-.37,0-.73-.01-1.1,0-.05,0-.1,0-.14-.06-.37-.04-.76-.2-1.11,0-.11.06-.22-.05-.3-.05-.7-.28-1.35-.48-2-.33-1.08-.82-2.09-1.34-3.07-.81-1.52-1.84-2.84-2.89-4.15-.92-1.15-2.01-2.08-3.02-3.11-.04-.09-.11-.13-.2-.15l-.13-.14c-.12-.13-.23-.26-.35-.39-.23-.22-.46-.42-.69-.65-.54-.55-1.13-1.04-1.69-1.57-1.12-1.06-2.23-2.15-3.34-3.23-.04-.11-.11-.18-.2-.23-.14-.16-.27-.32-.42-.47-1.07-1.01-1.98-2.19-2.88-3.38-.77-1.02-1.43-2.13-2.02-3.3-.73-1.47-1.29-3-1.61-4.63-.06-.31-.1-.62-.12-.94-.02-.28-.13-.59-.15-.9,0-.11-.07-.11-.14-.11v-3.92c.05-.01.12,0,.13-.08.04-.47.08-.93.13-1.4.07-.4.14-.8.22-1.2.4-2.12,1.02-4.17,1.9-6.1.34-.75.73-1.48,1.1-2.22.03-.01.06-.03.05-.08.12-.2.23-.39.35-.59.16-.13.22-.35.34-.51h0s.06-.04.05-.08c.12-.17.23-.33.35-.5.13-.18.25-.36.38-.53.3-.39.59-.78.89-1.17.02-.03.04-.06.07-.09.02-.02.03-.03.05-.05.21-.25.42-.51.62-.76.22-.22.44-.44.6-.73.25-.28.51-.55.76-.83.02,0,.03,0,.03-.03.2-.16.4-.32.54-.55h0c.29-.28.54-.61.81-.89.61-.63,1.16-1.31,1.78-1.92.05-.05.09-.1.14-.15.02-.02.04-.05.06-.07h0c.18-.2.36-.39.54-.59.15-.16.3-.31.46-.47.09-.04.15-.11.2-.2h0c.08-.08.16-.17.23-.25h0s.06-.08.09-.12c.18-.19.36-.39.54-.58q.46-.02.32.43c-.04.14-.19.22-.19.38-.07.02-.05.08-.05.13-.02.02-.03.04-.03.06-.07.03-.06.1-.07.16h0s-.06.03-.05.07c-.29.72-.62,1.43-.96,2.13-.72,1.51-1.38,3.05-2.06,4.58-.02.03-.03.06-.05.09-.16.24-.19.54-.27.82,0,.05-.01.1-.02.15-.04.01-.06.03-.04.08,0,.05,0,.09,0,.14-.19.42-.17.9-.29,1.33-.08.02-.07.09-.05.15-.03.24-.05.49-.08.73-.04,0-.06.03-.05.08,0,.12,0,.25,0,.37,0,.11-.11.18-.07.3,0,.03,0,.05,0,.08-.02.07-.11.12-.07.22,0,.17-.01.34-.02.51-.04.2.03.4-.05.59,0,.69,0,1.38,0,2.07,0,.23-.04.47,0,.7.09.46,0,.93.13,1.38,0,.08-.04.17.05.22,0,.07,0,.15.01.22,0,.15-.05.31.07.44.1.23.01.51.13.74-.01.21.04.4.12.59.15.73.32,1.46.62,2.14.1.42.27.8.45,1.18,0,.14.09.25.15.37.04.1.09.2.13.3.02.05.05.1.07.15-.01.05.01.07.05.08h0c.17.39.35.77.59,1.11.05.14.09.29.21.38.12.23.18.5.4.67-.01.11.06.16.13.21.01.16.15.24.21.37.02.02.04.05.06.07.06.1.08.24.21.29.24.47.59.85.88,1.29.09.09.17.18.26.26.23.4.55.71.85,1.04.02.15.12.22.22.3l.54.66c.02.07.07.12.13.15h0s.04.05.07.08c.02.02.04.05.06.07.03.07.07.12.14.15,0,0,0,0,0,0,.02.02.04.05.07.07.02.02.04.05.07.07.03.07.07.12.14.14h0s.04.05.06.07c.02.03.05.05.07.08.02.07.06.12.13.14h0c0,.06.01.08.06.07h.01c0,.09.05.13.12.15.07.06.13.12.2.18.03.06.06.13.14.13.03.03.05.06.08.09-.01.05.02.07.05.08.02.02.04.05.07.07.03.07.07.12.14.14,0,.05.04.08.09.08-.01.04,0,.06.04.06.24.25.49.51.73.76.02.02.05.05.07.07.06.16.22.21.33.31l.67.66,1.19,1.17c.07.11.14.22.27.24.18.19.36.39.54.58.44.47.89.93,1.33,1.4h0s.03.07.07.06c.22.24.45.47.67.71.56.62,1.11,1.25,1.67,1.88.03.03.05.06.08.09,0,.03,0,.05.03.05.11.25.3.43.49.61,0,.02,0,.04.02.06.03.11.1.18.19.22.17.26.3.54.53.74.02.19.17.27.27.39,0,.11.06.16.13.21.12.3.3.55.47.81.02.02.04.05.05.07.25.49.5.98.75,1.48h0c.1.39.29.75.46,1.11,0,.02.02.05.03.07.01.03.03.06.04.09.01.07-.02.16.06.21.23.79.46,1.57.69,2.36.04.23.05.46.14.67,0,.05,0,.09,0,.14.04.22.08.44.12.66.07.45.14.89.21,1.34-.02.61.07,1.21.12,1.81.06.8-.03,1.6-.11,2.4,0,.05,0,.1,0,.15,0,.05,0,.1,0,.15-.03.14-.07.28-.08.42-.03.87-.24,1.71-.38,2.56,0,.12-.11.22-.06.35-.02.07-.05.15-.07.22,0,.05,0,.09,0,.14-.16.54-.32,1.09-.47,1.63.02.11-.12.18-.07.29-.06.09-.08.18-.08.29-.06.03-.06.09-.05.15-.14.34-.29.67-.35,1.03-.07.03-.06.1-.06.15-.42.94-.85,1.87-1.27,2.81-.13.22-.25.45-.38.67-.09.19-.23.36-.29.57-.18.13-.23.35-.33.53-.2.32-.45.59-.6.95-.18.21-.36.41-.47.67h0c-.33.33-.6.72-.86,1.11-.04.05-.09.1-.13.15-.02.02-.05.04-.07.07-.02.02-.04.05-.07.07-.18.13-.29.35-.42.52-.04.04-.08.09-.11.13-.24.16-.43.37-.59.61-.05.05-.09.09-.14.14-.03.03-.05.05-.08.08h0c-.1,0-.16.06-.2.15-.11.1-.21.2-.32.3-.11.09-.22.19-.33.28-.38.32-.76.64-1.13.96-.1,0-.16.06-.2.15-.02,0-.05,0-.07,0-.83.58-1.71,1.06-2.62,1.47-.13.06-.31.07-.31.31h-.13c-.04-.17-.09-.03-.13,0Z"/>
      </g>
      <path class="cls-9" d="m211.8,128.41c-.43,2.12-1.08,4.43-1.74,6.47-13.11,23.76-100.51,24.14-115.53.98-.74-2.21-1.47-4.57-1.96-6.89,2.28,2.33,16.2,15.27,58.96,15.27,46.27,0,59.87-15.36,60.27-15.83Z"/>
      <path class="cls-2" d="m207.36,178.81c0,10.59-25.15,19.17-56.18,19.17s-56.17-8.59-56.17-19.17c0-4.92,5.44-9.42,14.38-12.81.12,10.54,18.79,19.07,41.8,19.07s41.68-8.53,41.8-19.07c8.94,3.39,14.38,7.88,14.38,12.81Z"/>
      <path class="cls-9" d="m203.09,176.38c0,2-1.08,3.92-3.07,5.7-7.16,6.46-26.1,11.09-48.32,11.09s-42.88-5.05-49.23-11.97c-1.4-1.52-2.15-3.16-2.15-4.83,0-1.95,1-3.81,2.87-5.53.95.06,1.79.99,2.3,2.4-.36.68-.54,1.35-.54,2.06,0,.9.3,1.78.88,2.6,4.16,6.13,22.72,10.73,44.96,10.73s41.72-4.83,45.25-11.18c.39-.71.59-1.41.59-2.15,0-.34-.04-.68-.14-.99.57-1.52,1.69-2.63,3-2.77.7-.08,1.36.14,1.94.56,1.09,1.36,1.67,2.79,1.67,4.26Z"/>
    </g>
  </g>
</svg>