<?xml version="1.0" encoding="UTF-8"?>
<svg id="Camada_8" data-name="Camada 8" xmlns="http://www.w3.org/2000/svg" viewBox="0 0 1125 1125">
  <defs>
    <style>
      .cls-1, .cls-2 {
        fill: #442815;
      }

      .cls-3 {
        letter-spacing: -.02em;
      }

      .cls-4 {
        fill: #654128;
      }

      .cls-5 {
        stroke: #d49e38;
        stroke-miterlimit: 10;
        stroke-width: 2px;
      }

      .cls-5, .cls-6 {
        fill: #d2a554;
      }

      .cls-7 {
        letter-spacing: 0em;
      }

      .cls-2 {
        font-family: PlayfairDisplay-Regular, 'Playfair Display';
        font-size: 121.24px;
        font-variation-settings: 'wght' 400;
      }

      .cls-8 {
        fill: #4b2c18;
      }

      .cls-9 {
        fill: #90613c;
      }

      .cls-10 {
        letter-spacing: -.02em;
      }

      .cls-11 {
        letter-spacing: -.01em;
      }

      .cls-12 {
        letter-spacing: -.02em;
      }
    </style>
  </defs>
  <g id="logo_imressao_leve">
    <text class="cls-2" transform="translate(544.56 617.46)"><tspan x="0" y="0">Laur</tspan><tspan class="cls-11" x="256.06" y="0">a</tspan><tspan class="cls-12" x="314.99" y="0"> </tspan><tspan class="cls-3" x="343.24" y="0">’</tspan><tspan class="cls-7" x="370.52" y="0" xml:space="preserve"> s </tspan><tspan x="133.12" y="108.61">ca</tspan><tspan class="cls-10" x="252.42" y="108.61">f</tspan><tspan x="290.61" y="108.61">é</tspan></text>
    <line class="cls-5" x1="536.74" y1="689.64" x2="667.59" y2="689.64"/>
    <line class="cls-5" x1="918.48" y1="689.64" x2="1049.32" y2="689.64"/>
    <g id="Logo">
      <g id="pe_de_cafe">
        <path id="folha1" class="cls-6" d="m487.2,485.46s-60.75.85-60.98,66.89c0,0,26.48,5.41,62.79-31.62,36.31-37.03,24.9-37.24,24.9-37.24"/>
        <path id="folha_3" data-name="folha 3" class="cls-6" d="m448.29,648.56s20.54,12,32.61,12.99c31.86,2.61,37.41-14.87,42.89-31.68,5.69-19.5-16.88-43.17-26.78-56.23,0,0,4.75,28.16-13.83,52.14-18.58,23.98-34.89,22.79-34.89,22.79Z"/>
        <path id="folha_2" data-name="folha 2" class="cls-6" d="m499.02,696.86s18.47.24,13.59,26.03c0,0-26.09-9.63-13.59-26.03Z"/>
        <g id="galho">
          <g id="galho-2" data-name="galho">
            <path class="cls-1" d="m425.62,570.28c-3.31,14.29-2.32,29.04-3.87,43.6-1.53,14.16-4.62,25.98-8.8,35.84-.77,1.82-1.57,3.53-2.39,5.22-.95,1.93-1.96,3.75-3,5.5-.54.95-1.08,1.85-1.67,2.72,0,.02-.04.04-.05.06-1.17,1.86-2.39,3.6-3.64,5.26-2.46,3.24-5.06,6.15-7.76,8.73-26.38,25.45-61.67,21.84-61.67,21.84l-.4-1.71c-.78-.69,42.93,2.52,67.94-36.52,1.17-1.81,2.27-3.7,3.34-5.72,7.2-13.38,12.29-31.06,13.43-54.43,4.83-100.75,69.17-100.64,70.72-100.61-35.96,10.01-54.66,37.87-62.15,70.21Z"/>
            <path class="cls-1" d="m448.68,650.78c-14.3-1.91-24.87-.04-32.65,4.17-2.89,1.52-5.4,3.37-7.56,5.45-.92.87-1.77,1.8-2.59,2.77,0,.02-.04.04-.05.06-1.38,1.64-2.59,3.41-3.64,5.26-2.46,3.24-5.06,6.15-7.76,8.73,1.27-5.8,3.39-11.48,6.7-16.42,1.36-2.06,2.92-4,4.73-5.76,2.05-2.01,4.39-3.79,7.09-5.32,6.54-3.68,15.06-5.69,26.17-5.12,9.58.48,19.65,3.4,28.77,2.23,20.66-2.72,36.71-16.54,38.3-48.99.3,1.88,9.31,61.93-57.5,52.93Z"/>
            <path class="cls-1" d="m507.02,715.6c-13.08-34.79-42.22-50.63-74.72-54.9-7.92-1.04-15.85-.76-23.83-.31-.31,0-.62.04-.92.05-2.13.12-4.27.25-6.43.36-.28.02-.56.04-.84.03,1.17-1.81,2.27-3.7,3.34-5.72.76-.04,1.51-.08,2.23-.08,1.59-.07,3.17-.12,4.7-.1,1.88-.03,3.69-.04,5.48,0t.03-.01c86.82,1.48,90.95,60.67,90.95,60.67Z"/>
          </g>
          <path class="cls-1" d="m439.36,533.87s4.48.58,13.65-7.27c0,0-9.53,10.64-13.24,12.49s-4.27,1.62-4.27,1.62l3.86-6.84Z"/>
          <path class="cls-1" d="m465.76,506.88s-.65-4.47,7.06-13.76c0,0-10.49,9.69-12.29,13.43-1.8,3.74-1.56,4.29-1.56,4.29l6.78-3.96Z"/>
          <path class="cls-1" d="m479.62,643.78s4.78-4.09,1.71-5.51c0,0,5.03-3.25,3.24,3.32-1.79,6.57-3.39,4.56-3.39,4.56l-1.57-2.37Z"/>
          <path class="cls-1" d="m491.65,641.71s11.18-1.9,11.19,1.3c0,0,9.9-2.52-3.24-4.28-13.14-1.75-10.87.54-10.87.54l2.93,2.44Z"/>
          <path class="cls-1" d="m500.18,698.17s2.72,3.31,4.33,2.61c1.61-.7,1.76,3.6,1.76,3.6,0,0-.72-3.64-1.91-2.71-.6.46-2.31-.62-2.31-.62,0,0-2.24-1.94-2.1-2.68,1.16-5.94.22-.21.22-.21Z"/>
          <path class="cls-1" d="m503.78,704.84s-.5,4.26-2.23,4.54.47,3.98.47,3.98c0,0-1.37-3.45.14-3.32.75.07,1.6-1.77,1.6-1.77,0,0,.83-2.84.31-3.39-4.19-4.36-.29-.06-.29-.06Z"/>
        </g>
      </g>
      <path id="alca_xicara" class="cls-1" d="m163.73,620.93c.12.44.06.92-.15,1.38-.39.48-.83.99-1.31,1.58-.18.2-.34.39-.5.58-9,10.68-22.37,17.29-37.14,18.68-21.62,2.05-36.07-6.39-43.42-18.79-3.52-6.24-5.41-13.37-5.53-20.76-.13-7.37,1.55-15,4.89-21.91,5.97-12.24,17.64-22.52,34.1-25.97,3.16-.61,6.37-1.01,8.9-1.22,7-.01,12.3,1.82,16.04,4.78l1.62,1.88c2.51,2.57,3.72,5.73,4.24,9.06.46,3.12.18,6.19-.86,9.26-1.55,5.28-4.13,8.05-6.66,9.65-2.3,1.07-4.38,1.62-6.29,1.43-1.88-.19-3.16-.78-4.19-1.88-1.54-1.67-2.29-4.49.06-8.13.45-1.05,1.33-1.98,2.41-3.43,3.1-3.59,6.72-8.03,3.04-12.15-.11-.43-.57-.78-1.03-1.12-2.43-2.14-6.04-3.26-10.4-3.02-1.51-.07-3.64.26-5.77.6-5.17,1.38-14.08,11.4-16.36,19.43-1.78,7.17-2.12,15.61-1.44,23.76,1.1,8.28-.31,12.69,6.78,22.74,4.08,5.48,16.16,10.28,23.64,9.21,10.3-1.58,19.05-6.81,26.11-14.35l.18-.2c.67-.72,1.22-1.32,1.7-1.86.55-.38,1.23-.67,1.96-.87,2.54-.68,4.93.06,5.35,1.64Z"/>
      <path class="cls-9" d="m293.99,512.27h0c0,1.15.9,2.1,2.04,2.18,45.68,3.04,79.83,15.23,79.82,29.79,0,16.82-45.73,30.48-102.14,30.47-56.41,0-102.13-13.68-102.13-30.5,0-14.31,32.99-26.31,77.47-29.6,1.14-.08,2.02-1.03,2.02-2.18h0c0-1.27-1.07-2.28-2.33-2.2-57.79,3.64-101.31,19.78-101.32,39.15,0,22.05,56.53,39.94,126.28,39.95s126.29-17.87,126.29-39.92c0-19.65-44.74-35.95-103.7-39.34-1.25-.07-2.32.94-2.32,2.2Z"/>
      <ellipse class="cls-4" cx="273.85" cy="549.79" rx="76.08" ry="18.46"/>
      <ellipse class="cls-4" cx="273.85" cy="549.79" rx="63.09" ry="15.31"/>
      <path class="cls-6" d="m346.62,549.96c0,1.79-1.52,3.51-4.32,5.1-10.08,5.78-36.75,9.93-68.05,9.93s-60.39-4.52-69.34-10.71c-1.97-1.36-3.03-2.83-3.03-4.32,0-1.74,1.41-3.41,4.04-4.95,1.34.05,2.53.88,3.23,2.15-.51.61-.76,1.21-.76,1.84,0,.81.43,1.59,1.24,2.32,5.86,5.48,32,9.6,63.32,9.6s58.75-4.32,63.73-10c.56-.63.83-1.26.83-1.92,0-.3-.05-.61-.2-.88.81-1.36,2.37-2.35,4.22-2.48.98-.08,1.92.13,2.73.51,1.54,1.21,2.35,2.5,2.35,3.81Z"/>
      <path class="cls-8" d="m400,549.16c0,69.74-56.55,126.3-126.3,126.3s-126.3-56.55-126.3-126.3c0,0,27.25,33.49,126.29,33.49s126.3-33.49,126.3-33.49Z"/>
      <g id="fumaca">
        <path class="cls-1" d="m261.39,527.39h-.3c.06-.25.11-.5.17-.75l1.21-1.94c.1-.11.2-.23.29-.34.36-.45.55-1,.84-1.48,1.67-2.75,3.36-5.49,5.06-8.23,1.08-1.74,2.14-3.46,2.56-5.53.51-2.57,1.25-5.09,1.24-7.74.29-.65.1-1.32.12-1.98v-1.83c0-.22.13-.46-.13-.62-.01-.76-.02-1.51-.03-2.27,0-.1,0-.2,0-.3-.15-.76-.1-1.57-.45-2.29.02-.22.15-.46-.12-.62-.1-1.45-.64-2.78-1.09-4.13-.75-2.23-1.86-4.3-3.04-6.32-1.84-3.12-4.18-5.86-6.56-8.55-2.08-2.36-4.57-4.29-6.87-6.41-.09-.19-.26-.27-.45-.31l-.29-.29c-.27-.27-.53-.54-.8-.81-.52-.45-1.05-.88-1.56-1.34-1.23-1.13-2.57-2.14-3.84-3.23-2.55-2.19-5.06-4.43-7.59-6.65-.09-.22-.25-.38-.46-.48-.32-.32-.61-.67-.96-.96-2.43-2.09-4.51-4.51-6.54-6.96-1.74-2.1-3.26-4.38-4.58-6.79-1.66-3.02-2.94-6.17-3.66-9.55-.14-.64-.23-1.28-.28-1.94-.05-.58-.31-1.22-.34-1.86-.01-.22-.16-.22-.31-.22v-8.07c.12-.02.27,0,.29-.17.1-.96.19-1.92.29-2.88.16-.82.32-1.65.49-2.47.9-4.38,2.32-8.58,4.32-12.58.78-1.55,1.66-3.05,2.5-4.57.08-.03.15-.06.12-.16.26-.4.53-.8.79-1.21.37-.27.5-.72.78-1.06h0c.08-.02.13-.07.11-.17.27-.34.53-.69.8-1.03.28-.37.57-.73.85-1.1.67-.8,1.35-1.61,2.02-2.41.05-.06.1-.12.15-.18.04-.03.07-.07.11-.1.47-.52.95-1.04,1.42-1.56.51-.45,1-.92,1.35-1.51.58-.57,1.15-1.14,1.73-1.71.04,0,.06-.02.06-.06.46-.33.9-.67,1.23-1.13h0c.66-.57,1.22-1.25,1.85-1.84,1.38-1.29,2.65-2.69,4.05-3.95.1-.11.21-.21.31-.32.05-.05.1-.09.15-.14h0c.41-.41.83-.81,1.24-1.21.35-.32.69-.64,1.04-.97.21-.08.35-.22.45-.41h0c.18-.17.35-.34.53-.51h.01c.07-.09.14-.17.21-.25.41-.4.82-.8,1.23-1.2q1.04-.03.73.89c-.09.29-.42.45-.43.79-.15.05-.11.17-.11.28-.04.03-.06.08-.06.13-.16.06-.13.21-.16.33h0c-.08.01-.14.05-.11.15-.66,1.49-1.42,2.94-2.18,4.39-1.63,3.11-3.13,6.29-4.69,9.44-.04.06-.07.12-.11.18-.37.5-.43,1.11-.61,1.68-.01.1-.03.2-.04.3-.09.02-.15.06-.09.16,0,.1,0,.19,0,.29-.44.86-.39,1.84-.66,2.75-.17.05-.15.18-.12.31-.06.5-.12,1.01-.18,1.51-.09.02-.15.05-.12.16,0,.25,0,.51,0,.76.02.22-.26.37-.16.61,0,.05,0,.1,0,.16-.05.15-.24.25-.16.45-.01.35-.03.71-.04,1.06-.09.4.07.83-.11,1.22,0,1.42.01,2.84.01,4.25,0,.48-.09.98,0,1.43.2.94,0,1.91.29,2.84,0,.16-.08.35.12.46,0,.15.02.3.03.45,0,.31-.11.64.15.91.23.48.03,1.05.3,1.52-.03.43.1.83.26,1.23.34,1.51.74,3,1.41,4.41.22.86.61,1.65,1.02,2.44.01.3.21.51.34.76.1.2.2.41.3.61.05.1.11.2.16.31-.03.1.03.14.11.16h0c.38.8.79,1.58,1.34,2.28.12.28.19.6.48.77.27.48.42,1.04.91,1.37-.03.23.14.33.3.43.03.33.34.49.47.77.05.05.09.1.14.14.14.22.19.5.47.6.54.98,1.35,1.75,1.99,2.66.19.18.39.36.58.54.52.82,1.24,1.47,1.92,2.15.05.3.27.46.49.61l1.22,1.35c.05.15.15.25.3.3h0c.05.05.1.11.15.16.05.05.1.1.15.15.06.15.16.25.31.3h0c.05.05.1.1.15.15.05.05.1.1.15.15.06.15.16.25.31.29,0,0,0,0,0,0,.05.05.1.09.14.14.05.05.1.11.16.16.05.15.15.25.3.28l.02.02c0,.1.03.14.13.12l.03.03c.02.16.12.24.26.28.15.12.3.24.45.36.07.13.13.26.31.26.06.06.12.12.18.18-.02.1.04.14.12.16.05.05.1.1.15.15.06.14.16.24.31.28.02.11.09.16.2.17-.02.09,0,.13.1.11.56.52,1.11,1.04,1.67,1.57.05.05.1.1.16.15.15.33.5.43.75.63l1.52,1.37,2.71,2.42c.16.22.31.46.62.49.41.4.81.8,1.22,1.2,1.01.96,2.02,1.92,3.03,2.88h0c.02.08.06.14.16.12.51.49,1.02.97,1.52,1.47,1.27,1.29,2.53,2.59,3.79,3.88.06.06.12.13.17.19-.01.06,0,.1.07.1.26.51.67.89,1.1,1.25,0,.05,0,.09.03.13.06.23.23.36.43.46.38.53.69,1.1,1.19,1.52.04.39.38.55.61.8-.02.22.14.32.3.42.26.62.69,1.14,1.08,1.68.04.05.08.1.12.15.56,1.01,1.13,2.03,1.69,3.04h0c.23.81.66,1.54,1.05,2.28.02.05.04.1.06.15.03.06.07.12.1.18.03.15-.04.33.14.43.52,1.62,1.04,3.24,1.56,4.86.08.47.11.94.32,1.38,0,.1,0,.19,0,.29.09.45.18.91.26,1.36.16.92.32,1.84.47,2.75-.05,1.25.16,2.49.26,3.73.13,1.65-.07,3.3-.26,4.94,0,.1,0,.2,0,.3,0,.1,0,.2,0,.3-.06.29-.17.58-.18.87-.06,1.8-.55,3.52-.87,5.27.02.25-.25.44-.14.71-.05.15-.11.31-.16.46,0,.1,0,.19,0,.29-.36,1.12-.72,2.24-1.08,3.36.04.22-.27.36-.15.61-.13.18-.18.38-.18.6-.14.06-.13.19-.11.31-.31.69-.65,1.37-.8,2.12-.16.06-.13.2-.14.32-.97,1.93-1.93,3.85-2.9,5.78-.29.46-.58.92-.86,1.38-.21.4-.53.73-.66,1.18-.4.26-.52.72-.76,1.1-.45.65-1.03,1.22-1.36,1.96-.41.42-.82.84-1.07,1.39h0c-.75.67-1.36,1.48-1.96,2.29-.1.1-.2.2-.3.3-.05.05-.1.09-.16.14-.05.05-.1.1-.15.15-.41.28-.65.71-.96,1.08-.09.09-.17.18-.26.27-.53.33-.97.75-1.34,1.26-.1.1-.21.19-.31.29-.06.05-.12.1-.18.16h.01c-.23,0-.36.13-.46.32-.24.21-.49.42-.73.63-.25.19-.51.39-.76.58-.86.66-1.72,1.31-2.58,1.97-.23-.02-.35.13-.46.3-.05,0-.11,0-.15.02-1.89,1.2-3.89,2.17-5.96,3.02-.3.12-.71.15-.7.64h-.3c-.1-.34-.2-.05-.3,0Z"/>
        <path class="cls-6" d="m257.9,529.08h-.28c.05-.25.1-.5.15-.76.37-.65.73-1.3,1.1-1.95.09-.11.18-.23.27-.34.33-.45.5-1,.77-1.49,1.52-2.76,3.06-5.51,4.61-8.26.98-1.75,1.95-3.47,2.33-5.56.47-2.58,1.14-5.11,1.12-7.77.26-.65.09-1.33.11-1.99v-1.83c0-.22.12-.46-.11-.63,0-.76-.02-1.52-.03-2.28,0-.1,0-.2,0-.3-.13-.77-.09-1.57-.41-2.3.01-.22.13-.46-.11-.63-.09-1.45-.58-2.79-.99-4.15-.68-2.24-1.69-4.32-2.77-6.35-1.67-3.14-3.8-5.88-5.97-8.59-1.9-2.37-4.16-4.31-6.26-6.44-.08-.2-.24-.27-.41-.31l-.27-.29c-.24-.27-.48-.54-.72-.81-.47-.45-.96-.88-1.42-1.34-1.12-1.14-2.34-2.15-3.5-3.24-2.32-2.2-4.61-4.45-6.91-6.67-.08-.22-.22-.38-.42-.48-.29-.32-.56-.67-.87-.97-2.21-2.09-4.1-4.53-5.95-6.99-1.59-2.11-2.96-4.4-4.17-6.82-1.51-3.03-2.68-6.2-3.33-9.58-.12-.64-.21-1.29-.26-1.95-.04-.59-.28-1.22-.31-1.86,0-.22-.14-.22-.28-.23v-8.1c.11-.02.25,0,.26-.17.09-.96.17-1.93.26-2.89.15-.83.29-1.65.45-2.48.82-4.4,2.11-8.62,3.93-12.63.71-1.56,1.51-3.06,2.27-4.59.07-.03.13-.06.11-.16.24-.4.48-.81.72-1.21.34-.27.46-.72.71-1.06h0c.08-.02.12-.07.1-.17.24-.35.48-.69.73-1.04.26-.37.52-.74.78-1.1.61-.81,1.23-1.61,1.84-2.42.04-.06.09-.12.13-.18.03-.03.07-.07.1-.1.43-.52.86-1.05,1.29-1.57.46-.45.91-.92,1.23-1.52.52-.57,1.05-1.15,1.57-1.72.04,0,.06-.02.06-.06.41-.33.82-.67,1.12-1.14h0c.6-.57,1.11-1.26,1.68-1.85,1.25-1.29,2.41-2.7,3.69-3.96.09-.11.19-.21.28-.32.04-.05.09-.09.13-.14h0c.38-.41.75-.81,1.13-1.21.31-.32.63-.65.94-.97.19-.08.31-.22.41-.41,0,0,0,0,0,0,.16-.17.32-.34.48-.51,0,0,.01-.01.01-.01.06-.08.13-.16.19-.24.37-.4.74-.8,1.12-1.2q.95-.03.66.89c-.09.29-.38.45-.39.79-.14.05-.1.17-.1.28-.04.03-.06.08-.05.13-.15.06-.12.21-.14.33h0c-.07.01-.12.05-.1.15-.6,1.5-1.29,2.95-1.98,4.4-1.48,3.12-2.85,6.31-4.27,9.47-.03.06-.06.12-.1.18-.34.5-.39,1.12-.56,1.69-.01.1-.03.2-.04.3-.08.02-.13.06-.09.16,0,.1,0,.19,0,.29-.4.87-.35,1.85-.6,2.76-.16.05-.14.18-.11.31-.05.51-.11,1.01-.16,1.52-.08.02-.13.05-.11.16,0,.26,0,.51,0,.77.02.22-.24.37-.14.61,0,.05,0,.1,0,.16-.05.15-.22.26-.14.46-.01.35-.03.71-.04,1.06-.08.4.06.83-.1,1.23,0,1.42,0,2.85.01,4.27,0,.48-.09.98,0,1.44.18.94,0,1.92.26,2.85,0,.16-.08.35.11.46,0,.15.02.3.03.46,0,.31-.1.65.14.92.21.48.03,1.05.27,1.53-.03.44.09.84.24,1.23.31,1.52.67,3.02,1.29,4.42.2.87.56,1.66.93,2.45.01.3.2.51.31.76.09.2.18.41.28.61.05.1.1.21.15.31-.03.1.03.14.1.16h0c.34.8.72,1.59,1.22,2.29.11.28.18.6.44.78.25.48.38,1.04.83,1.38-.03.23.12.33.27.44.03.34.31.5.43.77.04.05.09.1.13.14.12.22.17.5.43.6.49.98,1.23,1.76,1.81,2.67.18.18.35.36.53.55.48.83,1.13,1.48,1.75,2.15.04.3.24.46.45.61l1.11,1.36c.05.15.14.25.28.3h0c.04.05.09.11.13.16.04.05.09.1.13.15.05.15.14.25.28.3,0,0,0,0,0,0,.05.05.09.1.14.15.05.05.09.1.14.15.05.15.14.25.28.29h0c.04.05.09.1.13.15.05.05.1.11.14.16.05.15.13.25.28.28l.02.02c0,.1.03.14.12.12l.03.03c.02.16.11.24.24.28.14.12.27.24.41.36.06.13.12.26.28.26.05.06.11.12.16.18-.02.1.03.14.11.16.05.05.09.1.14.15.05.14.14.24.28.28.02.11.08.16.18.17-.02.09,0,.13.09.11.51.52,1.01,1.05,1.52,1.57.05.05.09.1.14.15.13.33.45.43.68.63l1.38,1.38,2.46,2.43c.14.22.28.46.56.49.37.4.74.8,1.11,1.2.92.97,1.84,1.93,2.76,2.9h0c.02.08.05.14.14.12.46.49.93.97,1.38,1.48,1.15,1.29,2.3,2.6,3.45,3.89.05.06.11.13.16.19-.01.06,0,.1.07.1.24.52.61.89,1.01,1.26,0,.05,0,.09.03.13.05.23.21.36.39.46.34.53.62,1.11,1.09,1.53.04.39.34.55.56.8-.01.22.13.32.27.43.24.62.62,1.14.98,1.68.04.05.07.1.11.15.51,1.02,1.03,2.04,1.54,3.05h0c.21.81.6,1.55.95,2.29.02.05.04.1.06.15.03.06.06.12.09.18.03.15-.04.33.13.43.47,1.63.95,3.26,1.42,4.88.07.47.1.95.29,1.38,0,.1,0,.19,0,.29.08.46.17.91.24,1.37.15.92.29,1.84.43,2.76-.05,1.26.15,2.5.24,3.75.12,1.66-.07,3.31-.23,4.96,0,.1,0,.2,0,.31,0,.1,0,.2,0,.31-.06.29-.15.58-.16.87-.06,1.8-.5,3.53-.8,5.29.01.25-.23.45-.13.72-.05.15-.1.31-.15.46,0,.1,0,.19,0,.29-.33,1.12-.65,2.25-.98,3.37.03.23-.24.36-.14.61-.12.18-.17.38-.17.6-.13.06-.12.19-.1.31-.28.69-.59,1.38-.73,2.13-.14.06-.12.2-.13.32-.88,1.93-1.76,3.87-2.64,5.8-.26.46-.52.92-.79,1.38-.19.4-.48.73-.6,1.18-.37.26-.47.73-.69,1.1-.41.65-.94,1.22-1.23,1.97-.37.42-.75.85-.98,1.39h0c-.68.68-1.24,1.48-1.78,2.3-.09.1-.18.2-.28.3-.05.05-.09.09-.14.14-.05.05-.09.1-.14.15-.38.28-.59.71-.88,1.08-.08.09-.16.18-.23.27-.49.33-.89.76-1.22,1.26-.1.1-.19.19-.29.29-.05.05-.11.1-.16.16h.01c-.21,0-.33.13-.42.32-.22.21-.44.42-.67.63-.23.19-.46.39-.69.58-.78.66-1.56,1.32-2.35,1.98-.21-.02-.32.13-.41.3-.05,0-.1,0-.13.02-1.72,1.21-3.54,2.18-5.42,3.03-.27.12-.65.15-.64.64h-.28c-.09-.34-.18-.05-.28,0Z"/>
      </g>
      <path class="cls-8" d="m397.15,575.56c-.88,4.4-2.24,9.17-3.6,13.39-27.13,49.15-207.93,49.94-239,2.03-1.54-4.57-3.04-9.46-4.05-14.26,4.72,4.82,33.51,31.59,121.97,31.59,95.71,0,123.85-31.77,124.68-32.75Z"/>
      <path class="cls-1" d="m387.96,679.81c0,21.9-52.03,39.66-116.22,39.66s-116.21-17.76-116.21-39.66c0-10.18,11.25-19.48,29.74-26.49.25,21.8,38.87,39.44,86.46,39.44s86.23-17.64,86.48-39.44c18.49,7.01,29.74,16.31,29.74,26.49Z"/>
      <path class="cls-8" d="m379.13,674.8c0,4.15-2.23,8.12-6.34,11.8-14.8,13.37-53.98,22.95-99.95,22.95s-88.71-10.45-101.84-24.76c-2.89-3.15-4.45-6.54-4.45-9.99,0-4.03,2.08-7.88,5.94-11.45,1.97.12,3.71,2.04,4.75,4.96-.74,1.4-1.11,2.8-1.11,4.26,0,1.87.63,3.68,1.82,5.37,8.61,12.67,47.01,22.19,93.01,22.19s86.3-9.99,93.61-23.13c.82-1.46,1.22-2.92,1.22-4.44,0-.7-.07-1.4-.3-2.04,1.19-3.15,3.49-5.43,6.2-5.72,1.45-.18,2.82.29,4.01,1.17,2.26,2.8,3.45,5.78,3.45,8.82Z"/>
    </g>
  </g>
</svg>